<svg xmlns="http://www.w3.org/2000/svg" xmlns:xlink="http://www.w3.org/1999/xlink" viewBox="0 0 55 54.755"><defs><style>.a{fill:#ffffff;}.b{opacity:0.5;fill:url(#a);}</style><linearGradient id="a" x1="0.508" y1="1" x2="0.508" gradientUnits="objectBoundingBox"><stop offset="0" stop-color="#ffffff" stop-opacity="0"/><stop offset="1" stop-color="#ffffff"/></linearGradient></defs><g transform="translate(-74 -20)"><g transform="translate(74 20)"><path class="a" d="M31.9,0l-.734,1.664L29.4,4.4l1.762-.2L31.9,2.789l.734,1.419,1.811.2L32.63,1.664Z" transform="translate(-15.014)"/><path class="a" d="M43.244,15l-.734,1.664L40.7,19.4l1.81-.2.734-1.419.734,1.419,1.81.2-1.81-2.74Z" transform="translate(-20.785 -7.66)"/><path class="a" d="M54.644,31l-.734,1.664L52.1,35.4l1.811-.2.734-1.419.734,1.419,1.81.2-1.81-2.74Z" transform="translate(-26.606 -15.831)"/><path class="a" d="M65.944,47l-.734,1.664L63.4,51.4l1.81-.2.734-1.419.734,1.419,1.811.2-1.811-2.74Z" transform="translate(-32.377 -24.002)"/><path class="a" d="M77.344,63l-.734,1.713L74.8,67.4l1.81-.2.734-1.419.734,1.419,1.81.2-1.81-2.691Z" transform="translate(-38.199 -32.173)"/><path class="b" d="M34.436,58.03H31.5L32.968,6.7Z" transform="translate(-16.086 -3.422)"/><path class="b" d="M45.836,65.635H42.9L44.368,21.4Z" transform="translate(-21.908 -10.928)"/><path class="b" d="M57.236,73.806H54.3L55.768,37.4Z" transform="translate(-27.73 -19.099)"/><path class="b" d="M68.536,82.028H65.6L67.068,53.5Z" transform="translate(-33.5 -27.321)"/><path class="b" d="M79.936,90.2H77l1.468-20.7Z" transform="translate(-39.322 -35.492)"/><g transform="translate(0 40.369)"><path class="a" d="M6.263,89.987,12.576,82.5l-.1,14.337H9.689V89.791L6.263,94.1,2.838,89.791v7.046H0V82.6Z" transform="translate(0 -82.5)"/><path class="a" d="M52.642,94.684H47.21l-1.028,2.153H43.1L50,82.5l6.7,14.337H53.669Zm-2.691-6.606-1.81,4.306h3.621Z" transform="translate(-22.01 -82.5)"/><path class="a" d="M86.4,91.655a6.238,6.238,0,0,1,1.957-4.893A6.837,6.837,0,0,1,93.055,85a6.676,6.676,0,0,1,3.866,1.174A5.3,5.3,0,0,1,99.073,89.6H96.382a3.2,3.2,0,0,0-3.327-2.1,3.647,3.647,0,0,0-2.789,1.125,4.369,4.369,0,0,0-1.077,2.985,4.07,4.07,0,0,0,1.077,2.887,3.586,3.586,0,0,0,2.789,1.174,3.831,3.831,0,0,0,2.153-.587,2.913,2.913,0,0,0,1.223-1.762h2.691a5.167,5.167,0,0,1-2.1,3.621,6.8,6.8,0,0,1-3.964,1.223,7.048,7.048,0,0,1-2.5-.44,6.429,6.429,0,0,1-2.1-1.223,5.1,5.1,0,0,1-1.468-2.1A6.1,6.1,0,0,1,86.4,91.655Z" transform="translate(-44.122 -83.777)"/></g></g></g></svg>