<svg xmlns="http://www.w3.org/2000/svg" width="471" height="211" viewBox="0 0 471 211"><g transform="translate(428 214) rotate(180)"><path d="M425.5,214h-13v-1h13a1.538,1.538,0,0,0,1.5-1.5v-13h1v13A2.476,2.476,0,0,1,425.5,214Z" fill="#7ee6ff"/><g transform="translate(-43 3)"><path d="M1,15.5H0V2.5A2.476,2.476,0,0,1,2.5,0h13V1H2.5A1.538,1.538,0,0,0,1,2.5Z" fill="#7ee6ff"/></g><g transform="translate(0 3)"><path d="M428,15.5h-1V2.5A1.538,1.538,0,0,0,425.5,1h-13V0h13A2.476,2.476,0,0,1,428,2.5Z" fill="#7ee6ff"/></g><g opacity="0"><path d="M15.5,214H2.5A2.476,2.476,0,0,1,0,211.5v-13H1v13A1.538,1.538,0,0,0,2.5,213h13Z" fill="#7ee6ff"/></g></g></svg>