<svg xmlns="http://www.w3.org/2000/svg" viewBox="0 0 47 16.39"><defs><style>.a{fill:#7ee6ff;}</style></defs><g transform="translate(-828 -37.05)"><path class="a" d="M84.56,0A11.981,11.981,0,0,0,72.6,11.96v4.43H87.462V11.96l-10.521.022a7.666,7.666,0,0,1,7.641-7.619h2.9V.044L84.56,0Z" transform="translate(771.48 37.05)"/><path class="a" d="M153.717,7.6a7.666,7.666,0,0,1,6.224-3.256h2.9V0h-2.9A12.018,12.018,0,0,0,148.8,7.575l4.917.022Z" transform="translate(712.158 37.05)"/><path class="a" d="M2.9,0a11.981,11.981,0,0,1,11.96,11.96v4.43H0L.022,7.553H4.385V11.96h6.135A7.666,7.666,0,0,0,2.879,4.341H.022V0Z" transform="translate(828 37.05)"/><path class="a" d="M158.156,34.1a6.731,6.731,0,0,1,1.705,4.408v4.43H145v-4.43l10.144.022a8.134,8.134,0,0,0-1.883-4.408l4.895-.022Z" transform="translate(715.116 10.503)"/></g></svg>