<svg xmlns="http://www.w3.org/2000/svg" viewBox="0 0 47.297 28.396"><defs><style>.a{fill:#7ee6ff;}.a,.b,.c,.d{stroke:#7ee6ff;stroke-width:0.25px;}.b,.c,.d{fill:none;}.c{opacity:0.3;}.d{opacity:0.15;}</style></defs><g transform="translate(0.172 -0.876)"><g transform="translate(0 1)"><path class="a" d="M0,98.2a6.618,6.618,0,0,0,1.259-.782A1.6,1.6,0,0,1,2.5,97.08a3.838,3.838,0,0,1,.929.2,1.31,1.31,0,0,1,.62.4c.022.035.044.07.066.1a.969.969,0,0,1,.087.668,3.045,3.045,0,0,1-.122.909c-.048.1-.069.158-.175.043a3.677,3.677,0,0,0-.414-.372.485.485,0,0,0-.769.1c-.028.037-.045.1-.1.092s-.076-.07-.094-.12a1.109,1.109,0,0,0-.26-.532A.428.428,0,0,0,2,98.445c-.456-.017-.893-.171-1.346-.2A3.77,3.77,0,0,0,0,98.226.165.165,0,0,1,0,98.2Z" transform="translate(0 -89.503)"/><path class="a" d="M46.368,8.283c-.022-.035-.044-.07-.066-.1A8.972,8.972,0,0,1,49.03,6.989c.679-.164,1.357-.335,2.04-.481a.309.309,0,0,0,.172-.065,5.549,5.549,0,0,0-.747-.273,26.013,26.013,0,0,0-2.7-.562c-.441-.085-.883-.168-1.325-.251-.029-.005-.058-.015-.079.016l-.319-.14c-.006-.069.037-.1.089-.138A9.423,9.423,0,0,1,49.2,3.753a6.38,6.38,0,0,1,1.511-.177.948.948,0,0,0-.808-.459,8.6,8.6,0,0,0-1.466.036,3.556,3.556,0,0,1-1.587-.184,3.513,3.513,0,0,1-.484-.158c-.007-.065.04-.107.069-.156.039-.065.1-.122.085-.211.018-.006.045-.006.054-.019a1.274,1.274,0,0,1,.62-.391,6.537,6.537,0,0,1,1.478-.545,5.653,5.653,0,0,1,.808-.062,2.353,2.353,0,0,0-.744-.281c-.389-.041-.782-.01-1.169-.081a1.324,1.324,0,0,1-.441-.15.426.426,0,0,0-.266-.064L46.77.657a.688.688,0,0,1,.3.028c.112.036.2.11.316.142a3.417,3.417,0,0,0,.866.114,2.873,2.873,0,0,1,.628.034,5.1,5.1,0,0,1,.833.333,2.475,2.475,0,0,0,.8.232,7.841,7.841,0,0,1,1.063.182c.325.073.653.139.978.209.384.083.759.2,1.148.264.316.052.628.121.946.164.213.029.427.041.639.069.443.06.889.092,1.339.124a.219.219,0,0,0-.11-.079c-.353-.157-.7-.317-1.06-.47-.4-.172-.8-.34-1.187-.54-.076-.039-.186-.073-.172-.193s.122-.087.2-.109c.014,0,.027-.013.041-.016.3-.068.6-.154.907-.2A9.345,9.345,0,0,1,56.592.875,1.145,1.145,0,0,0,57,.806a4.521,4.521,0,0,0-.556-.293,1.166,1.166,0,0,0-.5-.192c-.685,0-1.37-.009-2.054-.019Q52,.271,50.11.188a13.766,13.766,0,0,0-2.456.09c-.3.041-.592.1-.89.135a.12.12,0,0,0-.114.078L46.457.328a.48.48,0,0,1,.255-.09A14,14,0,0,1,50.173.02c.567.024,1.135.027,1.7.048.934.036,1.869.048,2.8.064.469.008.939,0,1.408-.005A13.636,13.636,0,0,1,57.97.28q1.615.2,3.215.493.922.17,1.836.382c1.056.246,2.109.51,3.165.761.642.153,1.29.271,1.943.373a2.277,2.277,0,0,0,1.414-.315c.568-.288,1.1-.624,1.65-.95a5.675,5.675,0,0,1,1.5-.682,4.029,4.029,0,0,1,2.241.1c.728.232,1.41.576,2.11.876.935.4,1.794.939,2.692,1.407.264.137.518.295.77.454.2.125.428.169.629.292.985.6,1.964,1.207,2.913,1.86.041.028.1.044.1.113a.414.414,0,0,1-.049.167,9.254,9.254,0,0,1-3.165,3.943c-1.035.738-2.11,1.417-3.169,2.121a.193.193,0,0,0-.112.182,2.932,2.932,0,0,1-.7,1.955,2.528,2.528,0,0,1-1.188.864c-.05.016-.115.051-.074.14a7.863,7.863,0,0,0,.713,1.395,23.8,23.8,0,0,1,1.342,1.977,4.947,4.947,0,0,1,.634,2.976c-.017.2-.055.394-.082.592A3.742,3.742,0,0,1,77.072,23.5a4.047,4.047,0,0,1-2.636.856.459.459,0,0,0-.26.072,8.983,8.983,0,0,1-2.273.963,14.265,14.265,0,0,1-4.358.458c-.225-.008-.448-.037-.672-.06-.055-.005-.121-.007-.119-.1s.04-.1.107-.112a8.6,8.6,0,0,0,1.7-.628c.134-.057.267-.119.44-.2-.143-.018-.244-.027-.345-.044a4.654,4.654,0,0,1-2.151-1.039c-.05-.04-.122-.088-.079-.168s.119-.048.191-.02a2.336,2.336,0,0,0,.719.127,10.14,10.14,0,0,0,1.686.008c.023,0,.045-.009.1-.019a.927.927,0,0,0-.328-.082c-1.083-.16-2.16-.357-3.24-.533a1.937,1.937,0,0,0-.336-.022c-.063,0-.109-.015-.129-.072s.022-.114.077-.14c.221-.1.441-.208.665-.3A12.189,12.189,0,0,1,67.017,22a8.493,8.493,0,0,0-2.093-.706,6.381,6.381,0,0,1,2.426-.479c-.281-.132-.523-.253-.757-.391-.052-.03-.1.005-.155.022a19.76,19.76,0,0,0-2.774,1.145c-1.091.547-2.2,1.06-3.337,1.51-1.612.638-3.229,1.265-4.863,1.845-.736.262-1.477.511-2.233.71a5.336,5.336,0,0,1-1.08.081c-.508.029-1.014.072-1.523.1A7.094,7.094,0,0,1,47.4,25.4c-.31-.131-.613-.279-.929-.4l.006,0c-.012-.028-.039-.027-.063-.03a2.217,2.217,0,0,0-.589-.254,1.837,1.837,0,0,1,1.038-1.41,4.917,4.917,0,0,1,1.373-.5c.872-.236,1.747-.462,2.633-.646.232-.048.467-.083.706-.154-.2-.062-.392-.126-.589-.186-.945-.285-1.894-.556-2.863-.746a10.181,10.181,0,0,0-1.831-.225l-.2-.15c.007-.06.056-.072.1-.092a25.843,25.843,0,0,1,3.435-1.307,8.385,8.385,0,0,1,1.116-.246.2.2,0,0,0,.126-.046c-.266-.1-.521-.208-.778-.306-.726-.277-1.45-.558-2.2-.772a6.071,6.071,0,0,0-1.537-.189l-.235-.091a2.77,2.77,0,0,1,1.654-1.379,14.116,14.116,0,0,1,2.716-.653,4.564,4.564,0,0,0,.646-.126,5.532,5.532,0,0,0-.767-.218c-.748-.172-1.5-.338-2.245-.506l-1.639-.366c-.029-.006-.058-.019-.077.016l-.352-.25a.081.081,0,0,1,.019-.1c.41-.309.74-.713,1.157-1.01a8.275,8.275,0,0,1,2.086-1.015,4.974,4.974,0,0,1,1.4-.314,6.019,6.019,0,0,0,.644.006c-.257-.124-.487-.233-.716-.345a2.889,2.889,0,0,0-.5-.242,2.538,2.538,0,0,0-.933-.006,3.279,3.279,0,0,1-1.2-.119c-.636-.175-1.287-.285-1.935-.4-.03-.005-.058-.015-.078.017a.1.1,0,0,1-.076-.037c-.013-.076-.014-.143.072-.186.561-.277,1.078-.626,1.614-.946a2.461,2.461,0,0,1,1.862-.334,1.086,1.086,0,0,0-.324-.18c-.106-.05-.215-.092-.322-.14a4.856,4.856,0,0,0-1.159-.232A9.781,9.781,0,0,1,46.477,8.3.558.558,0,0,0,46.368,8.283Zm22.348,17.4.02-.005a3.257,3.257,0,0,0,.807-.051,10.58,10.58,0,0,0,4.384-1.272.1.1,0,0,0-.068-.022,14.722,14.722,0,0,1-2.073-.274c-.508-.1-1.012-.214-1.522-.3a1.446,1.446,0,0,0-.535-.062,7.259,7.259,0,0,1-1.558.132,9.538,9.538,0,0,1-1.235-.082c.021.028.027.042.038.049a3.455,3.455,0,0,0,2.39.738c.058-.009.15-.034.169.039a.156.156,0,0,1-.105.193c-.283.119-.557.258-.837.383-.394.175-.791.343-1.2.5a2.231,2.231,0,0,0,.575.046A3.683,3.683,0,0,0,68.716,25.678Zm5.391-15.636c-.047.013-.094.025-.14.04a.282.282,0,0,0-.118.486.662.662,0,0,0,.256.154c.056.016.125.041.143.111a2.479,2.479,0,0,1,.113.641c0,.075-.019.11-.1.1-.1-.011-.193-.026-.291-.027a.581.581,0,0,1-.614-.373c-.087-.218-.334-.221-.478-.027a.6.6,0,0,0-.1.362c0,.288,0,.578,0,.866a.619.619,0,0,0,.1.363.259.259,0,0,0,.455,0,1.126,1.126,0,0,0,.123-.232.229.229,0,0,1,.166-.148,2.879,2.879,0,0,1,.653-.089c.06,0,.087.016.085.083a3.218,3.218,0,0,1-.073.61.277.277,0,0,1-.2.226.827.827,0,0,0-.24.14.208.208,0,0,0-.073.26.4.4,0,0,0,.408.253c.338,0,.675,0,1.014,0a.487.487,0,0,0,.277-.083.271.271,0,0,0,.011-.479.642.642,0,0,0-.167-.09.246.246,0,0,1-.173-.2,3.541,3.541,0,0,1-.083-.654c0-.071.034-.07.08-.067a3.476,3.476,0,0,1,.553.068.292.292,0,0,1,.241.2.774.774,0,0,0,.148.252.205.205,0,0,0,.249.063c.167-.057.253-.2.259-.442.006-.313,0-.627,0-.939a.58.58,0,0,0-.073-.295A.283.283,0,0,0,76,11.175a.721.721,0,0,0-.08.156.219.219,0,0,1-.163.15,3.119,3.119,0,0,1-.623.09c-.076.009-.078-.034-.073-.087.015-.146.023-.292.046-.437.026-.166.059-.331.266-.376a.4.4,0,0,0,.137-.083.231.231,0,0,0,.081-.309c-.067-.161-.216-.193-.356-.24a6.558,6.558,0,0,0-.83-.016A.629.629,0,0,0,74.107,10.042Zm3.756-2.825c-.119.059-.1.184-.116.281-.165.929-.277,1.865-.409,2.8a.607.607,0,0,0,.063.449.65.65,0,0,1,.087.213c.041.181.1.357.158.548l1.045-.667a.163.163,0,0,0,.082-.13c.065-.588.134-1.175.2-1.762.02-.192.014-.193.214-.193.773,0,1.547-.006,2.32,0,.11,0,.151-.034.143-.143-.016-.205-.02-.411-.042-.614-.066-.612-.14-1.222-.211-1.834a.151.151,0,0,1,.126-.184,1.276,1.276,0,0,1,.187-.035,16.767,16.767,0,0,1,1.8-.065.31.31,0,0,0,.358-.231c.035-.1.027-.143-.049-.2a12.1,12.1,0,0,0-1.223-.8.866.866,0,0,0-.515-.12c-.425.017-.851.015-1.276.039a8.318,8.318,0,0,0-.973.077c-.1.018-.13.055-.118.151.036.276.065.553.1.829.058.455.122.91.18,1.366a.163.163,0,0,1-.09.2,1.9,1.9,0,0,1-.511.019c-.41-.041-.82-.012-1.23-.023A.719.719,0,0,0,77.864,7.218ZM66.287,13.543a.421.421,0,0,0-.193.063c-.571.278-1.14.557-1.712.833q-1.973.95-3.948,1.9-.9.43-1.8.854c-.3.143-.611.278-.923.419.022.023.034.048.055.058a3.431,3.431,0,0,1,.639.486,1.051,1.051,0,0,0,.5.256c.055.009.135-.02.153.076s-.032.14-.1.187a13.653,13.653,0,0,1-1.141.77,8.617,8.617,0,0,1,.971.218.5.5,0,0,1,.353.319c.041.115.088.228.122.345.027.094.069.1.147.058.2-.105.4-.192.6-.283.8-.362,1.606-.712,2.415-1.056.732-.313,1.468-.616,2.206-.916.112-.046.126-.1.1-.207a4.148,4.148,0,0,1-.087-.741A4.472,4.472,0,0,1,65,15.332a3.843,3.843,0,0,1,1.24-1.718c.021-.016.03-.048.044-.073l.035-.015-.009-.011Zm-9.77,4.291a9.394,9.394,0,0,0,1.266-.462c.907-.4,1.8-.835,2.692-1.265q1.716-.827,3.432-1.652c.7-.338,1.413-.666,2.114-1.013A12.4,12.4,0,0,0,67.4,12.76a.258.258,0,0,0,.125-.184,2.5,2.5,0,0,1,.528-1.13,2.779,2.779,0,0,1,.987-.765c.046-.022.118-.036.085-.125A4.845,4.845,0,0,1,68.9,9.543c-.01-.073-.044-.1-.12-.07a3.174,3.174,0,0,1-.9.191c-.936.119-1.872.227-2.806.359a10.646,10.646,0,0,0-2.047.437c-.78.273-1.59.446-2.39.646-.886.221-1.774.436-2.65.695a8.609,8.609,0,0,1-1.257.342.555.555,0,0,0-.417.251,7.624,7.624,0,0,1-.536.6c-.15.168-.143.181.072.234a5.115,5.115,0,0,0,1.349.166c.058,0,.125,0,.152.062a.165.165,0,0,1-.044.187,1.912,1.912,0,0,1-.371.285c-.835.525-1.713.973-2.59,1.426a.258.258,0,0,0,.154.074,15.271,15.271,0,0,0,1.72.285,8.995,8.995,0,0,0,1.389.094c.073,0,.164-.058.214.034s0,.161-.044.235a9.212,9.212,0,0,1-.557.825C56.987,17.21,56.751,17.521,56.517,17.834Zm-6.669,7.841c.367,0,.659-.027.951-.043.589-.032,1.178-.1,1.771-.083a2.043,2.043,0,0,0,.579-.069c.371-.1.745-.2,1.109-.327s.766-.233,1.139-.377c.407-.157.82-.3,1.228-.453.431-.165.866-.317,1.3-.482.592-.226,1.183-.455,1.77-.693.14-.057.313-.053.4-.219a12.839,12.839,0,0,1,.748-1.236c.048-.069.016-.08-.037-.1a7.985,7.985,0,0,1-1.4-.759.389.389,0,0,0-.322-.1,4.379,4.379,0,0,1-.519.073c-.412.073-.83.1-1.243.151-.2.025-.4.055-.592.085-.144.023-.29.029-.433.056-.29.055-.582.106-.872.163a5.635,5.635,0,0,0-.625.136c-.293.093-.6.146-.883.267a7.748,7.748,0,0,0-.917.385,1.08,1.08,0,0,1-.764.209,1.832,1.832,0,0,0-.266-.061,3.826,3.826,0,0,0-.669.071,6.964,6.964,0,0,0-.71.149c-.267.061-.535.126-.8.189-.216.051-.433.1-.648.157-.247.063-.493.132-.74.2-.316.085-.636.156-.943.272a2.567,2.567,0,0,0-1.078.716,1.7,1.7,0,0,0-.338.576c-.022.065,0,.08.06.1.487.157.931.416,1.408.6a6.831,6.831,0,0,0,1.374.373A3.647,3.647,0,0,0,49.848,25.675ZM54.941,7.7c.2.163.356.3.521.43a1.654,1.654,0,0,0,.727.469c.084.014.1.088.056.162a.458.458,0,0,1-.147.14,7.642,7.642,0,0,1-.813.492c-.03.016-.074.026-.065.065s.038.07.063.073c.144.018.216.132.292.226a.924.924,0,0,0,.446.292c.169.058.349.044.519.092.079.023.156.052.162.146a.186.186,0,0,1-.121.17,2.257,2.257,0,0,1-.451.175,7.839,7.839,0,0,1-1.3.272.439.439,0,0,0,.043.062,11.025,11.025,0,0,0,1.32,1.022.214.214,0,0,0,.155.024,4.954,4.954,0,0,0,.86-.178c.634-.2,1.272-.386,1.916-.55.667-.17,1.336-.334,2-.5.7-.175,1.4-.366,2.087-.587A16.287,16.287,0,0,1,65.973,9.7c.8-.111,1.6-.182,2.4-.3.433-.066.505-.137.58-.558,0,0,0-.009,0-.014a3.369,3.369,0,0,0-.08-1.539c-.118-.342-.122-.341-.479-.308l-.044,0a17.2,17.2,0,0,0-2.129.324c-.653.128-1.307.238-1.966.324-.979.128-1.96.242-2.939.369-.707.091-1.411.21-2.12.295a8.262,8.262,0,0,1-2.638-.156C56.024,8.028,55.5,7.869,54.941,7.7ZM65.6,22.785c.317.062.632.143.952.178.289.031.571.1.859.14.129.017.259.037.388.058.338.054.677.112,1.015.166.288.045.578.088.865.14s.565.089.845.15c.236.052.475.1.712.143s.5.111.752.149c.168.026.338.048.5.082a7.691,7.691,0,0,0,1.126.142,6.869,6.869,0,0,0,1.649-.034,3.75,3.75,0,0,0,.589-.143,3.7,3.7,0,0,0,1.813-1.34,2.823,2.823,0,0,0,.547-1.565,6.368,6.368,0,0,0-.04-1.1c-.037-.252-.1-.5-.158-.739a3.357,3.357,0,0,0-.336-.78,14.347,14.347,0,0,0-1.192-1.809,5.322,5.322,0,0,1-.561-.876q-.2-.425-.391-.857c-.034-.079-.083-.115-.154-.082a1.547,1.547,0,0,1-.49.071,2.288,2.288,0,0,1-.814-.053c-.134-.032-.148,0-.151.119A2.378,2.378,0,0,0,74.4,16.3c.2.316.433.614.646.924.3.446.6.9.882,1.358a4.972,4.972,0,0,1,.654,1.346,1.749,1.749,0,0,1-.037,1.117,2.227,2.227,0,0,1-1.872,1.45,3.472,3.472,0,0,1-1.271-.128,11.2,11.2,0,0,1-1.2-.392c-.368-.136-.743-.249-1.117-.366-.324-.1-.65-.186-.977-.269-.346-.089-.7-.136-1.055-.2A7.493,7.493,0,0,0,67.912,21a10.005,10.005,0,0,0-1.68.1,1.679,1.679,0,0,0-.6.145c.2.073.384.131.561.2.366.147.734.288,1.09.458a.129.129,0,0,1,.09.133c-.006.072-.068.09-.126.1A7.754,7.754,0,0,0,65.6,22.785ZM56.2,5.22c0,.012-.006.024-.009.036a1.608,1.608,0,0,1,.552.473,1.619,1.619,0,0,0,.7.56.118.118,0,0,1,.037.023c.034.035.122.037.1.108s-.05.137-.142.15-.2.039-.3.064A2.3,2.3,0,0,0,56.264,7a3.613,3.613,0,0,1-.929.524c-.029.011-.058.023-.058.056s.036.051.071.06a15.22,15.22,0,0,0,1.786.417,10.817,10.817,0,0,0,1.2.093,19.889,19.889,0,0,0,2.694-.295c.685-.079,1.366-.183,2.05-.266.771-.094,1.544-.177,2.309-.313,1.034-.185,2.062-.406,3.11-.5.111-.01.126-.055.113-.15a4.215,4.215,0,0,1,.074-1.356c.031-.161.028-.168-.135-.161a9.853,9.853,0,0,1-1.742-.081,15.167,15.167,0,0,0-1.9-.157,18.964,18.964,0,0,0-2.052.04c-.7.069-1.389.155-2.086.212-.423.035-.847.077-1.27.122a16.306,16.306,0,0,1-2.2.027C56.934,5.258,56.57,5.237,56.2,5.22Zm8.629,11.807a3.6,3.6,0,0,0,.045.6,2.927,2.927,0,0,0,.559,1.518,4.818,4.818,0,0,0,1.683,1.35,2.5,2.5,0,0,0,.951.326,9.63,9.63,0,0,1,1.691.257,4.375,4.375,0,0,0,1.959.008,3.967,3.967,0,0,0,1.1-.465,1.32,1.32,0,0,0,.537-.5.956.956,0,0,0,.165-.78,1.109,1.109,0,0,0-1.343-.819c-.536.09-1.044.284-1.568.416a3.98,3.98,0,0,1-1.207.156,2.7,2.7,0,0,1-2.074-1.162,1.454,1.454,0,0,1-.221-1.417,2.622,2.622,0,0,1,.785-1.127.176.176,0,0,0,.053-.257,4.223,4.223,0,0,1-.486-2.046c0-.041.027-.1-.023-.118s-.08.025-.116.048a8.71,8.71,0,0,0-1,.755A4.44,4.44,0,0,0,64.834,17.027Zm2.8-3.812a3.53,3.53,0,0,0,.107.777,4.21,4.21,0,0,0,.3.916,7,7,0,0,0,1.14,1.689,10.849,10.849,0,0,0,1.038,1.017c.356.308.751.559,1.129.834.048.035.1.072.16.048a3.716,3.716,0,0,1,.6-.13,1.26,1.26,0,0,1,1.415.529.978.978,0,0,1,.186.85c-.028.1-.073.187-.1.282a1.182,1.182,0,0,1-.48.619.718.718,0,0,0-.274.308,2.24,2.24,0,0,1-.526.737c-.1.089-.04.133.039.147a2.558,2.558,0,0,1,.41.137c.315.115.644.18.965.271a.1.1,0,0,0,.115-.037,2.994,2.994,0,0,0,.918-1.529,2.556,2.556,0,0,0-.042-1.3,2.883,2.883,0,0,0-.673-1.072,13.754,13.754,0,0,0-1.447-1.229,16.943,16.943,0,0,1-1.348-1.242,9.525,9.525,0,0,1-.95-1.1,3.806,3.806,0,0,1-.688-1.23,1.154,1.154,0,0,1,.264-1.1,1.413,1.413,0,0,1,.994-.423c.2-.017.411,0,.616-.014.087,0,.2-.005.2-.142A2.945,2.945,0,0,1,72,10.562c.071-.148,0-.156-.1-.161a9.5,9.5,0,0,0-1.115.006,2.888,2.888,0,0,0-.445.069c-.258.06-.515.126-.77.2a2.7,2.7,0,0,0-1.348.862A2.6,2.6,0,0,0,67.637,13.215ZM46.6,20.648c.073.048.134.028.189.039.19.037.388.03.575.069.374.078.753.123,1.127.207s.725.175,1.086.265c.464.116.922.258,1.381.394a11.022,11.022,0,0,1,1.133.387c.154.065.339.151.491.056a6.015,6.015,0,0,1,.991-.474,8.661,8.661,0,0,1,1.031-.327c.272-.071.544-.143.822-.191s.532-.115.8-.149c.237-.029.471-.072.707-.1.32-.042.639-.105.961-.128.374-.027.744-.081,1.115-.131.082-.011.129-.048.1-.138-.044-.122-.088-.245-.136-.366-.03-.076-.058-.167-.142-.193a5.09,5.09,0,0,0-.681-.177,2.63,2.63,0,0,0-.707-.072c-.089.01-.114-.049-.119-.114s.043-.1.108-.11a.421.421,0,0,0,.126-.033,6.509,6.509,0,0,0,1.084-.691c.087-.061.074-.113-.014-.157a1.85,1.85,0,0,1-.336-.223,4.428,4.428,0,0,0-.514-.4.567.567,0,0,0-.582-.058,6.3,6.3,0,0,1-.719.259c-.351.117-.7.232-1.056.341s-.7.215-1.056.3c-.385.1-.774.178-1.162.263a10.058,10.058,0,0,1-1.457.2,7.25,7.25,0,0,0-1.619.186c-.324.1-.653.174-.974.279-.342.112-.681.236-1.017.365C47.622,20.22,47.116,20.419,46.6,20.648Zm9.578-8.408c-.162-.049-.294.035-.436.034-.421,0-.843.015-1.262-.009-.252-.014-.507-.028-.758-.064-.391-.055-.784-.086-1.173-.15-.278-.046-.562-.055-.843-.083a4.626,4.626,0,0,0-1.874.121,10.5,10.5,0,0,0-1,.352q-.446.191-.873.417a3.465,3.465,0,0,0-.837.565c-.229.225-.483.426-.724.639-.025.022-.065.053-.062.075.006.047.06.059.1.069a3.65,3.65,0,0,0,.509.119c.115.012.212.093.315.087a1.757,1.757,0,0,1,.408.069c.239.04.474.1.71.152.213.046.426.088.638.137.3.068.59.14.886.209s.585.131.876.2.565.138.845.216a4.521,4.521,0,0,0,.8.14,4.872,4.872,0,0,0,.96-.051,1.961,1.961,0,0,0,.645-.2c.426-.206.844-.424,1.261-.647.56-.3,1.12-.6,1.65-.949.035-.023.073-.042.06-.087s-.065-.034-.1-.034a4.457,4.457,0,0,1-1.336-.237.155.155,0,0,1-.094-.242,1.185,1.185,0,0,1,.2-.267A4.362,4.362,0,0,0,56.18,12.239Zm1.42,3.745c-.076,0-.125,0-.172,0a6.737,6.737,0,0,1-1.2-.077c-.369-.049-.739-.086-1.106-.159a6.277,6.277,0,0,1-.663-.15.788.788,0,0,0-.638-.027,1.367,1.367,0,0,1-.161.062,3.033,3.033,0,0,1-.578.081,3.337,3.337,0,0,1-1.233-.06c-.134-.03-.276-.139-.408-.07a3.887,3.887,0,0,1-1.1.263c-.318.062-.638.12-.957.182a9.772,9.772,0,0,0-1.521.422A2.914,2.914,0,0,0,46.5,17.4c-.024.032-.074.064-.056.112s.078.049.126.051a7.915,7.915,0,0,1,1.374.176c.364.079.713.207,1.067.318.312.1.617.218.926.326.478.165.951.342,1.41.554a.467.467,0,0,0,.18.044,6.037,6.037,0,0,0,1.436-.138,16.053,16.053,0,0,0,1.627-.384c.426-.127.855-.24,1.279-.374a.683.683,0,0,0,.405-.236c.216-.309.449-.606.673-.909A9.115,9.115,0,0,0,57.6,15.984ZM55.712,4.978a.511.511,0,0,0,.234.044l.806.037a18.625,18.625,0,0,0,3.107-.034c.563-.065,1.128-.112,1.693-.165.773-.073,1.542-.195,2.323-.193a19.5,19.5,0,0,1,2.461.1,11.336,11.336,0,0,0,2.161.143c.281-.017.313-.051.239-.328,0-.009-.006-.019-.009-.028a7.307,7.307,0,0,0-.356-.882c-.026-.074-.084-.071-.143-.072-.372-.005-.743-.023-1.113-.051a12.152,12.152,0,0,1-1.484-.172,12.364,12.364,0,0,0-2.624-.331c-1.262.021-2.523-.055-3.784-.116-.494-.023-.986-.053-1.477-.108a1.789,1.789,0,0,0-.909.066,3.142,3.142,0,0,1-.758.163,10.839,10.839,0,0,0-1.084.189c.1.043.169.074.24.1a10.012,10.012,0,0,1,1.588.848c.032.021.1.034.07.094s-.046.115-.122.107a.472.472,0,0,0-.3.1C56.222,4.653,55.975,4.81,55.712,4.978ZM56.563.32c0,.008-.005.015-.008.023.041.023.081.048.123.069a3.927,3.927,0,0,1,.631.37c.036.027.1.053.066.111s-.044.132-.148.133c-.3,0-.606.019-.908.034a7.378,7.378,0,0,0-1.283.118l-.585.135a.207.207,0,0,0,.129.094c.741.33,1.48.662,2.223.987a1.627,1.627,0,0,0,.509.218c.487.04.974.087,1.462.115,1.294.074,2.589.125,3.885.143a11.593,11.593,0,0,1,2.5.229,14.132,14.132,0,0,0,3.1.317c.111,0,.147-.048.162-.14a1.3,1.3,0,0,0-.034-.465c-.062-.309-.065-.3-.377-.35-.9-.131-1.775-.336-2.655-.542-.67-.157-1.333-.344-2-.5Q61.788,1.049,60.2.79c-.825-.134-1.65-.259-2.481-.353C57.329.393,56.945.358,56.563.32ZM46.48,5.159c.245.05.468.105.7.139s.459.072.685.124c.283.065.571.1.854.158.251.052.506.093.758.142.282.055.564.122.843.2a8.541,8.541,0,0,1,.864.284c.182.075.355.175.539.246q.613.24,1.232.46c.317.112.636.215.957.316.249.078.5.147.752.217a.583.583,0,0,0,.277,0,2.88,2.88,0,0,0,1.123-.544,2.52,2.52,0,0,1,.99-.444c.051-.012.124-.006.129-.071s-.065-.08-.111-.1a.649.649,0,0,1-.3-.238,2.093,2.093,0,0,0-.409-.453,1.714,1.714,0,0,0-.966-.425c-.483-.05-.965-.081-1.445-.17a9.489,9.489,0,0,1-1.07-.263A5.913,5.913,0,0,1,51.2,3.97a1.111,1.111,0,0,0-.771-.212c-.142.011-.281.04-.421.051a7.143,7.143,0,0,0-1.974.514,10.263,10.263,0,0,0-1.289.631A.58.58,0,0,0,46.48,5.159Zm.22,3c.1.076.212.058.312.09a5.176,5.176,0,0,0,.962.2,4.171,4.171,0,0,1,.851.175,5.544,5.544,0,0,1,1.056.5,3.166,3.166,0,0,0,.788.391,5.175,5.175,0,0,0,1.413.187,8.442,8.442,0,0,0,.953-.024c.362-.048.727-.073,1.084-.151.226-.05.462-.065.68-.135a4.2,4.2,0,0,0,1.094-.578c.063-.044.069-.08-.007-.114a1.815,1.815,0,0,1-.454-.334A3.368,3.368,0,0,0,54.283,7.6c-.269-.09-.525-.222-.8-.3-.448-.135-.881-.311-1.322-.464a1.646,1.646,0,0,0-.766-.2c-.217.029-.426.089-.638.136-.182.041-.368.071-.547.124-.272.081-.55.14-.826.206-.334.08-.669.162-.993.265A8.2,8.2,0,0,0,46.7,8.156Zm9.841-5.378a.606.606,0,0,0-.289-.072,3.927,3.927,0,0,1-.44-.017c-.543-.081-1.091-.122-1.633-.211-.426-.07-.846-.167-1.264-.265-.4-.093-.791-.189-1.19-.267-.38-.075-.764-.14-1.148-.2a10.671,10.671,0,0,0-1.4-.112,3.364,3.364,0,0,0-1.336.317c-.246.1-.476.239-.727.324a.859.859,0,0,0-.376.26c-.119.133-.093.191.083.229.113.024.221.069.334.092a2.751,2.751,0,0,0,.736.14c.185-.011.369-.03.552-.041a11.528,11.528,0,0,1,1.583-.012,1.145,1.145,0,0,1,.351.089,1.357,1.357,0,0,1,.524.45,1.1,1.1,0,0,0,.242.227,5.646,5.646,0,0,0,.946.527,7.274,7.274,0,0,0,1.159.413c.286.074.574.135.864.193a9.147,9.147,0,0,0,1.088.119.515.515,0,0,0,.224-.05c.4-.165.7-.47,1.1-.654-.027-.03-.042-.058-.065-.07-.341-.191-.681-.383-1.037-.543-.22-.1-.442-.192-.66-.3-.122-.058-.133-.168-.023-.216a.836.836,0,0,1,.219-.076c.38-.055.756-.133,1.136-.19A1.588,1.588,0,0,0,56.541,2.778Zm-.665,9.262c-.292-.248-.587-.466-.869-.7a2.016,2.016,0,0,1-.411-.408c-.086-.129-.048-.19.108-.206a3.721,3.721,0,0,0,.408-.039,8.971,8.971,0,0,0,1.121-.283c.049-.017.126-.013.118-.081s-.081-.033-.126-.037a1.119,1.119,0,0,1-.788-.4.7.7,0,0,0-.663-.289c-.374.079-.752.138-1.127.208a6.589,6.589,0,0,1-1.194.088,7.377,7.377,0,0,1-1.569-.126c-.382-.08-.716-.294-1.106-.344-.175-.023-.341-.112-.515-.134a2.48,2.48,0,0,0-1.436.281c-.288.143-.537.353-.816.512a5.353,5.353,0,0,1-.494.274c-.036.016-.1.041-.087.1s.063.053.106.059a1.82,1.82,0,0,1,.2.028c.22.055.441.109.665.146.244.04.48.11.719.168a3.12,3.12,0,0,0,.67.126c.391.007.777-.084,1.169-.055a1.1,1.1,0,0,1,.419.107c.345.175.683.361,1.039.512a2.429,2.429,0,0,0,.765.26,5.327,5.327,0,0,1,.607.08,12.261,12.261,0,0,0,1.247.146,11.346,11.346,0,0,0,1.466.044C55.629,12.07,55.752,12.052,55.876,12.04Zm4.456,10.854c.072-.023.1-.031.125-.042.829-.336,1.639-.712,2.446-1.1A23.173,23.173,0,0,1,66.01,20.4a.71.71,0,0,0,.329-.136l-.273-.218a3.465,3.465,0,0,1-1.188-1.548c-.085-.235-.083-.24-.314-.143-.869.364-1.739.727-2.6,1.1-.793.34-1.6.659-2.369,1.045-.06.03-.156.051-.162.107s.1.081.147.121a.907.907,0,0,0,.087.055,6.9,6.9,0,0,0,1.3.672c.214.071.232.134.083.311A8,8,0,0,0,60.331,22.894Zm13.41-7.9c-.018-.073.075-.206-.091-.271A3.055,3.055,0,0,1,72.543,14c-.055-.058-.235-.03-.253.042a1.66,1.66,0,0,0-.093.334,2.688,2.688,0,0,0,.057.8,6.554,6.554,0,0,0,.791,1.77,2.843,2.843,0,0,0,.653.781,4.252,4.252,0,0,1,.738.749,2.636,2.636,0,0,1,.376,2.694,3.377,3.377,0,0,1-.67,1.021c-.022.026-.061.048-.05.083s.065.027.1.03a2.026,2.026,0,0,0,1.775-.678,1.761,1.761,0,0,0,.485-.95,2.009,2.009,0,0,0-.22-1.176,15.822,15.822,0,0,0-.969-1.636c-.369-.57-.8-1.1-1.145-1.682A2.407,2.407,0,0,1,73.741,14.995ZM74.871,3.3c-.147-.205-.316-.334-.446-.5-.1-.129-.073-.212.089-.249a7.764,7.764,0,0,0,1.117-.4c.063-.025.109-.049.017-.113a3.982,3.982,0,0,0-1.478-.688,7.765,7.765,0,0,0-2.508-.119,2.185,2.185,0,0,0-.826.226A15.058,15.058,0,0,1,69.5,2.2a2.046,2.046,0,0,1-.866.294c-.118,0-.126.04-.1.14a1.357,1.357,0,0,1,.067.607c-.03.172.033.179.167.173.787-.034,1.565-.157,2.345-.254.5-.062,1-.142,1.5-.181a6.289,6.289,0,0,1,1.657.179C74.462,3.192,74.648,3.245,74.871,3.3Zm-1.6,2.807c-.664.017-1.328.055-1.988.126a3.321,3.321,0,0,0-1.088.275,4.442,4.442,0,0,1-1.181.426c-.084.013-.051.065-.032.109a2.478,2.478,0,0,1,.186.676,4.055,4.055,0,0,1-.049,1.254c-.007.037-.016.092,0,.111.038.039.079-.011.115-.029.33-.169.658-.342.989-.509a4.171,4.171,0,0,1,1.052-.434,10.665,10.665,0,0,1,1.85-.175,4.608,4.608,0,0,1,.921.051c.1.019.138,0,.128-.116a1.481,1.481,0,0,1,.068-.55c.09-.31.2-.612.317-.913.065-.172.061-.186-.122-.207A8.135,8.135,0,0,0,73.269,6.108Zm-1.476-1.5A3.927,3.927,0,0,0,71,4.664c-.6.094-1.187.237-1.781.351-.313.06-.32.056-.375.364a4.282,4.282,0,0,0-.048,1.27c.012.1.057.12.143.108a2.589,2.589,0,0,0,.577-.161,9.485,9.485,0,0,1,1.044-.422,11.8,11.8,0,0,1,2.2-.235,7.581,7.581,0,0,1,1.8.108c.1.017.135-.016.167-.108.107-.3.205-.61.3-.919.046-.153.039-.165-.118-.177-.575-.045-1.149-.1-1.724-.134C72.717,4.677,72.258,4.594,71.793,4.606Zm1.036-1.452-.119.005c-.752.044-1.492.181-2.239.271-.587.07-1.173.149-1.765.171-.17.006-.168.018-.092.178a2.77,2.77,0,0,1,.333.978c.009.111.05.111.138.093.367-.079.736-.153,1.1-.226a7.644,7.644,0,0,1,1.6-.212c.362.006.721.048,1.081.081.7.065,1.411.118,2.117.179.1.009.143-.02.165-.117a1.662,1.662,0,0,0,.021-.668.486.486,0,0,0-.405-.431A9.8,9.8,0,0,0,72.829,3.154ZM69.064,9.416a7.022,7.022,0,0,0,.2,1c.034.119.082.133.186.1a5.835,5.835,0,0,1,1.578-.31,2.725,2.725,0,0,1,.874.034.3.3,0,0,0,.374-.1A2.849,2.849,0,0,1,74.057,8.99c.254-.052.255-.047.221-.3-.073-.541-.073-.541-.631-.557a12.384,12.384,0,0,0-1.7.065,3.2,3.2,0,0,0-1.108.259c-.564.281-1.126.566-1.69.847C69.08,9.337,69.056,9.385,69.064,9.416ZM75.88,2.257c-.05.019-.1.036-.15.056-.285.116-.567.239-.86.332-.248.079-.248.078-.083.27.035.041.069.083.105.122a1.7,1.7,0,0,1,.491,1.144c0,.088.023.1.111.084a3.735,3.735,0,0,1,1.729,0,5.2,5.2,0,0,1,1.789.774.076.076,0,0,0,.123-.016c.182-.229.362-.461.549-.685.058-.07.05-.118-.012-.17-.119-.1-.234-.207-.359-.3a15.424,15.424,0,0,0-1.83-1.132A3.924,3.924,0,0,0,75.88,2.257ZM71.159,18.564c-.037-.034-.064-.061-.093-.085a.743.743,0,0,0-.072-.049,9.893,9.893,0,0,1-1.946-1.7,7.962,7.962,0,0,1-.872-1.173c-.033-.054-.049-.139-.143-.052a2.652,2.652,0,0,0-.754,1.081,1.257,1.257,0,0,0,.044.968,2.029,2.029,0,0,0,.522.68,2.458,2.458,0,0,0,1.389.664,3.989,3.989,0,0,0,1.53-.187A1.17,1.17,0,0,0,71.159,18.564Zm4.687-12.8a2.8,2.8,0,0,0-.733.109.357.357,0,0,0-.263.247c-.1.306-.223.6-.327.907a2.381,2.381,0,0,0-.181.8c0,.1.03.127.131.081A2.645,2.645,0,0,1,76.3,7.742c.221.058.444.111.663.179.062.019.123.049.179-.035.313-.477.632-.951.948-1.426.026-.04.045-.074-.009-.11a2.881,2.881,0,0,0-.784-.416A6.274,6.274,0,0,0,75.846,5.764ZM76.4,4.349a3.27,3.27,0,0,0-.928.111c-.059.019-.125.034-.146.108-.1.352-.2.7-.3,1.056-.024.083.011.08.072.065a4.259,4.259,0,0,1,1.413-.074,2.963,2.963,0,0,1,1.65.571c.079.063.11.014.147-.042a9.424,9.424,0,0,1,.589-.8c.063-.078.053-.128-.031-.189a3.558,3.558,0,0,0-.71-.375A4.315,4.315,0,0,0,76.4,4.349Zm-6.647,8.878a1.2,1.2,0,0,0,.035.274,3.043,3.043,0,0,0,.349.686.143.143,0,0,0,.191.073c.332-.079.666-.147,1-.218.291-.062.582-.122.872-.187.148-.034.152-.055.069-.177s-.158-.234-.228-.356a3.078,3.078,0,0,1-.341-1.081c-.009-.063-.015-.121-.1-.107-.29.049-.586.006-.876.055A1.039,1.039,0,0,0,69.756,13.227ZM71.569,1.053a.865.865,0,0,0,.1,0,7.289,7.289,0,0,1,2.768.2,4.071,4.071,0,0,1,1.387.7.18.18,0,0,0,.221.022c.192-.1.388-.185.578-.285a1.229,1.229,0,0,0,.337-.206c-.283-.131-.547-.259-.814-.375a7.992,7.992,0,0,0-2-.663A3.68,3.68,0,0,0,71.569,1.053ZM76.23,2.1a.24.24,0,0,0,.142.048,2.862,2.862,0,0,1,.8.238,10.409,10.409,0,0,1,2.648,1.694c.041.039.055.034.093-.009.15-.172.3-.341.469-.5.191-.185.2-.145-.045-.289-.964-.578-1.962-1.091-2.949-1.629a.292.292,0,0,0-.332,0C76.787,1.818,76.507,1.954,76.23,2.1ZM74.763,8.93a2.844,2.844,0,0,1,1.3.341c.094.049.142.039.2-.051.215-.337.433-.672.66-1,.068-.1.034-.122-.055-.143-.246-.061-.492-.121-.738-.183a2.46,2.46,0,0,0-1.65.2c-.08.036-.114.071-.092.165.031.133.046.268.065.4C74.491,8.927,74.49,8.927,74.763,8.93Zm-1.926,8.038a11.367,11.367,0,0,1-.534-1.085,2.637,2.637,0,0,1-.225-1.725c.03-.116-.036-.084-.092-.073-.511.108-1.021.218-1.533.324-.126.026-.118.068-.05.159a14.124,14.124,0,0,0,2.262,2.326C72.707,16.927,72.742,16.986,72.837,16.968Zm-1.817,4.42a5.533,5.533,0,0,1,.759.246.349.349,0,0,0,.491-.137,3.152,3.152,0,0,0,.37-.56A4.019,4.019,0,0,1,71.02,21.388Z" transform="translate(-42.257 0)"/><path class="a" d="M431.354,86.132c.028-.2.066-.394.082-.592a4.953,4.953,0,0,0-.634-2.976c-.4-.692-.876-1.33-1.342-1.977a7.815,7.815,0,0,1-.713-1.395c-.041-.09.023-.124.074-.14a2.535,2.535,0,0,0,1.188-.864,2.927,2.927,0,0,0,.7-1.955.191.191,0,0,1,.112-.182c1.059-.7,2.135-1.384,3.169-2.121a9.249,9.249,0,0,0,3.165-3.943.4.4,0,0,0,.049-.167.493.493,0,0,1,.2.261,5.259,5.259,0,0,1,.43,1.442.5.5,0,0,0,.417.468,4.395,4.395,0,0,1,1.577.9,5.934,5.934,0,0,1,.88.978,6.445,6.445,0,0,1,.622.852,7.139,7.139,0,0,1,.962,2.154.836.836,0,0,1,.015.131c.008.274-.076.375-.345.412a5.335,5.335,0,0,1-.865.007,3.82,3.82,0,0,0-.551,0,1.428,1.428,0,0,1,.265.906c-.009.289-.149.4-.435.364a1.219,1.219,0,0,0-.986.367,3.338,3.338,0,0,0-1.042,1.908.215.215,0,0,0,.141.26c.108.045.221.076.332.111a.369.369,0,0,1,.3.422.775.775,0,0,1-.115.405.7.7,0,0,0-.1.462,3.439,3.439,0,0,1-.005.6.944.944,0,0,1-1.275.864,7.693,7.693,0,0,1-1.671-.741c-.433-.232-.831-.527-1.283-.721a1.861,1.861,0,0,0-1.388-.011c-.1.037-.1.09-.075.177a5.918,5.918,0,0,0,.31.76,5.4,5.4,0,0,1,.451,1.813q.018.16.037.32a.155.155,0,0,1-.058.156.144.144,0,0,1-.166,0,.958.958,0,0,1-.2-.169,4.412,4.412,0,0,0-.725-.639.583.583,0,0,0-.87.111,4.76,4.76,0,0,0-.567.871C431.4,86.061,431.379,86.1,431.354,86.132Zm1.741-3.9a.836.836,0,0,0,.72-.52,1.651,1.651,0,0,0,.167-.557c0-.036,0-.072.046-.082s.053.031.061.062a4.01,4.01,0,0,1,.136.554.657.657,0,0,0,.294.5,9.5,9.5,0,0,0,1.718.92.537.537,0,0,0,.716-.13,1.062,1.062,0,0,0,.19-.394.245.245,0,0,0-.037-.261.064.064,0,0,1-.017-.08c.021-.034.054-.015.079,0,.09.037.18.075.269.116s.075.093,0,.125-.088.086-.1.159a1.14,1.14,0,0,1-.339.758.126.126,0,0,0,.019.228,2.319,2.319,0,0,0,.675.314.777.777,0,0,0,.914-.317,1.221,1.221,0,0,0,.133-.682c0-.558-.006-.557-.494-.822a2.34,2.34,0,0,1-.293-.193c-.035-.026-.072-.088-.039-.13s.089,0,.127.023a1.692,1.692,0,0,0,.7.245.156.156,0,0,0,.128-.009c.112-.083.117-.444-.008-.493a.863.863,0,0,0-.542-.122c-.072.019-.148-.009-.1-.1.061-.118-.018-.149-.089-.184-.14-.069-.147-.1-.016-.2a.094.094,0,0,0,.033-.1,2.367,2.367,0,0,1,.051-.67,3.586,3.586,0,0,1,1.2-2,2.6,2.6,0,0,1,1.01-.451c.112-.034.091-.066.04-.133-.038-.05-.122-.069-.122-.14,0-.129-.072-.122-.164-.108a1.479,1.479,0,0,1-.22.01.461.461,0,0,1-.449-.272c-.065-.136-.137-.271-.2-.408a.283.283,0,0,0-.443-.13.928.928,0,0,0-.306.386,7.726,7.726,0,0,0-.686,2.188,6.007,6.007,0,0,0-.082,1.577,4.665,4.665,0,0,0,.087.609c.021.089.013.179-.065.2s-.055-.1-.083-.147a.329.329,0,0,1-.018-.056c-.073-.249-.1-.268-.356-.271a5.729,5.729,0,0,1-1.308-.147.344.344,0,0,1-.3-.257.419.419,0,0,1,.425-.55,12.091,12.091,0,0,1,1.246.055c.108.007.138-.027.133-.128a1.864,1.864,0,0,1,.006-.323c.012-.091-.026-.11-.1-.115-.127-.009-.254-.019-.38-.037a3.864,3.864,0,0,1-1.088-.219.379.379,0,0,1-.221-.4.363.363,0,0,1,.316-.368,4.044,4.044,0,0,1,1.226.053c.115.017.246.108.337.049s.049-.219.094-.327,0-.159-.116-.189a9.471,9.471,0,0,1-1.237-.416.379.379,0,0,1-.246-.472.392.392,0,0,1,.405-.313.863.863,0,0,1,.189.019,5.836,5.836,0,0,1,1.115.356c.181.075.178.074.255-.1a3.912,3.912,0,0,1,.652-1.09c.064-.071.209-.105.176-.22-.027-.1-.129-.168-.212-.237-.019-.016-.037-.032-.057-.046a3.216,3.216,0,0,1-1.054-1.04.227.227,0,0,0-.2-.126c-.053,0-.1-.01-.111-.071s.036-.086.087-.1c.067-.02.1-.063.073-.132s-.027-.143-.14-.133a3.189,3.189,0,0,1-.44,0,.115.115,0,0,0-.131.067,1.649,1.649,0,0,0-.043.479c-.008.07.077.119.122.175a6.238,6.238,0,0,1,.687,1.037c.023.043.09.108.012.15s-.09-.051-.111-.094a2.031,2.031,0,0,0-.364-.512,2.853,2.853,0,0,0-2.713-.865,1.716,1.716,0,0,0-1.275.852,2.7,2.7,0,0,0,.022,2.756c.279.483.639.912.926,1.39a1.264,1.264,0,0,1,.143,1.175,1.855,1.855,0,0,1-.468.578A1.813,1.813,0,0,0,433.1,82.232Zm4.439-8.328a.167.167,0,0,0,.075-.111,7.976,7.976,0,0,1,.332-.766c.02-.037.029-.112.1-.086s.023.084.011.127c-.118.4-.237.8-.355,1.194-.013.045-.04.088,0,.138a2.883,2.883,0,0,0,.72.8,2.027,2.027,0,0,1,.936,1.125,3.616,3.616,0,0,0,.253.593c.123.242.209.295.476.258a1.627,1.627,0,0,1,.526.02,4.949,4.949,0,0,0,1.37.05.165.165,0,0,0,.166-.184,1.457,1.457,0,0,0-.09-.473,7.691,7.691,0,0,0-.673-1.43c-.065-.114-.118-.118-.228-.068a4.245,4.245,0,0,0-1,.69.415.415,0,0,1-.646-.126.686.686,0,0,1-.1-.274c0-.048-.012-.081-.067-.1a.54.54,0,0,1-.392-.465.142.142,0,0,0-.1-.119.481.481,0,0,1-.225-.731,2.266,2.266,0,0,1,.423-.445,6.332,6.332,0,0,1,.675-.466.187.187,0,0,0-.028-.043,4.088,4.088,0,0,0-1.78-.946c-.1-.023-.16-.062-.177-.172a8.636,8.636,0,0,0-.242-1.071c-.026-.091-.022-.236-.105-.253s-.15.109-.21.184c-.268.337-.487.709-.745,1.052a14.335,14.335,0,0,1-1.466,1.87c-.011.01-.009.017.01.021q1.091-.559,2.189-1.118c.053-.027.116-.1.175-.037s-.016.246-.084.283a1.11,1.11,0,0,1-.119.056c-.042.018-.065.037-.037.087a1.052,1.052,0,0,1,.09.671c-.009.061,0,.086.062.079A.235.235,0,0,1,437.535,73.9Zm2.355,1.813c.051.012.089-.03.132-.062a7.571,7.571,0,0,1,.863-.627c.108-.062.306-.064.306-.191,0-.1-.139-.213-.221-.314-.138-.17-.14-.168-.324-.065-.068.038-.136.076-.2.118a2.687,2.687,0,0,0-.812.7.2.2,0,0,0,0,.242C439.69,75.616,439.743,75.717,439.89,75.716Zm-.469-.591a.314.314,0,0,0,.182-.105,4.366,4.366,0,0,1,1.063-.771c.051-.027.047-.041.022-.086a3.556,3.556,0,0,0-.276-.354c-.035-.046-.086-.038-.133-.011-.092.053-.185.1-.277.159a2.83,2.83,0,0,0-.823.7.215.215,0,0,0-.015.27C439.226,75.02,439.286,75.12,439.421,75.125Zm-2.933,3.547c-.1,0-.2.009-.307.016-.142.009-.243.065-.259.224s.065.228.2.274a6.41,6.41,0,0,0,1.2.2c.19.026.19.019.209-.178a2.154,2.154,0,0,1,.026-.247c.023-.109-.026-.147-.124-.166A6.982,6.982,0,0,0,436.488,78.672Zm2.481-4.121c.063,0,.07,0,.122-.062a3.254,3.254,0,0,1,.961-.756c.231-.133.232-.13.062-.331-.207-.244-.209-.248-.482-.077a2.634,2.634,0,0,0-.9.8A.315.315,0,0,0,438.968,74.551Zm-2.435,5.712h-.454c-.147,0-.178.114-.192.217a.186.186,0,0,0,.151.228,5.776,5.776,0,0,0,1.407.153c.067,0,.086-.025.079-.086-.013-.116-.028-.232-.033-.349,0-.087-.044-.114-.126-.121C437.089,80.28,436.811,80.261,436.533,80.262Zm.051-3.172c-.127.008-.25.021-.293.168s0,.226.177.3c.3.133.624.227.939.328.39.125.391.121.488-.284.015-.065.006-.1-.058-.122-.142-.052-.281-.112-.424-.162A4.45,4.45,0,0,0,436.583,77.09Zm.131-4.015-1.28.589a11.688,11.688,0,0,0,1.356.051A.985.985,0,0,1,436.714,73.075Z" transform="translate(-395.31 -64.377)"/><path class="a" d="M14.16,224.561l.235.091a2.093,2.093,0,0,1,1.023,1.669c.021.135.025.272.036.409,0,.022,0,.044,0,.1a1.593,1.593,0,0,0-.982-.454c-.1-.018-.134.017-.163.108a.9.9,0,0,0,0,.533c.033.116.026.162-.122.142a3.034,3.034,0,0,1-1.579-.751.145.145,0,0,0-.192-.025,2.073,2.073,0,0,0-.375.254.779.779,0,0,0-.294.657c.005.083,0,.165,0,.267a.783.783,0,0,1-.459-.478,1.863,1.863,0,0,1,.37-2.005,1.969,1.969,0,0,1,1.838-.65C13.723,224.456,13.941,224.509,14.16,224.561Z" transform="translate(-10.283 -206.904)"/><path class="a" d="M13.921,179.606l.352.25a1.774,1.774,0,0,1,.654,1.236,3.3,3.3,0,0,1-.09.709c-.232-.154-.455-.3-.69-.428a2.28,2.28,0,0,0-.43-.188.457.457,0,0,0-.586.335c-.014.051-.021.105-.031.158-.049,0-.059-.048-.087-.073a.56.56,0,0,0-.7-.1,1.562,1.562,0,0,0-.249.154,5,5,0,0,0-.955,1.047c-.044-.02-.052-.074-.058-.118A4.942,4.942,0,0,1,11,181.1a1.833,1.833,0,0,1,1.233-1.494A2.01,2.01,0,0,1,13.921,179.606Z" transform="translate(-10.108 -165.431)"/><path class="a" d="M4.47,133.993a.1.1,0,0,0,.076.037,1.251,1.251,0,0,1,.772,1.01c.046.261.041.526.071.789a.657.657,0,0,0,.083.306.316.316,0,0,1-.287-.072c-.108-.092-.213-.188-.311-.29-.044-.045-.05-.046-.1,0a.6.6,0,0,1-.576.058.651.651,0,0,0-.716.185,2.334,2.334,0,0,0-.428.423.392.392,0,0,1-.08-.228,1.34,1.34,0,0,0-.207-.482c-.045-.072-.094-.106-.175-.04a2.07,2.07,0,0,1-.92.312.321.321,0,0,1-.235-.051,1.723,1.723,0,0,0-.571-.1c.161-.187.309-.365.463-.536a6.3,6.3,0,0,1,1.269-1.148,2.548,2.548,0,0,1,1.29-.339A1.569,1.569,0,0,1,4.47,133.993Z" transform="translate(-0.793 -123.39)"/><path class="a" d="M15.04,263.91l.2.15a1.286,1.286,0,0,1,.226.988,3.274,3.274,0,0,1-.115.56,1.688,1.688,0,0,0-.058.74c.013.1-.018.094-.087.088a1.259,1.259,0,0,1-.862-.476c-.076-.084-.116-.1-.191-.012a2.464,2.464,0,0,1-.2.189,1.22,1.22,0,0,0-.394.886c0,.029-.006.058-.01.087,0,0,0,.007-.015.02a1.312,1.312,0,0,1-.566-.527,1.706,1.706,0,0,1-.2-1.218.514.514,0,0,1,.035-.112c.065-.147.058-.164-.108-.195a3.254,3.254,0,0,0-.552-.023A2.521,2.521,0,0,1,15.04,263.91Z" transform="translate(-11.194 -243.202)"/><path class="a" d="M19.494,316.475a2.23,2.23,0,0,1,.589.254c.016.019.031.044.063.03l-.006,0c.1.108.214.209.307.326a3.481,3.481,0,0,1,.634,1.357.74.74,0,0,1,.009.115c-.213-.114-.405-.237-.614-.331a.927.927,0,0,0-1.3.869c0,.019,0,.039,0,.06-.067.016-.1-.041-.135-.07a1.48,1.48,0,0,0-.435-.238.553.553,0,0,0-.5.081,4.211,4.211,0,0,0-.715.627l-.127.139c.023-.444.058-.851.108-1.255a4.819,4.819,0,0,1,.21-.971,1.384,1.384,0,0,1,1.378-1.03A1.5,1.5,0,0,1,19.494,316.475Z" transform="translate(-15.914 -291.756)"/><path class="a" d="M8.854,65.719l.319.14a.623.623,0,0,1,.33.408,2.87,2.87,0,0,1,.15,1.083.7.7,0,0,0,.133.535,1.812,1.812,0,0,1-.871-.227c-.036-.026-.068-.055-.1-.081a.416.416,0,0,0-.633.061c-.118.123-.138.125-.249-.009-.069-.083-.127-.173-.194-.257a.16.16,0,0,0-.2-.063,3.827,3.827,0,0,1-2.071.208,7.373,7.373,0,0,0,.707-1.064,2.082,2.082,0,0,1,1.467-.824A2.809,2.809,0,0,1,8.854,65.719Z" transform="translate(-5.034 -60.486)"/><path class="a" d="M11.048,29.5c.017.088-.045.145-.085.211-.03.049-.076.09-.069.156a.308.308,0,0,0-.011.267,4.767,4.767,0,0,0,.352.883c.045.086.016.1-.058.1a2.385,2.385,0,0,1-.465-.054.186.186,0,0,0-.168.024c-.225.214-.49.129-.745.1-.088-.011-.123-.107-.171-.172-.062-.086-.117-.077-.172,0a1.469,1.469,0,0,1-.9.469.174.174,0,0,1-.087,0,1.558,1.558,0,0,0-1,.105c-.076.03-.1.031-.108-.068a1.141,1.141,0,0,1,.759-1.208c.207-.088.419-.162.632-.233a.689.689,0,0,0,.461-.451c.1-.284.037-.295.413-.28a11.406,11.406,0,0,1,1.283.117A1.154,1.154,0,0,1,11.048,29.5Z" transform="translate(-6.782 -27.059)"/><path class="a" d="M33.772,4.151l.194.164.117.165.094.194a2.8,2.8,0,0,1,.18.915.544.544,0,0,1-.037.216,1.677,1.677,0,0,0-2.208.131,1.573,1.573,0,0,1,.024-.812A1.607,1.607,0,0,1,33.772,4.151Z" transform="translate(-29.571 -3.824)"/><path class="b" d="M52.3,270.812a3.6,3.6,0,0,1-.961-.069,6.832,6.832,0,0,1-1.374-.374c-.477-.186-.921-.444-1.408-.6-.058-.019-.082-.034-.06-.1a1.724,1.724,0,0,1,.338-.576,2.567,2.567,0,0,1,1.078-.716c.306-.115.628-.186.943-.272.246-.066.493-.135.74-.2.215-.055.432-.105.648-.157.267-.064.534-.128.8-.189a7.023,7.023,0,0,1,.71-.149,3.824,3.824,0,0,1,.669-.071,1.916,1.916,0,0,1,.266.061,1.076,1.076,0,0,0,.764-.209,7.752,7.752,0,0,1,.917-.385c.286-.122.59-.175.883-.267a5.55,5.55,0,0,1,.624-.136c.29-.057.581-.108.872-.163.143-.027.289-.034.433-.056.2-.03.395-.06.592-.085.414-.053.831-.078,1.243-.151a4.354,4.354,0,0,0,.519-.073.383.383,0,0,1,.322.1,8.059,8.059,0,0,0,1.4.759c.054.02.085.031.037.1a12.774,12.774,0,0,0-.748,1.237c-.089.166-.263.162-.4.219-.587.238-1.178.466-1.77.693-.431.165-.866.317-1.3.482-.408.156-.821.3-1.228.453-.373.144-.762.244-1.139.376s-.738.225-1.109.327a2.042,2.042,0,0,1-.579.069c-.593-.014-1.181.052-1.771.083C52.958,270.785,52.666,270.809,52.3,270.812Z" transform="translate(-44.708 -245.137)"/><path class="c" d="M299.37,197.8a7.871,7.871,0,0,1,1.644-.642c.058-.013.12-.031.126-.1a.128.128,0,0,0-.09-.133c-.356-.171-.723-.313-1.09-.458-.177-.071-.359-.129-.561-.2a1.7,1.7,0,0,1,.6-.145,9.921,9.921,0,0,1,1.68-.1,7.5,7.5,0,0,1,1.141.131c.352.067.709.114,1.055.2.327.084.654.169.977.269.374.116.75.231,1.117.366a11.306,11.306,0,0,0,1.2.392,3.475,3.475,0,0,0,1.271.128,2.227,2.227,0,0,0,1.872-1.45,1.749,1.749,0,0,0,.037-1.117,4.937,4.937,0,0,0-.654-1.346c-.281-.462-.578-.912-.882-1.358-.212-.31-.442-.609-.646-.924a2.376,2.376,0,0,1-.476-1.347c0-.115.017-.15.151-.118a2.27,2.27,0,0,0,.814.053,1.549,1.549,0,0,0,.49-.071c.071-.033.121,0,.154.082q.188.431.391.857a5.34,5.34,0,0,0,.561.876,14.351,14.351,0,0,1,1.192,1.809,3.342,3.342,0,0,1,.336.78c.058.244.121.488.158.739a6.214,6.214,0,0,1,.04,1.1,2.823,2.823,0,0,1-.547,1.565,3.7,3.7,0,0,1-1.813,1.34,3.576,3.576,0,0,1-.589.143,6.87,6.87,0,0,1-1.649.034,7.7,7.7,0,0,1-1.126-.142c-.164-.034-.334-.056-.5-.082-.253-.039-.5-.1-.752-.149s-.476-.091-.712-.143c-.28-.062-.564-.1-.845-.15s-.576-.094-.865-.14c-.338-.053-.677-.112-1.015-.166-.129-.02-.26-.04-.388-.058-.288-.038-.569-.108-.859-.14C300,197.944,299.687,197.863,299.37,197.8Z" transform="translate(-276.03 -175.016)"/><path class="a" d="M289.545,170.345a4.44,4.44,0,0,1,1.485-3.257,8.472,8.472,0,0,1,1-.755c.037-.023.075-.065.116-.048s.025.078.023.118a4.224,4.224,0,0,0,.486,2.046.176.176,0,0,1-.053.257,2.622,2.622,0,0,0-.785,1.127,1.454,1.454,0,0,0,.221,1.417,2.7,2.7,0,0,0,2.074,1.163,3.982,3.982,0,0,0,1.207-.156c.525-.132,1.032-.326,1.568-.416a1.11,1.11,0,0,1,1.343.819.954.954,0,0,1-.165.78,1.325,1.325,0,0,1-.537.5,3.966,3.966,0,0,1-1.1.465,4.375,4.375,0,0,1-1.959-.008,9.645,9.645,0,0,0-1.691-.256,2.5,2.5,0,0,1-.951-.326,4.818,4.818,0,0,1-1.683-1.35,2.932,2.932,0,0,1-.559-1.518A3.808,3.808,0,0,1,289.545,170.345Z" transform="translate(-266.968 -153.318)"/><path class="c" d="M325.538,136.049a2.606,2.606,0,0,1,.582-1.675,2.691,2.691,0,0,1,1.348-.862c.255-.077.512-.142.77-.2a2.8,2.8,0,0,1,.445-.069,9.5,9.5,0,0,1,1.115-.006c.108.005.175.013.1.161a2.944,2.944,0,0,0-.31,1.275c0,.136-.11.137-.2.142-.205.011-.412,0-.616.014a1.416,1.416,0,0,0-.994.423,1.154,1.154,0,0,0-.264,1.1,3.8,3.8,0,0,0,.688,1.23,9.521,9.521,0,0,0,.95,1.1,17.054,17.054,0,0,0,1.348,1.242,13.761,13.761,0,0,1,1.447,1.229,2.9,2.9,0,0,1,.673,1.072,2.564,2.564,0,0,1,.042,1.3,2.991,2.991,0,0,1-.918,1.529.1.1,0,0,1-.115.037c-.321-.091-.65-.155-.965-.271a2.562,2.562,0,0,0-.41-.137c-.079-.015-.134-.058-.039-.147a2.257,2.257,0,0,0,.526-.737.714.714,0,0,1,.274-.308,1.182,1.182,0,0,0,.48-.619c.031-.1.076-.184.1-.282a.978.978,0,0,0-.186-.85,1.26,1.26,0,0,0-1.415-.529,3.7,3.7,0,0,0-.6.13c-.063.023-.112-.014-.16-.048-.378-.275-.772-.526-1.129-.834a10.732,10.732,0,0,1-1.038-1.017,6.965,6.965,0,0,1-1.14-1.689,4.254,4.254,0,0,1-.3-.916A3.561,3.561,0,0,1,325.538,136.049Z" transform="translate(-300.158 -122.833)"/><path class="b" d="M55.73,230.838c.515-.228,1.02-.428,1.528-.622.337-.129.675-.253,1.017-.365.32-.105.65-.182.974-.279a7.246,7.246,0,0,1,1.619-.186,10.054,10.054,0,0,0,1.457-.2c.388-.084.777-.167,1.162-.263.356-.088.706-.2,1.056-.3s.706-.224,1.056-.341a6.2,6.2,0,0,0,.719-.259.568.568,0,0,1,.582.058,4.5,4.5,0,0,1,.514.4,1.78,1.78,0,0,0,.336.223c.088.044.1.1.014.157a6.61,6.61,0,0,1-1.084.691.46.46,0,0,1-.126.033c-.065.009-.114.041-.108.11s.031.124.119.114a2.629,2.629,0,0,1,.707.072,5.093,5.093,0,0,1,.681.177c.083.025.111.116.142.193.048.121.092.243.136.366.034.09-.013.127-.1.138-.371.05-.741.1-1.115.131-.322.023-.641.086-.961.128-.236.031-.47.074-.707.1-.269.033-.532.1-.8.149s-.55.121-.822.191a8.661,8.661,0,0,0-1.031.327,6.018,6.018,0,0,0-.991.474c-.152.1-.338.009-.491-.056a11.028,11.028,0,0,0-1.133-.387c-.459-.136-.917-.278-1.381-.394-.361-.09-.722-.184-1.086-.265s-.752-.129-1.127-.207c-.186-.039-.384-.032-.575-.069A.376.376,0,0,1,55.73,230.838Z" transform="translate(-51.385 -210.191)"/><path class="b" d="M62.152,153.28a4.409,4.409,0,0,1-.513.586,1.184,1.184,0,0,0-.2.267.155.155,0,0,0,.094.242,4.457,4.457,0,0,0,1.336.237c.036,0,.087-.016.1.034s-.026.064-.06.087c-.53.351-1.091.649-1.65.949-.417.223-.836.441-1.261.647a1.955,1.955,0,0,1-.645.2,4.869,4.869,0,0,1-.96.051,4.522,4.522,0,0,1-.8-.14c-.28-.077-.562-.147-.845-.216s-.584-.133-.876-.2-.59-.142-.886-.209c-.212-.048-.426-.091-.638-.137-.237-.051-.472-.112-.71-.152a1.714,1.714,0,0,0-.408-.069c-.1.006-.2-.073-.315-.087a3.652,3.652,0,0,1-.509-.119c-.041-.01-.094-.023-.1-.069,0-.022.037-.053.062-.075.242-.213.494-.414.724-.639a3.463,3.463,0,0,1,.837-.565q.429-.227.873-.417a10.477,10.477,0,0,1,1-.352,4.61,4.61,0,0,1,1.874-.121c.281.028.565.037.843.083.39.065.783.1,1.173.15.25.036.505.049.758.064.419.024.841,0,1.262.009C61.858,153.315,61.991,153.23,62.152,153.28Z" transform="translate(-48.23 -141.04)"/><path class="b" d="M64.8,199.433a9.38,9.38,0,0,1-.653.959c-.224.3-.457.6-.673.909a.687.687,0,0,1-.405.236c-.423.134-.853.248-1.279.374a16.058,16.058,0,0,1-1.627.384,5.962,5.962,0,0,1-1.436.138.468.468,0,0,1-.18-.044c-.459-.212-.932-.388-1.41-.554-.31-.108-.614-.228-.926-.326-.354-.111-.7-.239-1.067-.318a7.916,7.916,0,0,0-1.374-.176c-.048,0-.106,0-.126-.051s.031-.08.056-.112a2.913,2.913,0,0,1,1.374-.954,9.835,9.835,0,0,1,1.521-.422c.319-.061.639-.118.957-.182a3.887,3.887,0,0,0,1.1-.263c.132-.069.273.041.408.07a3.3,3.3,0,0,0,1.233.06,3.085,3.085,0,0,0,.578-.081,1.241,1.241,0,0,0,.161-.062.788.788,0,0,1,.638.027,6.087,6.087,0,0,0,.663.15c.366.073.737.11,1.106.159a6.666,6.666,0,0,0,1.2.077C64.676,199.43,64.725,199.433,64.8,199.433Z" transform="translate(-49.459 -183.449)"/><path class="b" d="M54.16,49.551a.6.6,0,0,1,.26-.206,10.263,10.263,0,0,1,1.289-.631,7.143,7.143,0,0,1,1.974-.514c.14-.012.279-.041.421-.051a1.111,1.111,0,0,1,.771.212,5.87,5.87,0,0,0,1.677.774,9.489,9.489,0,0,0,1.07.263c.479.09.963.12,1.445.17a1.709,1.709,0,0,1,.966.425,2.114,2.114,0,0,1,.409.453.649.649,0,0,0,.3.238c.046.021.115.041.111.1s-.077.059-.129.071a2.52,2.52,0,0,0-.99.444,2.891,2.891,0,0,1-1.123.544.593.593,0,0,1-.277,0c-.251-.069-.5-.139-.752-.217-.32-.1-.64-.2-.957-.316q-.62-.221-1.232-.46c-.183-.072-.356-.172-.539-.246A8.538,8.538,0,0,0,58,50.318c-.278-.081-.561-.148-.843-.2-.252-.049-.506-.09-.758-.142-.284-.058-.571-.093-.854-.158-.225-.052-.455-.09-.685-.124S54.406,49.6,54.16,49.551Z" transform="translate(-49.938 -44.392)"/><path class="b" d="M56.98,86.515a8.153,8.153,0,0,1,1.7-.794c.324-.1.66-.186.993-.265.275-.066.554-.125.826-.206.179-.053.365-.084.547-.124.211-.047.421-.107.638-.136a1.646,1.646,0,0,1,.766.2c.441.153.874.329,1.322.464.271.082.527.214.8.3a3.387,3.387,0,0,1,1.149.764,1.8,1.8,0,0,0,.454.334c.076.034.07.07.007.114a4.2,4.2,0,0,1-1.094.578c-.219.069-.455.085-.68.135-.358.079-.723.1-1.084.151a8.256,8.256,0,0,1-.953.024,5.171,5.171,0,0,1-1.413-.187,3.152,3.152,0,0,1-.788-.391,5.594,5.594,0,0,0-1.056-.5,4.119,4.119,0,0,0-.851-.175,5.177,5.177,0,0,1-.962-.2C57.193,86.574,57.078,86.592,56.98,86.515Z" transform="translate(-52.538 -78.359)"/><path class="d" d="M452.354,60.576a.162.162,0,0,0,.09-.2c-.058-.455-.121-.911-.18-1.366-.036-.276-.065-.553-.1-.829-.012-.1.016-.134.118-.151a8.309,8.309,0,0,1,.973-.077c.425-.023.851-.022,1.276-.039a.875.875,0,0,1,.514.12,12.175,12.175,0,0,1,1.223.8c.076.061.084.105.049.2a.31.31,0,0,1-.358.231,16.965,16.965,0,0,0-1.8.065,1.1,1.1,0,0,0-.187.035.151.151,0,0,0-.126.184c.071.611.144,1.222.21,1.834.023.2.026.41.042.614.009.108-.033.143-.143.143-.773,0-1.547,0-2.32,0-.2,0-.193,0-.214.193-.063.588-.133,1.175-.2,1.762a.166.166,0,0,1-.082.13l-1.045.667c-.056-.19-.118-.366-.158-.548a.656.656,0,0,0-.087-.213.607.607,0,0,1-.063-.449c.133-.933.245-1.87.409-2.8.017-.1,0-.221.116-.281.165.005.327-.031.493-.026.466.015.932.022,1.4.028C452.255,60.621,452.324,60.655,452.354,60.576Z" transform="translate(-414.706 -53.401)"/><path class="b" d="M66.442,22.088a1.525,1.525,0,0,1-.445.087c-.38.058-.756.136-1.136.19a.836.836,0,0,0-.219.076c-.11.048-.1.158.023.216.218.1.44.2.66.3.356.161.7.352,1.037.543.023.012.037.04.065.07-.395.184-.7.49-1.1.654a.515.515,0,0,1-.224.05,9.148,9.148,0,0,1-1.088-.119c-.29-.058-.578-.119-.864-.193a7.22,7.22,0,0,1-1.159-.413,5.592,5.592,0,0,1-.946-.527,1.116,1.116,0,0,1-.242-.227,1.363,1.363,0,0,0-.524-.45,1.139,1.139,0,0,0-.351-.089,11.406,11.406,0,0,0-1.583.012c-.183.011-.367.03-.552.041a2.776,2.776,0,0,1-.736-.14c-.113-.023-.221-.068-.334-.092-.175-.038-.2-.1-.083-.229a.852.852,0,0,1,.376-.26c.25-.084.48-.225.727-.324a3.37,3.37,0,0,1,1.336-.317,10.681,10.681,0,0,1,1.4.112c.384.06.767.126,1.148.2.4.078.794.174,1.19.267.419.1.838.195,1.264.265.543.09,1.09.129,1.633.21a3.925,3.925,0,0,0,.44.017A.626.626,0,0,1,66.442,22.088Z" transform="translate(-52.158 -19.31)"/><path class="b" d="M62.969,121.651c-.124.012-.247.03-.371.036a11.346,11.346,0,0,1-1.466-.044,12.494,12.494,0,0,1-1.247-.146,5.348,5.348,0,0,0-.607-.08,2.422,2.422,0,0,1-.765-.26c-.356-.15-.695-.338-1.039-.512a1.1,1.1,0,0,0-.419-.107c-.393-.03-.779.062-1.169.055a3.11,3.11,0,0,1-.67-.126c-.239-.058-.475-.128-.719-.168-.224-.037-.445-.09-.665-.146a1.82,1.82,0,0,0-.2-.028c-.043-.005-.1,0-.106-.059s.051-.087.087-.1a5.653,5.653,0,0,0,.494-.274c.279-.16.527-.369.816-.512a2.481,2.481,0,0,1,1.436-.281c.175.022.341.112.515.134.39.051.723.264,1.106.344a7.431,7.431,0,0,0,1.569.126,6.66,6.66,0,0,0,1.194-.088c.375-.07.752-.129,1.127-.208a.7.7,0,0,1,.663.289,1.123,1.123,0,0,0,.788.4c.044,0,.119-.024.126.037s-.069.064-.118.081a9.114,9.114,0,0,1-1.121.283,3.72,3.72,0,0,1-.408.039c-.157.016-.194.076-.108.206a2.016,2.016,0,0,0,.411.408C62.382,121.185,62.678,121.4,62.969,121.651Z" transform="translate(-49.351 -109.612)"/><path class="b" d="M56.5,2.677l-.117-.165a.12.12,0,0,1,.114-.078c.3-.038.592-.094.89-.135a13.766,13.766,0,0,1,2.456-.09q1.891.082,3.782.113c.684.011,1.37.024,2.054.019a1.174,1.174,0,0,1,.5.192,4.742,4.742,0,0,1,.556.293,1.166,1.166,0,0,1-.405.069,9.338,9.338,0,0,0-1.346.073c-.306.043-.6.129-.907.2-.014,0-.027.012-.041.016-.074.022-.182-.009-.2.109s.1.154.172.193c.387.2.787.367,1.187.54.355.154.706.313,1.06.47a.219.219,0,0,1,.11.079c-.451-.032-.9-.063-1.339-.124-.212-.029-.426-.041-.639-.069-.318-.043-.631-.111-.946-.164-.389-.065-.765-.181-1.148-.264-.326-.07-.653-.136-.978-.209a7.82,7.82,0,0,0-1.063-.182,2.494,2.494,0,0,1-.8-.232,5.152,5.152,0,0,0-.833-.333,2.873,2.873,0,0,0-.628-.034,3.383,3.383,0,0,1-.866-.114c-.111-.032-.2-.106-.316-.142A.7.7,0,0,0,56.5,2.677Z" transform="translate(-51.984 -2.021)"/><path class="a" d="M385.513,180.215a2.4,2.4,0,0,0,.378,1.187c.346.584.776,1.113,1.145,1.682a15.829,15.829,0,0,1,.969,1.636,2.01,2.01,0,0,1,.22,1.177,1.762,1.762,0,0,1-.485.95,2.027,2.027,0,0,1-1.775.678c-.035,0-.086.02-.1-.03s.028-.058.05-.083a3.376,3.376,0,0,0,.671-1.021,2.636,2.636,0,0,0-.376-2.694,4.2,4.2,0,0,0-.738-.749,2.857,2.857,0,0,1-.653-.781,6.554,6.554,0,0,1-.791-1.77,2.683,2.683,0,0,1-.057-.8,1.682,1.682,0,0,1,.093-.334c.019-.072.2-.1.253-.042a3.054,3.054,0,0,0,1.107.722C385.588,180.009,385.5,180.142,385.513,180.215Z" transform="translate(-354.03 -165.22)"/><path class="a" d="M317.544,305.738a2.3,2.3,0,0,1-.575-.046c.4-.161.8-.329,1.2-.5.281-.125.555-.264.837-.383a.156.156,0,0,0,.105-.193c-.019-.074-.112-.048-.169-.039a3.456,3.456,0,0,1-2.39-.738c-.011-.007-.017-.021-.038-.049a9.544,9.544,0,0,0,1.235.082,7.2,7.2,0,0,0,1.559-.132,1.448,1.448,0,0,1,.535.062c.509.089,1.014.2,1.522.3a14.835,14.835,0,0,0,2.073.274.106.106,0,0,1,.068.022,10.561,10.561,0,0,1-4.384,1.272c-.217.009-.435.018-.653.03-.051,0-.108-.018-.154.021a.061.061,0,0,0-.02.005A5.2,5.2,0,0,0,317.544,305.738Z" transform="translate(-291.834 -280.046)"/><path class="a" d="M416.993,28.95a3.935,3.935,0,0,1,1.605.48,15.426,15.426,0,0,1,1.83,1.132c.125.093.239.2.359.3a.1.1,0,0,1,.012.17c-.187.225-.367.456-.549.685a.077.077,0,0,1-.123.016,5.219,5.219,0,0,0-1.789-.774,3.735,3.735,0,0,0-1.729,0c-.088.019-.11,0-.111-.084a1.7,1.7,0,0,0-.491-1.144c-.037-.039-.07-.081-.105-.122-.165-.191-.164-.191.083-.27.293-.094.575-.216.86-.332C416.892,28.985,416.943,28.968,416.993,28.95Z" transform="translate(-383.37 -26.693)"/><path class="a" d="M413.043,73.94a6.264,6.264,0,0,1,1.452.169,2.87,2.87,0,0,1,.784.416c.054.036.036.069.009.11-.317.475-.635.948-.948,1.426-.055.083-.117.054-.178.035-.219-.068-.441-.122-.664-.179a2.65,2.65,0,0,0-1.827.163c-.1.046-.129.021-.131-.081a2.382,2.382,0,0,1,.181-.8c.1-.3.228-.6.327-.907a.356.356,0,0,1,.263-.247A2.81,2.81,0,0,1,413.043,73.94Z" transform="translate(-379.454 -68.175)"/><path class="a" d="M421.606,55.776a4.327,4.327,0,0,1,1.752.426,3.459,3.459,0,0,1,.71.375c.084.061.094.111.031.189a9.556,9.556,0,0,0-.589.8c-.037.056-.068.1-.147.042a2.963,2.963,0,0,0-1.65-.571,4.259,4.259,0,0,0-1.413.074c-.061.015-.1.018-.072-.065.1-.352.2-.7.3-1.056.021-.073.086-.089.146-.108A3.269,3.269,0,0,1,421.606,55.776Z" transform="translate(-387.459 -51.427)"/><path class="a" d="M352.72,156.7a1.04,1.04,0,0,1,.971-1.039c.291-.048.586-.005.876-.055.085-.014.09.044.1.107a3.087,3.087,0,0,0,.342,1.081c.069.122.149.239.228.356s.08.143-.069.177c-.29.066-.582.125-.872.187-.334.072-.668.14-1,.218a.144.144,0,0,1-.191-.072,3.041,3.041,0,0,1-.349-.686A1.149,1.149,0,0,1,352.72,156.7Z" transform="translate(-325.221 -143.471)"/><path class="a" d="M435.76,21.075c.277-.147.557-.284.824-.444a.291.291,0,0,1,.332,0c.986.537,1.985,1.051,2.949,1.629.24.144.236.1.045.289-.165.16-.318.329-.469.5-.037.043-.052.048-.093.009a10.411,10.411,0,0,0-2.648-1.694,2.837,2.837,0,0,0-.8-.238A.254.254,0,0,1,435.76,21.075Z" transform="translate(-401.787 -18.973)"/><path class="a" d="M412.429,101.484c-.272,0-.272,0-.31-.271-.02-.135-.034-.271-.065-.4-.022-.093.012-.129.092-.164a2.46,2.46,0,0,1,1.65-.2q.368.094.738.183c.089.022.123.045.055.143-.227.329-.445.664-.66,1-.057.09-.106.1-.2.051A2.85,2.85,0,0,0,412.429,101.484Z" transform="translate(-379.923 -92.554)"/><path class="a" d="M458.751,91.969c-.03.079-.1.045-.149.044-.466-.005-.932-.012-1.4-.028-.166-.005-.328.031-.494.026a.761.761,0,0,1,.3-.047c.41.011.82-.017,1.23.023A1.836,1.836,0,0,0,458.751,91.969Z" transform="translate(-421.103 -84.794)"/><path class="a" d="M409.661,128.479l-1.131,0a.656.656,0,0,1,.3-.02A6.707,6.707,0,0,1,409.661,128.479Z" transform="translate(-376.68 -118.44)"/><path class="a" d="M339.64,328.691c.047-.039.1-.018.154-.021.217-.012.435-.02.652-.03A3.259,3.259,0,0,1,339.64,328.691Z" transform="translate(-313.161 -303.018)"/><path class="a" d="M329.77,329.295a5.327,5.327,0,0,1,.75-.015A3.66,3.66,0,0,1,329.77,329.295Z" transform="translate(-304.06 -303.603)"/><path class="a" d="M568.244,129.7c-.147,0-.2-.1-.261-.2a.2.2,0,0,1,0-.242,2.709,2.709,0,0,1,.812-.7c.065-.042.134-.08.2-.118.184-.1.186-.1.324.065.083.1.222.21.221.314,0,.127-.2.129-.306.191a7.579,7.579,0,0,0-.863.627C568.334,129.668,568.3,129.709,568.244,129.7Z" transform="translate(-523.664 -118.357)"/><path class="d" d="M562.283,121.926c-.135-.005-.195-.1-.256-.2a.214.214,0,0,1,.015-.27,2.829,2.829,0,0,1,.822-.7c.091-.055.185-.106.277-.159.047-.027.1-.035.133.011a3.472,3.472,0,0,1,.276.354c.026.044.029.058-.022.086a4.35,4.35,0,0,0-1.063.771A.317.317,0,0,1,562.283,121.926Z" transform="translate(-518.172 -111.177)"/><path class="a" d="M521.453,183.36a7.11,7.11,0,0,1,.944.12c.1.02.147.057.124.166a2.208,2.208,0,0,0-.026.247c-.018.2-.019.2-.209.178a6.435,6.435,0,0,1-1.2-.2c-.139-.047-.218-.12-.2-.274s.117-.214.259-.224C521.248,183.369,521.351,183.365,521.453,183.36Z" transform="translate(-480.275 -169.065)"/><path class="a" d="M556.856,114.614a.315.315,0,0,1-.237-.423,2.64,2.64,0,0,1,.9-.8c.273-.171.276-.167.482.077.17.2.168.2-.062.331a3.256,3.256,0,0,0-.961.756C556.926,114.617,556.919,114.616,556.856,114.614Z" transform="translate(-513.197 -104.44)"/><path class="a" d="M521.079,203.751c.278,0,.555.016.833.041.082.007.122.034.126.121.005.117.021.233.034.349.007.061-.012.086-.079.086a5.738,5.738,0,0,1-1.407-.153.185.185,0,0,1-.151-.228c.014-.1.046-.218.192-.217S520.929,203.751,521.079,203.751Z" transform="translate(-479.856 -187.865)"/><path class="a" d="M525.764,163.07a4.575,4.575,0,0,1,.83.229c.143.05.282.11.424.162.064.023.073.057.058.122-.1.4-.1.409-.488.284-.316-.1-.635-.2-.939-.328-.173-.075-.218-.159-.177-.3S525.637,163.077,525.764,163.07Z" transform="translate(-484.49 -150.357)"/></g></g></svg>