<svg xmlns="http://www.w3.org/2000/svg" width="47.296" height="28.396" viewBox="0 0 47.296 28.396"><g transform="translate(-65.948 -70.611)"><path d="M73.711,96.411a3.568,3.568,0,0,1-.962-.07,6.8,6.8,0,0,1-1.373-.373c-.477-.186-.921-.444-1.408-.6-.058-.019-.082-.034-.06-.1a1.706,1.706,0,0,1,.338-.576,2.567,2.567,0,0,1,1.078-.716c.307-.115.628-.186.944-.272.246-.066.492-.135.739-.2.216-.055.432-.1.648-.157.268-.064.534-.128.8-.189a7,7,0,0,1,.71-.149,3.825,3.825,0,0,1,.669-.071A1.874,1.874,0,0,1,76.1,93a1.081,1.081,0,0,0,.764-.209,7.76,7.76,0,0,1,.917-.385c.286-.123.59-.175.883-.268A5.455,5.455,0,0,1,79.29,92c.291-.057.581-.108.872-.163.144-.027.289-.034.434-.056.195-.031.394-.06.591-.085.414-.053.831-.078,1.243-.152a4.153,4.153,0,0,0,.519-.073.384.384,0,0,1,.322.1,8.071,8.071,0,0,0,1.4.76c.053.02.085.031.037.1a12.741,12.741,0,0,0-.748,1.237c-.089.166-.263.162-.4.219-.587.238-1.178.466-1.769.693-.432.165-.867.317-1.3.482-.408.156-.821.3-1.228.453-.372.144-.761.244-1.139.376s-.737.225-1.108.327a2.061,2.061,0,0,1-.58.069c-.592-.014-1.181.051-1.771.083C74.369,96.384,74.078,96.408,73.711,96.411Z" fill="#7ee6ff" opacity="0.35"/><path d="M88.7,87.763a4.439,4.439,0,0,1,1.485-3.256,8.325,8.325,0,0,1,1-.755c.036-.023.075-.065.116-.048s.025.078.023.117a4.229,4.229,0,0,0,.486,2.046.176.176,0,0,1-.053.257,2.624,2.624,0,0,0-.785,1.128,1.455,1.455,0,0,0,.221,1.416,2.7,2.7,0,0,0,2.074,1.163,3.983,3.983,0,0,0,1.207-.156c.525-.132,1.032-.326,1.568-.416a1.11,1.11,0,0,1,1.343.819.953.953,0,0,1-.164.78,1.321,1.321,0,0,1-.537.5,3.982,3.982,0,0,1-1.1.465,4.382,4.382,0,0,1-1.96-.008,9.513,9.513,0,0,0-1.691-.256,2.521,2.521,0,0,1-.951-.326A4.825,4.825,0,0,1,89.3,89.885a2.927,2.927,0,0,1-.559-1.518A3.793,3.793,0,0,1,88.7,87.763Z" fill="#7ee6ff" opacity="0.35"/><path d="M70.464,91.384c.515-.229,1.02-.428,1.528-.622.337-.129.675-.254,1.018-.365.32-.106.65-.182.974-.279a7.283,7.283,0,0,1,1.618-.187,10.006,10.006,0,0,0,1.457-.2c.388-.084.777-.167,1.162-.263.355-.088.706-.2,1.056-.3s.706-.224,1.057-.341a6.019,6.019,0,0,0,.718-.259.57.57,0,0,1,.583.058,4.536,4.536,0,0,1,.514.4,1.751,1.751,0,0,0,.336.223c.088.044.1.1.014.157a6.635,6.635,0,0,1-1.084.691.441.441,0,0,1-.126.032c-.064.009-.113.041-.107.11s.031.124.119.114a2.627,2.627,0,0,1,.707.072,5.1,5.1,0,0,1,.682.177c.083.025.111.116.142.192.048.121.092.244.136.366.034.09-.013.127-.1.138-.371.05-.741.1-1.115.131-.322.023-.641.086-.961.128-.236.031-.47.074-.707.1-.269.032-.533.1-.8.149s-.549.12-.822.191a8.631,8.631,0,0,0-1.031.327,6.044,6.044,0,0,0-.991.474c-.152.1-.338.009-.491-.056a10.879,10.879,0,0,0-1.133-.387c-.459-.137-.917-.279-1.381-.4-.361-.09-.722-.184-1.086-.265s-.752-.129-1.126-.207c-.187-.039-.385-.032-.575-.069A.382.382,0,0,1,70.464,91.384Z" fill="#7ee6ff" opacity="0.35"/><path d="M80.042,82.975a4.43,4.43,0,0,1-.513.587,1.173,1.173,0,0,0-.2.266.155.155,0,0,0,.094.243,4.47,4.47,0,0,0,1.337.237c.036,0,.086-.016.1.033s-.026.064-.06.088c-.53.35-1.091.648-1.651.948-.417.223-.835.442-1.261.648a1.944,1.944,0,0,1-.645.2,4.878,4.878,0,0,1-.959.051,4.441,4.441,0,0,1-.8-.141c-.28-.077-.563-.147-.846-.216s-.584-.133-.875-.2-.59-.142-.886-.209c-.212-.048-.425-.091-.638-.137-.237-.051-.471-.112-.71-.152a1.667,1.667,0,0,0-.408-.069c-.1.006-.2-.074-.314-.087a3.658,3.658,0,0,1-.51-.119c-.04-.01-.093-.024-.1-.07,0-.021.036-.053.061-.074.242-.213.494-.414.724-.639a3.471,3.471,0,0,1,.837-.565c.286-.151.577-.291.873-.417a10.4,10.4,0,0,1,1-.353,4.614,4.614,0,0,1,1.874-.12c.281.028.566.036.843.082.39.065.783.095,1.174.151.25.035.505.049.757.064.42.024.842,0,1.263.008C79.748,83.01,79.881,82.926,80.042,82.975Z" fill="#7ee6ff" opacity="0.35"/><path d="M81.462,86.72a9.457,9.457,0,0,1-.654.959c-.223.3-.456.6-.672.909a.686.686,0,0,1-.406.236c-.423.134-.853.248-1.278.374a16.074,16.074,0,0,1-1.627.385,5.979,5.979,0,0,1-1.437.138.468.468,0,0,1-.18-.045c-.459-.212-.932-.388-1.41-.554-.31-.108-.614-.228-.926-.326-.354-.111-.7-.239-1.067-.318a7.936,7.936,0,0,0-1.374-.176c-.048,0-.106,0-.126-.051s.031-.08.056-.112a2.916,2.916,0,0,1,1.375-.954,9.848,9.848,0,0,1,1.521-.422c.319-.061.639-.119.957-.182a3.831,3.831,0,0,0,1.1-.263c.132-.068.273.041.408.071a3.311,3.311,0,0,0,1.234.06,3.144,3.144,0,0,0,.577-.081,1.246,1.246,0,0,0,.161-.062.793.793,0,0,1,.638.027,5.877,5.877,0,0,0,.662.15c.366.073.737.11,1.106.159a6.636,6.636,0,0,0,1.2.077C81.337,86.718,81.385,86.72,81.462,86.72Z" fill="#7ee6ff" opacity="0.35"/><path d="M70.342,75.9a.586.586,0,0,1,.26-.206,10.248,10.248,0,0,1,1.289-.631,7.176,7.176,0,0,1,1.974-.514c.14-.011.279-.04.421-.051a1.111,1.111,0,0,1,.771.212,5.881,5.881,0,0,0,1.677.774,9.564,9.564,0,0,0,1.071.263c.479.089.962.12,1.445.17a1.7,1.7,0,0,1,.966.425,2.049,2.049,0,0,1,.408.453.649.649,0,0,0,.3.237c.046.021.115.042.11.1s-.077.059-.128.071a2.523,2.523,0,0,0-.99.444,2.9,2.9,0,0,1-1.123.545.6.6,0,0,1-.277,0c-.251-.07-.5-.139-.751-.217-.321-.1-.64-.2-.957-.316q-.619-.221-1.232-.46c-.183-.072-.356-.171-.539-.246a8.373,8.373,0,0,0-.863-.284c-.279-.081-.561-.148-.843-.2-.252-.049-.506-.089-.758-.141-.284-.059-.571-.093-.854-.159-.226-.052-.456-.09-.685-.124S70.587,75.945,70.342,75.9Z" fill="#7ee6ff" opacity="0.35"/><path d="M70.562,78.892a8.138,8.138,0,0,1,1.7-.794c.325-.1.66-.186.993-.265.276-.066.554-.125.827-.206.179-.053.365-.084.547-.124.211-.047.421-.107.638-.136a1.652,1.652,0,0,1,.766.2c.441.153.873.329,1.322.464.271.082.527.214.8.3A3.4,3.4,0,0,1,79.3,79.1a1.813,1.813,0,0,0,.454.334c.075.033.07.07.007.114a4.216,4.216,0,0,1-1.094.577c-.219.07-.455.085-.68.135-.358.079-.723.1-1.084.151a8.412,8.412,0,0,1-.953.025,5.185,5.185,0,0,1-1.413-.188,3.1,3.1,0,0,1-.788-.391,5.569,5.569,0,0,0-1.056-.5,4.2,4.2,0,0,0-.852-.176,5.161,5.161,0,0,1-.962-.2C70.775,78.95,70.66,78.969,70.562,78.892Z" fill="#7ee6ff" opacity="0.35"/><path d="M80.4,73.514a1.523,1.523,0,0,1-.445.086c-.38.058-.756.136-1.136.191a.821.821,0,0,0-.219.075c-.11.048-.1.158.022.216.218.1.44.2.66.3.356.16.7.352,1.037.543.023.012.037.04.065.07-.4.184-.7.49-1.1.654a.506.506,0,0,1-.223.05,9.277,9.277,0,0,1-1.088-.118c-.29-.058-.578-.119-.864-.193a7.262,7.262,0,0,1-1.159-.413,5.551,5.551,0,0,1-.947-.527,1.132,1.132,0,0,1-.241-.227,1.37,1.37,0,0,0-.524-.45,1.155,1.155,0,0,0-.351-.089,11.456,11.456,0,0,0-1.583.012c-.183.011-.367.03-.552.041a2.747,2.747,0,0,1-.736-.14c-.113-.023-.221-.068-.334-.092-.176-.038-.2-.1-.083-.229a.858.858,0,0,1,.376-.261c.25-.084.48-.224.727-.323a3.358,3.358,0,0,1,1.335-.317,10.6,10.6,0,0,1,1.4.113c.385.06.768.125,1.149.2.4.078.793.174,1.19.267.418.1.838.195,1.263.265.543.089,1.09.129,1.634.21a3.774,3.774,0,0,0,.439.017A.628.628,0,0,1,80.4,73.514Z" fill="#7ee6ff" opacity="0.35"/><path d="M79.738,82.776c-.124.012-.247.029-.371.036a11.381,11.381,0,0,1-1.466-.044,12.225,12.225,0,0,1-1.246-.146,5.533,5.533,0,0,0-.607-.08,2.44,2.44,0,0,1-.765-.26c-.356-.151-.694-.338-1.039-.513a1.109,1.109,0,0,0-.419-.107c-.393-.029-.779.063-1.169.055a3.19,3.19,0,0,1-.671-.125c-.239-.058-.474-.128-.719-.168-.223-.037-.445-.091-.665-.146a1.735,1.735,0,0,0-.2-.028c-.043,0-.1,0-.106-.059s.05-.087.086-.1a5.408,5.408,0,0,0,.494-.275c.279-.16.527-.369.817-.512a2.483,2.483,0,0,1,1.436-.281c.174.022.34.112.515.134.39.051.724.264,1.106.344a7.45,7.45,0,0,0,1.568.127,6.646,6.646,0,0,0,1.195-.089c.375-.07.752-.129,1.126-.208a.7.7,0,0,1,.664.29,1.121,1.121,0,0,0,.788.4c.044.005.118-.024.125.037s-.068.064-.117.082a9.24,9.24,0,0,1-1.121.283,3.966,3.966,0,0,1-.408.039c-.158.015-.194.075-.109.205a2.037,2.037,0,0,0,.411.408C79.151,82.31,79.446,82.528,79.738,82.776Z" fill="#7ee6ff" opacity="0.35"/><path d="M70.632,71.392l-.117-.165a.12.12,0,0,1,.114-.078c.3-.038.591-.093.889-.135a13.823,13.823,0,0,1,2.456-.09q1.892.081,3.782.113c.685.011,1.37.024,2.055.019a1.186,1.186,0,0,1,.5.192,4.744,4.744,0,0,1,.555.293,1.15,1.15,0,0,1-.4.069,9.306,9.306,0,0,0-1.346.073c-.305.043-.605.13-.906.2-.014,0-.027.012-.041.016-.074.022-.182-.009-.2.109s.1.154.171.193c.387.2.788.367,1.187.539.355.154.706.313,1.059.47a.221.221,0,0,1,.11.079c-.451-.032-.9-.063-1.339-.124-.212-.029-.427-.04-.639-.069-.319-.043-.631-.112-.946-.164-.389-.065-.765-.181-1.149-.263-.325-.071-.652-.136-.978-.209a7.692,7.692,0,0,0-1.063-.182,2.518,2.518,0,0,1-.8-.232,5.068,5.068,0,0,0-.832-.333,2.875,2.875,0,0,0-.628-.034,3.375,3.375,0,0,1-.866-.114c-.112-.032-.2-.106-.316-.142A.7.7,0,0,0,70.632,71.392Z" fill="#7ee6ff" opacity="0.35"/><path d="M97.6,85.731a2.4,2.4,0,0,0,.378,1.187c.347.584.776,1.113,1.145,1.682a15.721,15.721,0,0,1,.969,1.635,2.006,2.006,0,0,1,.22,1.177,1.762,1.762,0,0,1-.485.949,2.03,2.03,0,0,1-1.775.679c-.035,0-.086.02-.1-.031s.028-.057.05-.083a3.406,3.406,0,0,0,.671-1.021A2.638,2.638,0,0,0,98.3,89.21a4.193,4.193,0,0,0-.739-.749,2.865,2.865,0,0,1-.652-.781,6.548,6.548,0,0,1-.791-1.77,2.638,2.638,0,0,1-.057-.8,1.774,1.774,0,0,1,.092-.334c.019-.072.2-.1.253-.042a3.039,3.039,0,0,0,1.107.722C97.678,85.525,97.585,85.658,97.6,85.731Z" fill="#7ee6ff" opacity="0.35"/><path d="M91.829,96.428a2.312,2.312,0,0,1-.574-.046c.4-.161.8-.329,1.195-.5.281-.125.555-.264.837-.383a.158.158,0,0,0,.106-.193c-.019-.074-.112-.047-.17-.039a3.453,3.453,0,0,1-2.389-.738c-.011-.007-.017-.021-.038-.049a9.651,9.651,0,0,0,1.235.082,7.279,7.279,0,0,0,1.558-.132,1.45,1.45,0,0,1,.535.062c.509.089,1.013.205,1.522.3a14.89,14.89,0,0,0,2.073.273.114.114,0,0,1,.068.022A10.555,10.555,0,0,1,93.4,96.358c-.218.009-.435.018-.653.029-.051,0-.107-.017-.154.022a.046.046,0,0,0-.02.005A5.181,5.181,0,0,0,91.829,96.428Z" fill="#7ee6ff" opacity="0.35"/><path d="M99.743,72.993a3.938,3.938,0,0,1,1.605.48,15.428,15.428,0,0,1,1.83,1.132c.124.093.239.2.358.3a.1.1,0,0,1,.013.17c-.187.225-.367.456-.549.686a.077.077,0,0,1-.123.016A5.2,5.2,0,0,0,101.088,75a3.732,3.732,0,0,0-1.73,0c-.088.019-.11,0-.111-.085a1.7,1.7,0,0,0-.491-1.143c-.037-.039-.071-.081-.106-.122-.165-.191-.164-.191.083-.27.293-.093.575-.216.86-.332C99.642,73.028,99.693,73.011,99.743,72.993Z" fill="#7ee6ff"/><path d="M99.708,76.5a6.211,6.211,0,0,1,1.452.169,2.852,2.852,0,0,1,.784.416c.054.036.036.069.009.11-.317.475-.635.948-.948,1.426-.055.083-.117.054-.179.035-.219-.068-.441-.122-.663-.179a2.646,2.646,0,0,0-1.828.163c-.1.046-.129.021-.131-.081a2.39,2.39,0,0,1,.181-.8c.1-.3.228-.6.327-.907a.353.353,0,0,1,.263-.247A2.785,2.785,0,0,1,99.708,76.5Z" fill="#7ee6ff"/><path d="M100.266,75.085a4.339,4.339,0,0,1,1.752.426,3.47,3.47,0,0,1,.71.375c.084.061.093.112.031.19a9.453,9.453,0,0,0-.589.8c-.036.056-.067.1-.146.042a2.959,2.959,0,0,0-1.651-.571,4.268,4.268,0,0,0-1.412.074c-.061.015-.1.018-.072-.065.1-.351.2-.7.3-1.056.021-.073.086-.089.146-.108A3.267,3.267,0,0,1,100.266,75.085Z" fill="#7ee6ff"/><path d="M93.619,83.963a1.039,1.039,0,0,1,.97-1.039c.291-.048.587-.006.877-.055.085-.014.09.044.1.107a3.1,3.1,0,0,0,.342,1.081c.069.122.149.239.228.356s.079.143-.07.177c-.29.066-.581.125-.871.187-.334.072-.669.14-1,.218A.144.144,0,0,1,94,84.923a3.036,3.036,0,0,1-.349-.686A1.112,1.112,0,0,1,93.619,83.963Z" fill="#7ee6ff" opacity="0.35"/><path d="M100.093,72.838c.276-.148.557-.284.824-.444a.292.292,0,0,1,.332,0c.986.537,1.985,1.051,2.948,1.629.241.144.237.1.046.289-.165.16-.318.329-.469.5-.037.042-.052.048-.093.009a10.4,10.4,0,0,0-2.648-1.694,2.8,2.8,0,0,0-.8-.238A.246.246,0,0,1,100.093,72.838Z" fill="#7ee6ff"/><path d="M98.625,79.666c-.272,0-.272,0-.31-.271-.019-.135-.034-.27-.065-.4-.021-.093.013-.128.092-.164a2.466,2.466,0,0,1,1.65-.2c.246.063.491.123.738.183.089.022.123.046.055.144-.227.329-.445.664-.66,1-.056.09-.106.1-.2.051A2.843,2.843,0,0,0,98.625,79.666Z" fill="#7ee6ff"/><path d="M113.227,83.216a5.965,5.965,0,0,0-.8-1.877l-.178-.315a5.25,5.25,0,0,0-.527-.738l-.212-.266a5.233,5.233,0,0,0-.794-.863,4.542,4.542,0,0,0-1.623-.928.372.372,0,0,1-.326-.368,5.365,5.365,0,0,0-.453-1.5.619.619,0,0,0-.211-.263.311.311,0,0,0-.124-.135c-1-.689-2.038-1.329-2.919-1.864a2.185,2.185,0,0,0-.328-.152,1.673,1.673,0,0,1-.3-.138c-.232-.147-.5-.315-.779-.459-.3-.159-.6-.325-.9-.492a19.667,19.667,0,0,0-1.8-.919c-.2-.085-.393-.173-.589-.262a14.542,14.542,0,0,0-1.532-.619,4.119,4.119,0,0,0-2.309-.1,5.8,5.8,0,0,0-1.534.7l-.319.191c-.428.258-.871.525-1.324.755a2.2,2.2,0,0,1-1.338.3c-.726-.113-1.359-.234-1.933-.371-.44-.1-.879-.212-1.318-.318-.615-.15-1.231-.3-1.847-.443-.6-.139-1.215-.268-1.842-.384-1.091-.2-2.175-.366-3.223-.493l-.215-.027a12.142,12.142,0,0,0-1.687-.127c-.538.01-.983.012-1.4,0l-.353-.006c-.8-.013-1.632-.026-2.447-.058-.264-.009-.529-.015-.792-.021-.3-.007-.607-.014-.909-.027a14.042,14.042,0,0,0-3.492.221l-.044.008a.609.609,0,0,0-.22.082,1.718,1.718,0,0,0-1.717,1.048,1.692,1.692,0,0,0-.03.875l.017.124a.478.478,0,0,0-.088.169c-.009.03-.021.066-.036.107a.565.565,0,0,1-.383.375c-.24.08-.442.152-.642.237a1.267,1.267,0,0,0-.834,1.331.214.214,0,0,0,.083.179.153.153,0,0,0,.085.024.307.307,0,0,0,.111-.027,1.411,1.411,0,0,1,.924-.1.3.3,0,0,0,.152,0l.09-.025a1.483,1.483,0,0,0,.862-.468l.012.018a.323.323,0,0,0,.23.183c.036,0,.073.01.109.016a.791.791,0,0,0,.733-.144.22.22,0,0,1,.066.006l.094.015a1.9,1.9,0,0,0,.395.04.2.2,0,0,0,.179-.086.208.208,0,0,0-.015-.2,4.631,4.631,0,0,1-.342-.859.481.481,0,0,1-.013-.067c.061.021.121.047.181.063s.112.03.167.049a3.652,3.652,0,0,0,1.641.19,8.439,8.439,0,0,1,1.445-.035.835.835,0,0,1,.554.213,6.642,6.642,0,0,0-1.279.176,9.475,9.475,0,0,0-3.078,1.361.384.384,0,0,0-.1.1,2.96,2.96,0,0,0-1.154-.072,2.2,2.2,0,0,0-1.553.873,3.9,3.9,0,0,0-.273.444,2.422,2.422,0,0,1-.42.6l-.188.18.258.035a3.909,3.909,0,0,0,2.137-.218c.021-.007.027-.011.057.027s.058.076.086.114.071.1.11.145a.314.314,0,0,0,.213.146.354.354,0,0,0,.222-.131.294.294,0,0,1,.47-.046l.046.036c.019.016.037.031.057.045a1.481,1.481,0,0,0,.752.228c.057.007.115.013.175.022l.181.025c-.285.143-.57.3-.855.477a1.467,1.467,0,0,0-.594-.363,3.88,3.88,0,0,0-.958-.209,1.711,1.711,0,0,0-1.33.365,5.977,5.977,0,0,1-1.13.71l-.173.092v.075l.031.164.109-.011a2.761,2.761,0,0,1,.513.008l.122.009a4.924,4.924,0,0,1,.621.1,4.556,4.556,0,0,0,.729.105.326.326,0,0,1,.181.1.659.659,0,0,1,.175.335c.015.05.03.1.053.16a.245.245,0,0,0,.189.187.233.233,0,0,0,.22-.142.363.363,0,0,1,.591-.078,3.592,3.592,0,0,1,.4.358.268.268,0,0,0,.185.105l.024,0c.1-.014.133-.095.172-.177a1.557,1.557,0,0,0,.112-.642,2.769,2.769,0,0,1,.02-.3,1.305,1.305,0,0,0-.01-.512,10.077,10.077,0,0,0,1.08.253c.121.022.243.037.365.052a2.607,2.607,0,0,1,.765.171l.054.023a2.756,2.756,0,0,0-1.283.409c-.155.093-.309.188-.462.283-.368.229-.75.465-1.143.659a.239.239,0,0,0-.117.119,1.01,1.01,0,0,0-.487-.116,2.692,2.692,0,0,0-1.35.358,6.4,6.4,0,0,0-1.3,1.169c-.107.119-.211.241-.318.366l-.291.339.217.038a2.2,2.2,0,0,0,.222.023.716.716,0,0,1,.308.063.455.455,0,0,0,.324.063l.185-.037a1.737,1.737,0,0,0,.777-.29h0a1.23,1.23,0,0,1,.19.437l.006.035a.434.434,0,0,0,.106.256l.11.12.087-.137a1.31,1.31,0,0,1,.275-.282c.045-.039.09-.077.133-.116a.527.527,0,0,1,.591-.158.737.737,0,0,0,.661-.056c.093.094.19.182.29.267a.438.438,0,0,0,.394.1L71,83.565l-.1-.153a.563.563,0,0,1-.064-.252c-.011-.1-.018-.209-.024-.314a4.286,4.286,0,0,0-.047-.483,1.453,1.453,0,0,0-.406-.8c.494.09,1,.185,1.484.319A3.417,3.417,0,0,0,73.094,82l.108-.011a2.076,2.076,0,0,1,.779.013,1.428,1.428,0,0,1,.311.144c.055.031.11.062.166.09l.208.1c-.032,0-.059,0-.087,0a5.123,5.123,0,0,0-1.431.321,8.542,8.542,0,0,0-2.117,1.031,5.893,5.893,0,0,0-.623.539,6.12,6.12,0,0,1-.535.472.323.323,0,0,0-.033.041,2.134,2.134,0,0,0-1.644.047,1.946,1.946,0,0,0-1.309,1.591,5.134,5.134,0,0,0,.053,1.524.252.252,0,0,0,.131.216l.1.043.059-.087a4.872,4.872,0,0,1,.932-1.021,1.093,1.093,0,0,1,.184-.116l.046-.025a.435.435,0,0,1,.559.092.2.2,0,0,0,.162.1l.108,0,.027-.147a.812.812,0,0,1,.022-.107.351.351,0,0,1,.163-.222.332.332,0,0,1,.265-.025,2.182,2.182,0,0,1,.406.178c.231.124.449.269.68.422l.086.057a2.55,2.55,0,0,0-.934.985c-.188-.046-.38-.092-.578-.12a2.1,2.1,0,0,0-1.948.69,1.983,1.983,0,0,0-.395,2.131.9.9,0,0,0,.53.552l.172.071V91.3c0-.065,0-.125,0-.184a.651.651,0,0,1,.252-.555,2.062,2.062,0,0,1,.372-.249.092.092,0,0,1,.031.021,3.145,3.145,0,0,0,1.643.78.266.266,0,0,0,.238-.058.257.257,0,0,0,.022-.242.773.773,0,0,1-.006-.461c.007-.027.012-.036.021-.023a1.485,1.485,0,0,1,.9.406c-.428.176-.836.351-1.193.512a.334.334,0,0,0-.086.05,2.177,2.177,0,0,0-1.581.078,2.492,2.492,0,0,0-1.378,1.17l-.065.169.18,0H67.2a2.2,2.2,0,0,1,.392.021l.024,0-.008.018a.674.674,0,0,0-.043.139,1.836,1.836,0,0,0,.212,1.3,1.435,1.435,0,0,0,.62.576l.094.031.063-.072a.172.172,0,0,0,.038-.1q.006-.039.009-.075a1.082,1.082,0,0,1,.351-.8l.051-.045a2.04,2.04,0,0,0,.161-.149l.007.007a1.357,1.357,0,0,0,.946.517.2.2,0,0,0,.179-.047.215.215,0,0,0,.042-.182,1.585,1.585,0,0,1,.054-.686,3.452,3.452,0,0,0,.12-.581,1.443,1.443,0,0,0-.148-.862,11.011,11.011,0,0,1,1.6.206c.977.192,1.948.47,2.851.743.051.015.1.03.153.047l-.067.012-.193.038c-.931.193-1.857.435-2.64.647l-.173.046a4.349,4.349,0,0,0-1.233.465A2.035,2.035,0,0,0,69.6,95.324a1.667,1.667,0,0,0-.451-.035A1.5,1.5,0,0,0,67.664,96.4a4.867,4.867,0,0,0-.215,1c-.049.394-.085.807-.109,1.263l-.018.344.362-.391a4.1,4.1,0,0,1,.694-.609.435.435,0,0,1,.393-.064,1.377,1.377,0,0,1,.413.233.225.225,0,0,0,.224.077l.088-.043.007-.09a.321.321,0,0,0,0-.053.808.808,0,0,1,.363-.687.767.767,0,0,1,.759-.063c.132.059.256.13.384.2.073.042.147.084.224.125l.2.106-.018-.266a.422.422,0,0,0-.011-.1,3.623,3.623,0,0,0-.607-1.323c.032.015.066.027.1.042.106.047.213.1.321.141a7.33,7.33,0,0,0,3.281.45c.264-.015.527-.033.791-.052.244-.017.488-.035.731-.048.1-.006.209-.008.314-.009a3.2,3.2,0,0,0,.791-.076c.8-.212,1.584-.479,2.243-.714,1.736-.617,3.435-1.28,4.867-1.847,1.045-.413,2.14-.908,3.347-1.514A19.454,19.454,0,0,1,90.339,91.3a.391.391,0,0,0,.044-.016c.009,0,.021-.009.016-.014.108.063.221.125.345.189a5.41,5.41,0,0,0-2.012.458l-.357.175.393.06a7.264,7.264,0,0,1,1.761.567c-.284.1-.572.21-.886.345-.2.088-.406.183-.608.277l-.061.029a.235.235,0,0,0-.142.294.233.233,0,0,0,.248.156,1.5,1.5,0,0,1,.315.02c.388.063.776.13,1.163.2.427.072.863.147,1.3.217-.211-.007-.427-.02-.652-.034a2.245,2.245,0,0,1-.7-.126.236.236,0,0,0-.328.084.249.249,0,0,0,.111.326,4.763,4.763,0,0,0,2.126,1.05l-.041.018c-.115.048-.228.1-.341.148a6.3,6.3,0,0,1-1.334.473.228.228,0,0,0-.209.231c0,.093.034.206.231.225l.135.014c.182.02.363.04.545.046.223.008.441.012.657.012a13.837,13.837,0,0,0,3.74-.475,9.045,9.045,0,0,0,2.3-.977.335.335,0,0,1,.186-.054c.032,0,.066,0,.1,0a4.172,4.172,0,0,0,2.623-.883,3.83,3.83,0,0,0,1.246-1.756l.028-.04c.02-.031.04-.061.057-.091l.1-.176a3.527,3.527,0,0,1,.45-.673.466.466,0,0,1,.712-.09,3.48,3.48,0,0,1,.6.519l.109.108a1,1,0,0,0,.221.183.263.263,0,0,0,.3,0,.277.277,0,0,0,.109-.272c-.013-.107-.026-.213-.037-.319a5.534,5.534,0,0,0-.463-1.854,5.749,5.749,0,0,1-.3-.744l-.006-.02h0a1.736,1.736,0,0,1,1.3.007,6.311,6.311,0,0,1,.774.424c.165.1.33.2.5.293l.1.051a7.31,7.31,0,0,0,1.6.7,1.068,1.068,0,0,0,1.43-.97,3.5,3.5,0,0,0,.006-.622.576.576,0,0,1,.08-.384.919.919,0,0,0,.137-.47.49.49,0,0,0-.391-.548l-.075-.023a2.376,2.376,0,0,1-.246-.084.091.091,0,0,1-.067-.119,3.2,3.2,0,0,1,1-1.839,1.1,1.1,0,0,1,.887-.337.452.452,0,0,0,.577-.484,1.591,1.591,0,0,0-.174-.8,1.6,1.6,0,0,1,.21.006l.3.01a4.1,4.1,0,0,0,.708-.014.452.452,0,0,0,.452-.537A.956.956,0,0,0,113.227,83.216Zm-2.351-2.792c.065-.039.132-.077.2-.114l.069-.038c.028.036.058.07.088.1.043.051.085.1.123.155a4.35,4.35,0,0,0-1.031.76.25.25,0,0,1-.088.067c-.06,0-.089-.037-.156-.141a.091.091,0,0,1,.01-.125A2.7,2.7,0,0,1,110.876,80.424Zm-9.9-7.923a.171.171,0,0,1,.208,0l.8.432c.71.38,1.443.774,2.145,1.195l.073.042h0l-.051.048c-.16.156-.305.315-.437.464a10.7,10.7,0,0,0-2.63-1.669,2.674,2.674,0,0,0-.65-.214C100.618,72.705,100.8,72.607,100.98,72.5ZM99,83.729a.246.246,0,0,0,.173.2.615.615,0,0,1,.167.09.271.271,0,0,1-.011.479.481.481,0,0,1-.277.084c-.338,0-.676,0-1.013,0a.4.4,0,0,1-.408-.253.208.208,0,0,1,.073-.259.843.843,0,0,1,.24-.14.275.275,0,0,0,.2-.226,3.29,3.29,0,0,0,.073-.61c0-.067-.025-.088-.085-.084a2.934,2.934,0,0,0-.653.089.233.233,0,0,0-.166.148,1.13,1.13,0,0,1-.123.233.259.259,0,0,1-.455,0,.616.616,0,0,1-.1-.362c0-.289,0-.578,0-.867a.6.6,0,0,1,.1-.361.262.262,0,0,1,.478.027.582.582,0,0,0,.614.373,2.863,2.863,0,0,1,.291.027c.078.008.1-.027.1-.1a2.437,2.437,0,0,0-.113-.641c-.018-.07-.086-.1-.143-.112a.656.656,0,0,1-.256-.154.282.282,0,0,1,.118-.486c.046-.015.094-.026.141-.04a.64.64,0,0,1,.3-.018,6.583,6.583,0,0,1,.831.016c.14.048.289.079.356.24a.231.231,0,0,1-.081.309.4.4,0,0,1-.137.083c-.207.045-.24.209-.266.375-.023.145-.031.292-.046.438-.006.053,0,.1.072.087a3.2,3.2,0,0,0,.623-.09.219.219,0,0,0,.163-.151.7.7,0,0,1,.081-.156.282.282,0,0,1,.513.008.572.572,0,0,1,.073.295c0,.312,0,.626,0,.939,0,.239-.092.385-.258.442a.2.2,0,0,1-.25-.063.778.778,0,0,1-.148-.252.292.292,0,0,0-.241-.2A3.541,3.541,0,0,0,99,83.008c-.046,0-.083,0-.079.067A3.494,3.494,0,0,0,99,83.729Zm-1.518,5.835a1.376,1.376,0,0,0-1.542-.584L95.8,89a2.5,2.5,0,0,0-.469.111.231.231,0,0,1-.049-.032c-.115-.083-.231-.165-.347-.246a9.593,9.593,0,0,1-.774-.582,10.664,10.664,0,0,1-1.026-1,6.823,6.823,0,0,1-1.12-1.66,4.073,4.073,0,0,1-.289-.888l-.01-.047a3.116,3.116,0,0,1-.094-.7,2.457,2.457,0,0,1,.553-1.6,2.577,2.577,0,0,1,1.288-.823c.225-.068.468-.132.763-.2a2.611,2.611,0,0,1,.425-.067,8.908,8.908,0,0,1,1.089-.006,2.988,2.988,0,0,0-.307,1.318.283.283,0,0,1-.085.01c-.09.005-.181.006-.27.005-.118,0-.234,0-.35.01a1.506,1.506,0,0,0-1.078.465,1.281,1.281,0,0,0-.291,1.209,3.426,3.426,0,0,0,.616,1.144l.091.128a9.6,9.6,0,0,0,.963,1.114,16.932,16.932,0,0,0,1.358,1.252c.149.123.3.242.455.361a7.786,7.786,0,0,1,.98.855,2.815,2.815,0,0,1,.645,1.025,2.414,2.414,0,0,1,.039,1.235,2.89,2.89,0,0,1-.877,1.471c-.109-.03-.219-.058-.329-.086a6.4,6.4,0,0,1-.626-.181l-.094-.036a2.333,2.333,0,0,0-.261-.09,2.351,2.351,0,0,0,.5-.728.591.591,0,0,1,.23-.255,1.3,1.3,0,0,0,.528-.683c.013-.039.028-.076.043-.114a1.7,1.7,0,0,0,.063-.173A1.108,1.108,0,0,0,97.487,89.564Zm-2.695-.291c-.035.011-.071.02-.108.03l-.092.024a3.861,3.861,0,0,1-1.483.183,2.33,2.33,0,0,1-1.318-.633,1.884,1.884,0,0,1-.492-.638,1.126,1.126,0,0,1-.04-.876,2.5,2.5,0,0,1,.68-.992,8.037,8.037,0,0,0,.877,1.178A10.114,10.114,0,0,0,94.792,89.273Zm-6.315-.6.009.047a.152.152,0,0,1-.037.019q-1.107.45-2.207.917c-.927.395-1.695.731-2.417,1.057l-.115.052c-.153.068-.306.135-.473.221-.022-.072-.049-.144-.075-.215l-.039-.106a.615.615,0,0,0-.436-.4c-.2-.059-.4-.11-.657-.161.177-.112.341-.232.5-.349.12-.087.238-.173.359-.254a.3.3,0,0,0,.156-.314c-.022-.117-.1-.176-.255-.176a.918.918,0,0,1-.443-.229l-.128-.11a3.585,3.585,0,0,0-.4-.313l.1-.047c.209-.093.417-.187.622-.283q.9-.423,1.8-.854,1.974-.946,3.948-1.895c.4-.195.806-.391,1.209-.588l.05-.025a4.459,4.459,0,0,0-.809,1.346,4.616,4.616,0,0,0-.361,1.893A4.2,4.2,0,0,0,88.477,88.677ZM82.97,91.161h0l-.115.053c0-.011.007-.029,0-.036Zm5.518-6.45-.772.367Q86,85.9,84.284,86.731l-.29.139c-.783.376-1.592.766-2.4,1.123-.305.136-.6.249-.885.345l.008-.01q.232-.309.462-.618a9.179,9.179,0,0,0,.564-.836.349.349,0,0,0,.046-.357.213.213,0,0,0-.2-.117.482.482,0,0,0-.093.011.18.18,0,0,1-.038.007,8.03,8.03,0,0,1-1.271-.081l-.1-.012a15.512,15.512,0,0,1-1.579-.254c.783-.4,1.588-.824,2.347-1.3a1.914,1.914,0,0,0,.394-.305.288.288,0,0,0,.071-.321.254.254,0,0,0-.271-.14,5.032,5.032,0,0,1-1.316-.163l-.028-.006.02-.022c.058-.065.117-.127.177-.19a3.915,3.915,0,0,0,.366-.422.436.436,0,0,1,.333-.2,5.515,5.515,0,0,0,.95-.245c.109-.034.217-.069.325-.1.757-.224,1.536-.417,2.288-.6l.357-.088.508-.124c.625-.151,1.272-.308,1.894-.525a10.551,10.551,0,0,1,2.023-.431c.645-.091,1.292-.171,1.939-.251l.971-.121a3.087,3.087,0,0,0,.781-.167,4.853,4.853,0,0,0,.212.958l-.009,0a2.921,2.921,0,0,0-1.03.8,2.63,2.63,0,0,0-.554,1.185.134.134,0,0,1-.071.1,6.087,6.087,0,0,1-.891.457c-.158.07-.317.14-.471.218C89.383,84.287,88.936,84.5,88.488,84.711Zm-8.051-3.952a1.553,1.553,0,0,0-.26-.044,1.17,1.17,0,0,1-.253-.047.792.792,0,0,1-.389-.252l-.027-.033a.658.658,0,0,0-.207-.193,7.6,7.6,0,0,0,.731-.449.557.557,0,0,0,.184-.182.252.252,0,0,0,.018-.231.211.211,0,0,0-.163-.115,1.045,1.045,0,0,1-.508-.306c-.053-.047-.106-.094-.161-.138l-.048-.037c.351.1.694.192,1.043.264a8.327,8.327,0,0,0,2.679.157c.393-.047.784-.105,1.175-.162.315-.046.63-.092.946-.133.45-.058.9-.114,1.353-.169q.793-.1,1.586-.2c.636-.083,1.281-.189,1.974-.325a17.2,17.2,0,0,1,2.118-.322c.015,0,.031,0,.044,0,.261-.023.262-.024.348.225a3.229,3.229,0,0,1,.071,1.49c-.066.369-.1.4-.476.457-.451.069-.912.123-1.358.175-.347.041-.693.082-1.039.129-.174.024-.349.047-.523.069a12.691,12.691,0,0,0-2.251.43c-.627.2-1.307.392-2.079.585l-.819.2c-.4.1-.791.2-1.186.3-.613.157-1.242.337-1.922.552a4.682,4.682,0,0,1-.839.173c-.047.006-.061,0-.069,0a11.6,11.6,0,0,1-1.169-.89,8.25,8.25,0,0,0,1.068-.243A2.374,2.374,0,0,0,80.5,81.3a.282.282,0,0,0-.068-.545Zm1-3.8a.224.224,0,0,0-.074-.051,1.479,1.479,0,0,1-.646-.516,1.327,1.327,0,0,0-.275-.3c.24.012.48.023.719.029l.158,0a15.577,15.577,0,0,0,2.058-.032c.422-.046.845-.088,1.267-.123.446-.036.891-.084,1.335-.133.252-.026.5-.054.753-.079a15.867,15.867,0,0,1,1.742-.043l.3,0a14.664,14.664,0,0,1,1.883.156,10.256,10.256,0,0,0,1.764.082h.009l0,.013a4.277,4.277,0,0,0-.076,1.4v.009h0c-.816.074-1.632.226-2.42.373-.234.044-.467.088-.7.129-.642.115-1.3.194-1.94.269l-.362.044c-.317.038-.634.081-.951.124-.366.05-.731.1-1.1.142-.287.033-.572.077-.857.121a8.9,8.9,0,0,1-4.346-.219l-.248-.067a3.891,3.891,0,0,0,.78-.467,2.209,2.209,0,0,1,.824-.339c.1-.024.192-.048.288-.062a.3.3,0,0,0,.243-.233C81.578,77.14,81.59,77.033,81.434,76.963Zm13.9,8.1.464-.1a2.776,2.776,0,0,0,.253,1.708c.095.22.194.434.3.646a13.484,13.484,0,0,1-1.963-2.057C94.7,85.192,95.018,85.125,95.333,85.058Zm-1.169-.184h0c-.029.006-.039,0-.051-.014h0l-.045-.074a2.579,2.579,0,0,1-.292-.585.86.86,0,0,1-.027-.2l0-.03V83.96a.861.861,0,0,1,.267-.631,1.105,1.105,0,0,1,.6-.281,2.707,2.707,0,0,1,.418-.025A3.087,3.087,0,0,0,95.442,83a3.163,3.163,0,0,0,.356,1.119c.066.116.14.227.224.352-.193.044-.386.085-.58.126l-.525.111C94.666,84.762,94.415,84.815,94.164,84.874ZM96.039,80.8c-.066.09-.117.087-.241.054a2.538,2.538,0,0,0-.847-.042l-.067,0a5.973,5.973,0,0,0-1.612.317l-.018.006,0-.019a6.645,6.645,0,0,1-.2-.97s.007,0,.014,0L94,79.683l.755-.379a3.051,3.051,0,0,1,1.066-.246,11.834,11.834,0,0,1,1.683-.066c.452.013.452.013.511.451.006.049.013.1.014.129-.027.009-.077.019-.136.031A2.972,2.972,0,0,0,96.039,80.8Zm1.945-2.775a1.628,1.628,0,0,0-.075.574,4.609,4.609,0,0,0-.924-.049,10.693,10.693,0,0,0-1.872.177,3.626,3.626,0,0,0-.945.374l-.139.071q-.311.158-.619.318l-.292.151a4.118,4.118,0,0,0,.034-1.2,2.635,2.635,0,0,0-.174-.662,4.912,4.912,0,0,0,1.131-.421,3.149,3.149,0,0,1,1.047-.264c.611-.065,1.257-.106,1.977-.125a6.788,6.788,0,0,1,1.041.081l.11.014.033,0-.012.034C98.2,77.377,98.078,77.7,97.984,78.025ZM96.616,76.55l-.36.02a9.612,9.612,0,0,0-1.86.219,3.929,3.929,0,0,0-.679.262c-.125.058-.25.115-.379.164a2.381,2.381,0,0,1-.551.152,4.173,4.173,0,0,1,.046-1.231c.04-.217.04-.217.276-.263s.449-.09.673-.137c.361-.076.735-.154,1.1-.213a4.211,4.211,0,0,1,.648-.059l.116,0h.008a5.94,5.94,0,0,1,.888.057c.163.017.325.034.489.045.4.027.8.061,1.208.093l.514.042h.013l0,.015c-.094.306-.191.612-.3.914-.01.03-.016.035-.026.026A7.789,7.789,0,0,0,96.616,76.55Zm1.366-1.339c-.414-.034-.829-.068-1.242-.106l-.195-.019c-.293-.029-.6-.058-.9-.063a6.668,6.668,0,0,0-1.469.184l-.152.03c-.365.073-.731.146-1.1.225a2.851,2.851,0,0,0-.329-.973l-.014-.027c.517-.021,1.035-.084,1.536-.144l.223-.028c.255-.03.509-.066.763-.1.481-.068.978-.139,1.5-.169l.086,0a9.8,9.8,0,0,1,1.9.3.363.363,0,0,1,.312.332,1.67,1.67,0,0,1-.017.637s-.008,0-.035,0Q98.419,75.245,97.982,75.211Zm.81,16.737a3.456,3.456,0,0,0,.19-.764,2.681,2.681,0,0,0-.585-2.051,4.313,4.313,0,0,0-.76-.771,2.716,2.716,0,0,1-.623-.748,6.427,6.427,0,0,1-.777-1.736,1.786,1.786,0,0,1-.054-.373c-.006-.127,0-.256,0-.387a.607.607,0,0,1,.045-.173c.013-.036.026-.071.036-.107a.3.3,0,0,0,.049-.014,3.177,3.177,0,0,0,1.173.761.206.206,0,0,1,0,.051.354.354,0,0,0,0,.109,2.373,2.373,0,0,0,.251.924,3.088,3.088,0,0,0,.144.314c.2.34.434.665.658.979.167.232.333.466.5.721a15.635,15.635,0,0,1,.953,1.608,1.885,1.885,0,0,1,.208,1.1,1.636,1.636,0,0,1-.453.882,1.881,1.881,0,0,1-1.566.646A3.256,3.256,0,0,0,98.792,91.948Zm1.227-12.059-.012.019-.024-.011a2.982,2.982,0,0,0-1.356-.356H98.54c-.038,0-.066,0-.07,0a.817.817,0,0,1-.032-.164l-.009-.071a1.886,1.886,0,0,0-.069-.347s.007-.007.033-.018a2.308,2.308,0,0,1,1.567-.193l.582.145.113.028C100.437,79.24,100.227,79.564,100.019,79.889Zm.32-1.5-.144-.037a2.875,2.875,0,0,0-.729-.1,2.789,2.789,0,0,0-1.135.245,2.282,2.282,0,0,1,.155-.648L98.5,77.8c.047-.136.1-.271.148-.406.063-.167.125-.333.18-.5a.232.232,0,0,1,.179-.166,2.652,2.652,0,0,1,.7-.1l.1,0a5.658,5.658,0,0,1,1.316.16,2.511,2.511,0,0,1,.691.361l.011.008-.216.324c-.238.356-.476.712-.695,1.07a.341.341,0,0,1-.053-.016C100.69,78.484,100.515,78.439,100.339,78.394Zm.046-2.168c-.187-.018-.364-.027-.532-.027a4.077,4.077,0,0,0-.81.078c.076-.259.149-.519.224-.779l.044-.16a.36.36,0,0,1,.064-.023,3.165,3.165,0,0,1,.893-.105,3.95,3.95,0,0,1,1.7.417,3.45,3.45,0,0,1,.685.36l.01.008,0,0a9.615,9.615,0,0,0-.589.8A3.154,3.154,0,0,0,100.385,76.226Zm.733-1.344a3.527,3.527,0,0,0-.868-.106,4.422,4.422,0,0,0-.88.093,1.84,1.84,0,0,0-.524-1.182c-.023-.024-.045-.05-.066-.076l-.037-.043-.04-.046.067-.022c.244-.077.482-.176.713-.271l.157-.064c.027-.012.056-.022.085-.033l.035-.012a3.821,3.821,0,0,1,1.528.463,15.523,15.523,0,0,1,1.814,1.123c.085.062.164.131.243.2l.1.092c-.15.18-.3.365-.442.549l-.086.109A5.311,5.311,0,0,0,101.118,74.882ZM98,71.308a7.908,7.908,0,0,1,1.965.654c.181.078.361.162.545.249l.071.033-.066.033c-.028.013-.055.026-.081.04-.111.058-.224.112-.337.167-.08.039-.16.077-.24.117-.038.019-.044.024-.089-.01a4.177,4.177,0,0,0-1.43-.721,7.219,7.219,0,0,0-1.928-.256c-.139,0-.28,0-.422.012A3.375,3.375,0,0,1,98,71.308Zm-4.749,1.82c.056-.028.112-.056.169-.081a11.2,11.2,0,0,0,1.067-.575l.278-.162a2.074,2.074,0,0,1,.78-.21,7.61,7.61,0,0,1,2.468.117,3.7,3.7,0,0,1,1.335.6l-.128.051a5.724,5.724,0,0,1-.867.3.292.292,0,0,0-.234.17.288.288,0,0,0,.075.278c.056.069.117.132.181.2-.071-.018-.141-.034-.211-.048l-.142-.027a5.727,5.727,0,0,0-1.548-.153c-.353.027-.709.075-1.053.122l-.451.059c-.181.022-.363.046-.545.07-.585.078-1.191.158-1.789.183h-.043l0-.028a1.452,1.452,0,0,0-.064-.642A1.677,1.677,0,0,0,93.246,73.128Zm-.779,2.194.01.033c.032.123.037.152.041.147a.5.5,0,0,1-.167.024,11.245,11.245,0,0,1-2.137-.143,18.694,18.694,0,0,0-2.334-.1h-.162a14.851,14.851,0,0,0-1.659.124c-.219.024-.438.049-.657.07l-.4.037c-.431.039-.861.079-1.29.128a18.77,18.77,0,0,1-3.086.034l-.7-.032.473-.3a.379.379,0,0,1,.222-.079.24.24,0,0,0,.25-.184c.02-.046.048-.163-.117-.246a10.2,10.2,0,0,0-1.486-.806c.213-.04.42-.069.622-.1l.161-.022a2.849,2.849,0,0,0,.7-.158,1.663,1.663,0,0,1,.847-.058c.524.059,1.045.088,1.486.109l.509.025c1.075.054,2.189.112,3.283.091a11.951,11.951,0,0,1,2.542.318l.055.01a12.044,12.044,0,0,0,1.5.174c.4.029.762.046,1.13.051l.021,0c.043.117.1.23.149.343A2.509,2.509,0,0,1,92.467,75.322ZM81.56,71.3l.175.022c.329.039.652.082.965.126l.461.068.568.088.306.049c1.049.17,2.111.381,3.153.626.328.077.654.161.98.245s.681.175,1.023.255c.861.2,1.751.411,2.679.546.214.032.214.032.258.249a1.174,1.174,0,0,1,.032.421c0,.02-.006.03-.006.032a.038.038,0,0,1-.028,0,13.9,13.9,0,0,1-3.074-.313,11.712,11.712,0,0,0-2.53-.233c-1.23-.017-2.5-.063-3.879-.142-.349-.02-.7-.05-1.045-.08l-.414-.035a.751.751,0,0,1-.3-.118,1.872,1.872,0,0,0-.172-.09c-.536-.234-1.071-.473-1.606-.711l-.459-.2.276-.064a5.68,5.68,0,0,1,1.033-.1l.353-.016c.258-.013.518-.026.776-.028h0a.275.275,0,0,0,.255-.193c.027-.045.073-.163-.1-.275a2.524,2.524,0,0,0-.275-.183Q81.266,71.264,81.56,71.3ZM71.114,71.2c.139-.022.28-.045.42-.064a13.644,13.644,0,0,1,2.433-.09c1.306.056,2.579.094,3.785.114l.25,0c.6.009,1.2.019,1.808.015a.744.744,0,0,1,.309.111q.066.038.132.069c.088.041.172.081.255.123h-.051a9.6,9.6,0,0,0-1.364.075,6.608,6.608,0,0,0-.652.136c-.087.021-.176.043-.262.062a.189.189,0,0,0-.051.019.243.243,0,0,1-.04,0,.238.238,0,0,0-.245.208c-.024.195.135.27.238.319.34.176.7.33,1.041.478l.153.066c.2.086.4.173.593.261-.23-.02-.465-.044-.7-.075-.108-.015-.216-.025-.325-.035s-.21-.02-.314-.035c-.193-.026-.384-.061-.575-.1l-.367-.066c-.232-.038-.464-.1-.69-.154-.15-.037-.3-.075-.453-.108l-.34-.072c-.213-.045-.425-.089-.637-.137a8,8,0,0,0-1.08-.184,2.352,2.352,0,0,1-.763-.222l-.173-.078a3.819,3.819,0,0,0-.68-.262,1.584,1.584,0,0,0-.384-.038h-.27a3.328,3.328,0,0,1-.835-.109.713.713,0,0,1-.14-.063,1.06,1.06,0,0,0-.174-.079.854.854,0,0,0-.241-.039C70.857,71.244,70.986,71.224,71.114,71.2Zm-.212.549c.009,0,.017,0,.027.006a1.418,1.418,0,0,0,.481.167,4.731,4.731,0,0,0,.706.057c.157,0,.315.009.472.025a1.066,1.066,0,0,1,.239.056c-.1.009-.206.022-.31.039a4.8,4.8,0,0,0-1.191.414c-.1.046-.207.093-.311.137a1.016,1.016,0,0,0,.016-.148A2.392,2.392,0,0,0,70.9,71.752Zm-.529,1.295a.679.679,0,0,0-.109-.025,11.317,11.317,0,0,0-1.3-.119c-.065,0-.114,0-.162,0a1.53,1.53,0,0,1,1.919-.118A.972.972,0,0,0,70.373,73.047Zm3.915.607a1.238,1.238,0,0,0-.39-.1c-.212-.016-.425-.023-.634-.023-.339,0-.668.017-.966.035-.094,0-.189.013-.284.021s-.178.015-.268.02a1.472,1.472,0,0,1-.468-.078c-.077-.022-.156-.044-.235-.06-.053-.011-.1-.027-.157-.043a1.776,1.776,0,0,0-.177-.048l-.03-.008.015-.016a.733.733,0,0,1,.323-.226,3.551,3.551,0,0,0,.427-.186c.1-.049.2-.1.306-.14a3.37,3.37,0,0,1,1.286-.307,10.372,10.372,0,0,1,1.384.111c.4.061.783.127,1.143.2s.689.149,1.032.23l.153.036c.446.105.85.2,1.273.267.3.048.6.084.893.117.222.026.444.051.665.082l-.175.031c-.2.036-.4.071-.6.1a.887.887,0,0,0-.251.085.231.231,0,0,0-.151.205.266.266,0,0,0,.17.237c.141.067.284.13.426.192l.236.1c.314.142.623.312.922.48-.126.072-.244.153-.359.231a3.139,3.139,0,0,1-.558.327.446.446,0,0,1-.165.041L78.9,75.56a7.469,7.469,0,0,1-.9-.1c-.237-.047-.548-.112-.857-.191A7.2,7.2,0,0,1,76,74.859a5.5,5.5,0,0,1-.925-.516.966.966,0,0,1-.215-.2A1.479,1.479,0,0,0,74.288,73.654ZM70.625,75.82l.04-.021a10.154,10.154,0,0,1,1.273-.623,7.089,7.089,0,0,1,1.939-.506c.07-.006.14-.016.21-.026s.139-.02.21-.026a.991.991,0,0,1,.69.19A5.939,5.939,0,0,0,76.7,75.6a9.7,9.7,0,0,0,1.084.267c.369.068.743.1,1.105.137l.35.034a1.6,1.6,0,0,1,.9.394,1.991,1.991,0,0,1,.385.426.688.688,0,0,0,.272.242,2.631,2.631,0,0,0-.946.445,2.761,2.761,0,0,1-1.074.522.44.44,0,0,1-.217,0c-.25-.069-.5-.138-.747-.215-.319-.1-.638-.2-.953-.315-.41-.147-.82-.3-1.229-.459-.094-.036-.186-.081-.277-.126s-.171-.083-.258-.119a8.206,8.206,0,0,0-.842-.278l-.035-.01c-.269-.079-.557-.148-.854-.206-.108-.021-.217-.041-.326-.06-.144-.026-.287-.052-.43-.082-.126-.026-.253-.047-.38-.068-.158-.027-.315-.053-.472-.089-.249-.058-.5-.1-.694-.126-.148-.022-.294-.053-.444-.085Zm.344,2.238a.583.583,0,0,1-.107-.448,3.039,3.039,0,0,0-.155-1.13.833.833,0,0,0-.109-.21l.061.011c.326.062.653.123.979.186.241.047.483.09.725.132a16.715,16.715,0,0,1,1.957.427c.138.042.274.085.409.134-.466.1-.934.217-1.387.327l-.479.117a8.538,8.538,0,0,0-1.749.641Zm.881,1a5.039,5.039,0,0,1-.939-.2l-.034-.009a7.52,7.52,0,0,1,1.417-.636c.3-.1.614-.174.985-.262l.2-.047c.213-.049.426-.1.635-.161.12-.036.243-.061.367-.086l.171-.036.19-.044c.15-.036.291-.07.437-.09a.958.958,0,0,1,.515.118c.064.026.128.053.194.076.159.055.316.113.473.171.277.1.564.208.854.295a4.328,4.328,0,0,1,.424.159c.121.051.243.1.368.144a3.191,3.191,0,0,1,1.106.739l.034.029a2.1,2.1,0,0,0,.358.277,3.906,3.906,0,0,1-.98.506,2.613,2.613,0,0,1-.4.083c-.091.014-.183.029-.272.049a7.157,7.157,0,0,1-.753.111l-.321.038a3.5,3.5,0,0,1-.471.025c-.115,0-.234,0-.351,0h-.117a5.015,5.015,0,0,1-1.379-.183,2.551,2.551,0,0,1-.643-.31l-.113-.068a5.652,5.652,0,0,0-1.08-.51A4.312,4.312,0,0,0,71.85,79.058Zm7.344,1.173a.071.071,0,0,1-.026.028l-.061-.108h0Zm-4.639,1.557-.256-.132a1.228,1.228,0,0,0-.466-.12c-.058,0-.115-.006-.173-.006-.167,0-.332.016-.493.031a5.028,5.028,0,0,1-.51.029,2.289,2.289,0,0,1-.525-.092l-.119-.03-.205-.051c-.169-.044-.344-.089-.523-.118-.225-.037-.447-.091-.654-.144a.719.719,0,0,0-.076-.014c.085-.045.167-.094.246-.141l.134-.079c.123-.07.241-.15.359-.231a4,4,0,0,1,.451-.278,2.325,2.325,0,0,1,1.364-.268,1.251,1.251,0,0,1,.236.062,1.552,1.552,0,0,0,.28.072,2.464,2.464,0,0,1,.578.173,3.293,3.293,0,0,0,.517.169,7.3,7.3,0,0,0,1.508.129,7.208,7.208,0,0,0,1.3-.09c.132-.025.264-.048.4-.071.244-.043.489-.087.733-.138a.6.6,0,0,1,.54.246,1.165,1.165,0,0,0,.615.4c-.26.076-.527.132-.788.187l-.081.016a1.592,1.592,0,0,1-.251.027c-.048,0-.1.006-.143.011a.29.29,0,0,0-.247.134.276.276,0,0,0,.047.265,1.862,1.862,0,0,0,.384.393l.05.041c.134.113.272.222.41.331l.23.183-.069,0a11.067,11.067,0,0,1-1.45-.043c-.421-.034-.833-.071-1.233-.144a5.273,5.273,0,0,0-.621-.082,1.714,1.714,0,0,1-.571-.183l-.153-.068C75.067,82.053,74.807,81.918,74.555,81.788ZM70.4,84.84l.17-.145c.167-.142.34-.289.5-.447a3.383,3.383,0,0,1,.808-.544c.276-.146.567-.285.864-.412a10.334,10.334,0,0,1,.993-.349,4.575,4.575,0,0,1,1.825-.115c.1.01.2.017.3.025.179.013.363.027.539.056.227.038.455.064.683.09.164.019.329.038.493.061.26.037.53.052.768.065.273.015.548.013.812.01.153,0,.305,0,.456,0a.517.517,0,0,0,.176-.024c-.093.11-.194.212-.3.319l-.045.046a1.3,1.3,0,0,0-.22.3.3.3,0,0,0-.022.256.292.292,0,0,0,.189.164,4.777,4.777,0,0,0,1.188.237c-.469.3-.965.563-1.446.821l-.036.019c-.5.268-.89.467-1.257.645a1.819,1.819,0,0,1-.6.184l-.137.015a3.841,3.841,0,0,1-.8.036,4.3,4.3,0,0,1-.781-.137c-.281-.077-.564-.148-.848-.216-.175-.042-.351-.082-.526-.122l-.351-.08-.426-.1-.46-.109c-.14-.032-.28-.062-.421-.091l-.436-.1c-.166-.038-.331-.076-.5-.1-.042-.006-.083-.017-.124-.027a1.068,1.068,0,0,0-.273-.044h-.039c-.018.011-.067-.015-.111-.033a.66.66,0,0,0-.182-.053,2.266,2.266,0,0,1-.361-.081Zm.219.492,2.031.455q.781.175,1.564.353c.1.022.2.045.3.072l-.04.006-.134.02a14.4,14.4,0,0,0-2.739.66,4.2,4.2,0,0,0-.641.305l.013-.076c.009-.057.02-.113.031-.169a2.4,2.4,0,0,0,.061-.567A1.731,1.731,0,0,0,70.617,85.332ZM71.776,87.3a9.808,9.808,0,0,1,1.5-.417l.426-.08.532-.1c.1-.019.2-.034.295-.049a2.572,2.572,0,0,0,.835-.226c.04-.021.094,0,.18.034a.943.943,0,0,0,.142.047,3.444,3.444,0,0,0,1.28.062c.063-.009.128-.014.192-.019a1.5,1.5,0,0,0,.409-.068l.042-.015a.784.784,0,0,0,.133-.053.678.678,0,0,1,.544.035,4.831,4.831,0,0,0,.545.128l.13.025c.281.057.566.092.842.126l.272.035a6.823,6.823,0,0,0,1.164.08c-.153.245-.319.467-.48.683l-.055.076-.238.317c-.148.2-.3.393-.437.6a.585.585,0,0,1-.341.188c-.255.081-.513.154-.772.228-.168.048-.336.1-.5.146a15.931,15.931,0,0,1-1.615.381,6.045,6.045,0,0,1-1.406.136.348.348,0,0,1-.135-.033c-.51-.236-1.028-.423-1.422-.559l-.332-.12c-.2-.072-.4-.145-.6-.207l-.276-.089a7.9,7.9,0,0,0-.8-.232,7.991,7.991,0,0,0-1.343-.177A2.807,2.807,0,0,1,71.776,87.3Zm-1.154,1.33a5,5,0,0,1,1.107.162c.7.2,1.384.461,2.05.716l.138.052c.133.051.267.1.4.157-.272.05-.555.118-.857.2-.718.207-1.408.46-2.046.715v-.028c0-.025,0-.042,0-.059l-.009-.121c-.007-.1-.013-.2-.029-.3A2.431,2.431,0,0,0,70.622,88.633Zm4.235,3.606-.21-.063c-.383-.115-.78-.234-1.176-.333l-.165-.042c-.307-.078-.615-.155-.924-.224-.2-.046-.41-.08-.616-.114-.171-.029-.342-.058-.512-.093a2.414,2.414,0,0,0-.309-.038l-.038,0c.422-.178.816-.33,1.131-.45.395-.15.717-.266,1.012-.363.183-.06.369-.11.555-.161.139-.037.278-.076.416-.117a5.083,5.083,0,0,1,1.234-.161c.119-.006.238-.012.357-.02a10.139,10.139,0,0,0,1.475-.2l.225-.049c.314-.069.629-.137.94-.215.339-.084.678-.187,1-.287l.059-.018c.354-.109.708-.224,1.06-.342l.175-.057a4.426,4.426,0,0,0,.558-.207.445.445,0,0,1,.464.052A2.6,2.6,0,0,1,81.93,89c.047.04.094.08.142.119a2.117,2.117,0,0,0,.31.213l-.188.134a4.464,4.464,0,0,1-.828.512.333.333,0,0,1-.092.023.223.223,0,0,0-.215.244.245.245,0,0,0,.085.182.218.218,0,0,0,.172.046,1.771,1.771,0,0,1,.518.044l.156.027a4.384,4.384,0,0,1,.589.15l.075.023c.018.006.04.06.063.119.044.112.085.224.126.336l-.153.021c-.308.041-.626.085-.94.107-.216.015-.432.049-.641.081-.109.016-.218.034-.328.048s-.217.031-.325.048c-.127.019-.253.039-.381.055-.166.02-.331.054-.495.088-.1.022-.207.043-.312.061-.271.047-.539.117-.8.185l-.033.009a8.477,8.477,0,0,0-1.047.332,6.2,6.2,0,0,0-1.011.484c-.082.053-.2.01-.376-.066A10.868,10.868,0,0,0,74.857,92.239Zm8.99,1.368c-.037.07-.1.091-.208.12a1.113,1.113,0,0,0-.131.042c-.586.237-1.176.466-1.768.692-.222.086-.445.167-.668.249s-.42.153-.629.233c-.188.071-.377.14-.565.208-.222.08-.443.16-.663.245s-.432.151-.647.217c-.163.051-.327.1-.488.158-.305.108-.623.194-.932.278l-.169.046a1.943,1.943,0,0,1-.543.065c-.424-.01-.848.02-1.258.049-.175.012-.349.025-.523.034l-.223.013c-.22.014-.451.028-.723.03h-.015a3.611,3.611,0,0,1-.924-.068,6.732,6.732,0,0,1-1.348-.367c-.2-.076-.394-.168-.583-.257a8.22,8.22,0,0,0-.795-.335,1.612,1.612,0,0,1,.3-.486,2.431,2.431,0,0,1,1.029-.681,6.66,6.66,0,0,1,.7-.208l.425-.113c.18-.049.361-.1.542-.144s.337-.083.506-.123l.267-.064.672-.159.168-.039a4.648,4.648,0,0,1,.53-.107c.067-.008.133-.019.2-.03a2.072,2.072,0,0,1,.449-.04.532.532,0,0,1,.133.029c.038.011.076.022.116.03a1.2,1.2,0,0,0,.85-.224,3.458,3.458,0,0,1,.574-.251c.11-.041.221-.082.329-.128a3.764,3.764,0,0,1,.539-.169c.111-.03.223-.059.333-.094a4.383,4.383,0,0,1,.476-.108l.134-.025c.158-.031.316-.06.475-.089l.4-.074c.076-.014.153-.022.23-.031s.133-.014.2-.024l.09-.014c.166-.025.333-.05.5-.071.15-.019.3-.034.452-.05.261-.026.531-.054.8-.1a1.82,1.82,0,0,1,.195-.023,1.638,1.638,0,0,0,.338-.054c.059-.019.112.013.219.081l.042.026a8.285,8.285,0,0,0,1.313.719A13.208,13.208,0,0,0,83.847,93.607Zm6.076-2.619-.087.023a17.34,17.34,0,0,0-2.5,1.064c-.209.1-.417.2-.627.3-.7.334-1.455.686-2.235,1.01A5.343,5.343,0,0,1,85,92.575a.353.353,0,0,0,.118-.311c-.031-.11-.142-.161-.258-.2a5.545,5.545,0,0,1-1.079-.545l-.212-.126c-.019-.012-.039-.023-.057-.037l-.016-.011.011-.006c.579-.289,1.187-.545,1.775-.793q.294-.123.587-.249c.714-.306,1.432-.606,2.149-.906l.455-.191.105-.042c.012.027.027.07.043.113a3.573,3.573,0,0,0,1.229,1.6l.124.1Zm-.523-1.18a2.791,2.791,0,0,1-.534-1.455c-.006-.053-.012-.1-.019-.159a2.341,2.341,0,0,1-.027-.423h0A4.3,4.3,0,0,1,90.266,84.6a8.4,8.4,0,0,1,.825-.631c.036-.025.068-.05.1-.075a4.368,4.368,0,0,0,.5,2.029c.031.062.031.062-.023.107a2.76,2.76,0,0,0-.82,1.181,1.581,1.581,0,0,0,.238,1.533,2.827,2.827,0,0,0,2.167,1.213,2.942,2.942,0,0,0,.376-.02c.079-.006.157,0,.237-.013A5.867,5.867,0,0,0,94.5,89.8c.2-.049.393-.108.588-.166a8.173,8.173,0,0,1,.971-.248.992.992,0,0,1,1.2.735.829.829,0,0,1-.155.68,1.194,1.194,0,0,1-.487.453,3.861,3.861,0,0,1-1.063.452,4.282,4.282,0,0,1-1.9-.007,9.759,9.759,0,0,0-1.713-.259,2.384,2.384,0,0,1-.9-.313A4.684,4.684,0,0,1,89.4,89.808Zm6.734,5.868a10.83,10.83,0,0,1-1.6.406c-.361.062-.739.113-1.137.151l-.13.006h-.013l-.077,0c-.146.006-.292.013-.464.019a.565.565,0,0,0-.08,0,.159.159,0,0,0-.02.007.174.174,0,0,0-.059.018l-.192,0a3.4,3.4,0,0,0-.55.019h0a.332.332,0,0,1-.044.006c.24-.1.484-.206.738-.318.119-.053.237-.109.354-.164.16-.075.319-.15.481-.218a.281.281,0,0,0,.178-.339c0-.009-.012-.01-.015-.019a.164.164,0,0,0-.074-.091.208.208,0,0,0-.052-.013.234.234,0,0,0-.068-.018.549.549,0,0,0-.1.01,2.322,2.322,0,0,1-.524.016,3.357,3.357,0,0,1-1.4-.5c.256.019.506.025.744.029h.026a7.171,7.171,0,0,0,1.422-.114c.045-.008.1-.01.14-.02a.513.513,0,0,1,.166,0,1.711,1.711,0,0,1,.176.035c.049.011.1.022.145.03.305.054.61.117.914.18.2.042.4.083.605.122.335.065.646.118.937.16.088.013.165.018.249.028.195.025.392.051.574.065A8.737,8.737,0,0,1,96.134,95.676Zm5.813-3.893a2.7,2.7,0,0,1-.525,1.5,3.547,3.547,0,0,1-1.753,1.294,3.653,3.653,0,0,1-.568.139,6.515,6.515,0,0,1-1.541.036l-.079-.005a7.55,7.55,0,0,1-1.106-.139c-.128-.026-.259-.046-.389-.065l-.12-.018c-.174-.027-.347-.064-.52-.1l-.491-.1c-.148-.029-.3-.058-.445-.09-.183-.041-.368-.071-.554-.1-.1-.017-.2-.033-.3-.051-.224-.04-.448-.074-.672-.109l-.2-.031-.506-.083-.509-.083-.038-.006c-.118-.018-.236-.036-.353-.052s-.257-.041-.385-.064c-.158-.029-.317-.059-.477-.076-.191-.021-.385-.06-.575-.1A6.146,6.146,0,0,1,91.132,93a.243.243,0,0,0,.063-.471c-.3-.146-.618-.271-.923-.392l-.174-.07c-.069-.027-.138-.053-.208-.078.043-.007.086-.012.131-.017l.09-.011a9.658,9.658,0,0,1,1.66-.1,7.574,7.574,0,0,1,1.122.129c.116.022.233.042.35.062.231.04.47.081.7.139.312.08.643.166.971.268l.109.033c.331.1.673.208,1,.33a11.5,11.5,0,0,0,1.213.4,3.61,3.61,0,0,0,1.316.131,2.342,2.342,0,0,0,1.972-1.527,1.864,1.864,0,0,0,.042-1.195,4.767,4.767,0,0,0-.619-1.3l-.049-.082c-.259-.424-.548-.87-.886-1.364-.087-.127-.176-.251-.265-.376-.13-.179-.259-.359-.379-.545a2.236,2.236,0,0,1-.456-1.275,2.418,2.418,0,0,0,.856.054,1.356,1.356,0,0,1,.143-.009,1.036,1.036,0,0,0,.366-.064l0,.01c.126.289.258.576.393.861a5.448,5.448,0,0,0,.573.9,14.014,14.014,0,0,1,1.187,1.8,3.234,3.234,0,0,1,.319.741l.026.1c.049.2.1.413.131.623A6.282,6.282,0,0,1,101.947,91.783Zm-10.806.861Zm12.341-13.28h-.435c-.241,0-.31.036-.339.305-.036.343-.075.686-.114,1.029l-.083.734c0,.018-.005.025-.024.037l-.907.578,0-.006c-.039-.127-.078-.25-.106-.375a.749.749,0,0,0-.1-.254.485.485,0,0,1-.044-.363c.037-.259.072-.518.108-.777.089-.663.182-1.348.3-2.017,0-.024.007-.049.009-.076.008-.082.014-.1.035-.112a.651.651,0,0,1,.246-.035c.152,0,.3,0,.456,0a6.8,6.8,0,0,1,.767.021,2.01,2.01,0,0,0,.569-.028.279.279,0,0,0,.167-.328c-.029-.232-.06-.463-.091-.694s-.06-.448-.089-.671c-.016-.128-.031-.255-.046-.382-.017-.144-.034-.288-.053-.457l.014,0a5.916,5.916,0,0,1,.75-.065l.209-.01c.244-.014.489-.019.734-.024.18,0,.36-.008.54-.015a.71.71,0,0,1,.445.1l.159.1a10.4,10.4,0,0,1,1.051.7l.021.018a.168.168,0,0,1-.012.047c-.044.123-.1.157-.237.147a16.709,16.709,0,0,0-1.816.065,1.463,1.463,0,0,0-.207.038.275.275,0,0,0-.22.32l.057.491c.052.447.1.894.153,1.342.013.119.019.24.026.36,0,.078.008.156.014.259h-.016C104.737,79.359,104.11,79.362,103.482,79.364Zm1.084,8.523c-.02.048-.04.1-.057.144a.564.564,0,0,1-.29.322.916.916,0,0,1-.153.066,1.782,1.782,0,0,1,.494-.794l.082-.081.026-.026A1,1,0,0,1,104.566,87.887Zm4.955.1a.388.388,0,0,1,.1.061.472.472,0,0,1,0,.258h0a.445.445,0,0,1-.046-.008,1.578,1.578,0,0,1-.661-.232c-.16-.119-.254-.031-.288.012a.2.2,0,0,0-.021.193.274.274,0,0,0,.083.109,2.665,2.665,0,0,0,.315.207c.362.2.4.219.413.4.009.08.01.181.011.317a1.133,1.133,0,0,1-.115.616.654.654,0,0,1-.779.26,1.767,1.767,0,0,1-.642-.328,1.255,1.255,0,0,0,.382-.835c0-.031.009-.05.025-.063a.182.182,0,0,0,0-.349c-.086-.04-.172-.075-.28-.121a.231.231,0,0,0-.091-.021.16.16,0,0,0-.136.078.186.186,0,0,0,.034.232.063.063,0,0,1,.021.046.4.4,0,0,1-.015.1.941.941,0,0,1-.167.347c-.094.12-.243.237-.567.093a9.383,9.383,0,0,1-1.695-.907.6.6,0,0,1-.171-.179.446.446,0,0,1-.035-.11l-.009-.038a.669.669,0,0,0-.028-.079L105.156,88l0,0-.012-.057-.01-.041c-.02-.1-.046-.19-.072-.285l-.039-.149a.189.189,0,0,0-.079-.128.154.154,0,0,0-.074-.023,1.142,1.142,0,0,0,.188-.3,1.272,1.272,0,0,0,.082-.668,1.687,1.687,0,0,0-.234-.615c-.138-.23-.294-.451-.445-.664-.165-.233-.336-.474-.479-.724a2.857,2.857,0,0,1-.282-.659,2.626,2.626,0,0,1,.261-1.98,1.577,1.577,0,0,1,1.188-.787,2.74,2.74,0,0,1,2.6.831,1.877,1.877,0,0,1,.347.5l.012.035.018.036v0l.008.012a.174.174,0,0,0,.238.045.181.181,0,0,0,.088-.23.478.478,0,0,0-.048-.085,6.357,6.357,0,0,0-.7-1.058.646.646,0,0,0-.058-.06.278.278,0,0,1-.036-.037h0a1.7,1.7,0,0,0,0-.175,1,1,0,0,1,.014-.248h.043c.143.008.3.013.435.013l.006.017a.213.213,0,0,0-.156.232.207.207,0,0,0,.231.176.1.1,0,0,1,.1.06,3.341,3.341,0,0,0,1.093,1.083l.047.039.039.032a.617.617,0,0,1,.121.117l0,.006.009.016c-.012.01-.03.021-.043.03a.548.548,0,0,0-.1.08,4.074,4.074,0,0,0-.678,1.133l-.024.055c-.019-.007-.042-.016-.064-.026a5.919,5.919,0,0,0-1.14-.363,1.162,1.162,0,0,0-.216-.021.517.517,0,0,0-.524.415.559.559,0,0,0,.037.365.541.541,0,0,0,.282.243l.075.028a9.507,9.507,0,0,0,1.1.371l.076.023q.06.017.033.024a.56.56,0,0,0-.034.179c0,.031-.007.082-.009.091a.634.634,0,0,1-.111-.029.888.888,0,0,0-.142-.039,4.18,4.18,0,0,0-1.263-.053.485.485,0,0,0-.421.477.531.531,0,0,0,.057.314.509.509,0,0,0,.236.215,2.739,2.739,0,0,0,.858.2c.087.01.176.02.264.033a3.024,3.024,0,0,0,.375.032,2,2,0,0,0-.005.326l-.257-.018a8.723,8.723,0,0,0-1-.036.583.583,0,0,0-.458.216.565.565,0,0,0-.083.487.464.464,0,0,0,.392.347,5.715,5.715,0,0,0,1.337.15c.184,0,.184,0,.24.194a.346.346,0,0,0,.023.066.145.145,0,0,1,.008.033c.042.187.15.192.213.18a.209.209,0,0,0,.135-.094.331.331,0,0,0,.024-.253c-.006-.028-.012-.055-.017-.083a.5.5,0,0,0,.117.074l.03.015a.184.184,0,0,0,.035.226.224.224,0,0,0,.211.045A.548.548,0,0,1,109.521,87.986Zm-1.61.719.007-.02c.006.006,0,.014.009.02Zm.042-.117h0v0ZM111.077,84a2.416,2.416,0,0,0-.956.447,3.708,3.708,0,0,0-1.236,2.073,2.484,2.484,0,0,0-.053.71.4.4,0,0,0-.1.1c-.011-.092-.021-.188-.03-.287a5.807,5.807,0,0,1,.081-1.545,7.492,7.492,0,0,1,.674-2.153.823.823,0,0,1,.263-.337.219.219,0,0,1,.114-.04.149.149,0,0,1,.036,0,.2.2,0,0,1,.111.113c.036.078.075.155.114.231.029.06.059.119.088.178a.591.591,0,0,0,.571.343c.074-.012.153,0,.229-.011l.02,0a.226.226,0,0,0,.1.165Zm1.735-.531a.068.068,0,0,1-.042.014,4.819,4.819,0,0,1-1.335-.049,2,2,0,0,0-.358-.035,1.425,1.425,0,0,0-.208.014c-.214.03-.246.008-.348-.191a3.369,3.369,0,0,1-.244-.572,2.145,2.145,0,0,0-.99-1.195,2.153,2.153,0,0,1-.57-.608.846.846,0,0,0-.111-.136l.377-1.263a.207.207,0,0,0,.011-.167.184.184,0,0,0-.319-.026.446.446,0,0,0-.034.074,7.248,7.248,0,0,0-.306.7.346.346,0,0,0-.2-.07,1.748,1.748,0,0,0,0-.274.253.253,0,0,0,0-.053.959.959,0,0,0-.082-.293c.027-.012.054-.025.079-.039a.372.372,0,0,0,.145-.208.26.26,0,0,0-.032-.269c-.119-.122-.252-.032-.322.013q-.812.413-1.619.827c.23-.278.437-.571.639-.858.133-.188.265-.376.4-.559.118-.156.228-.319.338-.482.129-.19.261-.386.4-.566.014-.016.027-.035.041-.054s.022-.031.033-.047l.006.033a.708.708,0,0,0,.019.092,8.691,8.691,0,0,1,.239,1.057.309.309,0,0,0,.273.274,3.911,3.911,0,0,1,1.642.846l-.049.031a4.2,4.2,0,0,0-.515.365,2.336,2.336,0,0,0-.445.47.66.66,0,0,0-.1.261.6.6,0,0,0,.385.653l.046-.116h0l-.02.146a.658.658,0,0,0,.458.552.8.8,0,0,0,.111.316.553.553,0,0,0,.388.286.542.542,0,0,0,.449-.126,4.147,4.147,0,0,1,.966-.67l.043-.02a.211.211,0,0,1,.025.036,7.441,7.441,0,0,1,.661,1.4,1.343,1.343,0,0,1,.085.432A.091.091,0,0,1,112.812,83.468Z" fill="#7ee6ff"/></g></svg>