<svg xmlns="http://www.w3.org/2000/svg" xmlns:xlink="http://www.w3.org/1999/xlink" viewBox="0 0 652 259.204">
    <defs>
        <style>.a{fill:#fff;}.b,.c,.d,.e,.f{opacity:0.4;}.b{fill:url(#a);}.c{fill:url(#b);}.d{fill:url(#c);}.e{fill:url(#d);}.f{fill:url(#e);}
        </style>
        <linearGradient id="a" x1="0.499" y1="1" x2="0.499" gradientUnits="objectBoundingBox">
            <stop offset="0" stop-color="#fff" stop-opacity="0"/>
            <stop offset="1" stop-color="#fff"/>
        </linearGradient>
        <linearGradient id="b" x1="0.492" y1="1" x2="0.492" y2="0" xlink:href="#a"/>
        <linearGradient id="c" x1="0.502" y1="1" x2="0.502" y2="-0.001" xlink:href="#a"/>
        <linearGradient id="d" x1="0.495" y1="1" x2="0.495" y2="-0.001" xlink:href="#a"/>
        <linearGradient id="e" x1="0.504" y1="1" x2="0.504" y2="-0.001" xlink:href="#a"/>
    </defs>
    <g transform="translate(0 232.709)">
        <path class="a" d="M10.694,158.809,21.388,146.2v24.42H16.6V158.49l-5.906,7.342L4.788,158.49v12.13H0V146.2Z" transform="translate(0 -145.562)"/>
        <path class="a" d="M50.724,158.692a10.947,10.947,0,0,1-11.492,11.492,10.829,10.829,0,0,1-7.98-3.033,11.059,11.059,0,0,1-3.352-8.459,11.309,11.309,0,0,1,1.6-6.225,12.34,12.34,0,0,1,4.15-3.99,10.706,10.706,0,0,1,5.586-1.277,13.684,13.684,0,0,1,4.309.8,12.6,12.6,0,0,1,3.671,2.234,8.925,8.925,0,0,1,2.554,3.671A11.662,11.662,0,0,1,50.724,158.692Zm-18.036,0q0,3.591,1.915,5.267a7.191,7.191,0,0,0,4.788,1.915,6.5,6.5,0,0,0,4.788-1.915,8.2,8.2,0,0,0,0-10.534,6.392,6.392,0,0,0-4.629-1.915,6.5,6.5,0,0,0-4.788,1.915A6.633,6.633,0,0,0,32.688,158.692Z" transform="translate(16.631 -144.965)"/><path class="a" d="M56.76,147.4h8.3a10.022,10.022,0,0,1,7.98,3.352,11.55,11.55,0,0,1,2.873,7.821,11.959,11.959,0,0,1-2.873,7.98Q70.167,169.9,64.9,169.9H56.6V147.4Zm4.629,18.036H64.9a5.543,5.543,0,0,0,4.629-2.075,7.381,7.381,0,0,0,1.6-4.948,6.375,6.375,0,0,0-1.756-4.788,5.9,5.9,0,0,0-4.629-1.915H61.229v13.726Z" transform="translate(33.738 -144.846)"/>
        <path class="a" d="M96.926,147.46v4.15H87.988v4.469h8.3v4.15h-8.3v5.107h9.1v4.309H83.2V147.3H96.926Z" transform="translate(49.594 -144.906)"/>
        <path class="a" d="M120.167,161.605l5.427,8.14h-5.586l-4.629-7.342h-3.99v7.342H106.6V147.4h9.577a7.817,7.817,0,0,1,5.746,2.234A7.461,7.461,0,0,1,124,155.061a6.363,6.363,0,0,1-1.117,3.831A5.02,5.02,0,0,1,120.167,161.605Zm-8.778-3.192h4.788a3.352,3.352,0,1,0,0-6.7h-4.788Z" transform="translate(63.542 -144.846)"/>
        <path class="a" d="M151.334,171.937l-14.046-14.365v12.769H132.5V146.4l14.046,14.365V148.156h4.788Z" transform="translate(78.981 -145.442)"/>
        <path class="a" d="M190.08,167.028h-9.257l-1.756,3.671H173.8l11.651-24.9L197.1,170.7h-5.267ZM185.451,155.7l-3.033,7.342h6.225Z" transform="translate(103.599 -145.8)"/>
        <path class="a" d="M207.788,169.745H203V147.4h4.788Z" transform="translate(121.005 -144.846)"/>
        <path class="a" d="M236.067,161.605l5.427,8.14h-5.586l-4.629-7.342h-3.99v7.342H222.5V147.4h9.576a7.817,7.817,0,0,1,5.746,2.234,7.461,7.461,0,0,1,2.075,5.427,6.363,6.363,0,0,1-1.117,3.831A5.605,5.605,0,0,1,236.067,161.605Zm-8.778-3.192h4.788a3.352,3.352,0,1,0,0-6.7h-4.788Z" transform="translate(132.629 -144.846)"/>
        <path class="a" d="M264.5,158.692a11.06,11.06,0,0,1,3.352-8.459,11.345,11.345,0,0,1,7.98-3.033,11.465,11.465,0,0,1,6.7,2.075,8.649,8.649,0,0,1,3.671,5.906h-4.629a5.65,5.65,0,0,0-5.746-3.671,6.5,6.5,0,0,0-4.788,1.915,6.89,6.89,0,0,0-1.756,5.107,7.485,7.485,0,0,0,1.756,4.948,6.07,6.07,0,0,0,4.788,2.075,6.611,6.611,0,0,0,3.671-.958,4.606,4.606,0,0,0,2.075-3.033h4.629a8.975,8.975,0,0,1-3.671,6.225,11.127,11.127,0,0,1-6.7,2.075,13.036,13.036,0,0,1-7.98-2.873,9.516,9.516,0,0,1-2.554-3.511A13.619,13.619,0,0,1,264.5,158.692Z" transform="translate(157.664 -144.965)"/>
        <path class="a" d="M314.524,158.692a10.947,10.947,0,0,1-11.492,11.492,10.829,10.829,0,0,1-7.98-3.033,11.059,11.059,0,0,1-3.352-8.459,11.309,11.309,0,0,1,1.6-6.225,12.34,12.34,0,0,1,4.15-3.99,13.046,13.046,0,0,1,5.586-1.277,13.684,13.684,0,0,1,4.309.8,12.6,12.6,0,0,1,3.671,2.234,8.925,8.925,0,0,1,2.554,3.671A11.662,11.662,0,0,1,314.524,158.692Zm-18.036,0q0,3.591,1.915,5.267a7.191,7.191,0,0,0,4.788,1.915,6.5,6.5,0,0,0,4.788-1.915,8.2,8.2,0,0,0,0-10.534,6.392,6.392,0,0,0-4.629-1.915,6.5,6.5,0,0,0-4.788,1.915A6.633,6.633,0,0,0,296.488,158.692Z" transform="translate(173.878 -144.965)"/>
        <path class="a" d="M331.194,158.809,341.888,146.2v24.42H337.1V158.49l-5.906,7.342-5.906-7.342v12.13H320.5V146.2Z" transform="translate(191.045 -145.562)"/>
        <path class="a" d="M365.7,154.1a4.5,4.5,0,0,1-.638,2.394,4.246,4.246,0,0,1-1.6,1.756,5.055,5.055,0,0,1,3.192,4.948,6.022,6.022,0,0,1-1.915,4.788,7.756,7.756,0,0,1-5.267,1.756H349.1V147.4h9.417a7.615,7.615,0,0,1,5.107,1.756A6.178,6.178,0,0,1,365.7,154.1Zm-7.5-2.554h-4.309v5.107H358.2a2.544,2.544,0,0,0,1.915-.638,2.286,2.286,0,0,0,.8-1.756,2.544,2.544,0,0,0-.638-1.915A2.757,2.757,0,0,0,358.2,151.55Zm.8,8.938h-5.107V165.6h5.267a2.469,2.469,0,0,0,2.713-2.394,2.678,2.678,0,0,0-.958-2.234A3.4,3.4,0,0,0,359,160.488Z" transform="translate(208.093 -144.846)"/>
        <path class="a" d="M388.68,167.028h-9.257l-1.756,3.671H372.4l11.651-24.9L395.7,170.7h-5.267ZM384.051,155.7l-3.033,7.342h6.225Z" transform="translate(221.981 -145.8)"/>
        <path class="a" d="M404.005,151.55H398.1V147.4h16.6v4.15h-5.906v18.2h-4.629v-18.2Z" transform="translate(237.301 -144.846)"/>
    </g>
    <g transform="translate(282.347)">
        <path class="a" d="M184.242,0l-2.075,4.788-5.267,7.98,5.267-.638,2.075-4.15,2.075,4.15,5.267.638-5.267-7.98Z" transform="translate(-176.9)"/>
        <path class="a" d="M195.7,15l-2.235,4.788-5.267,7.98,5.267-.479L195.7,22.98l2.075,4.309,5.267.479-5.267-7.98Z" transform="translate(-170.164 8.941)"/>
        <path class="a" d="M206.942,31l-2.075,4.788-5.267,7.98,5.267-.479,2.075-4.15,2.075,4.15,5.267.479-5.267-7.98Z" transform="translate(-163.369 18.479)"/>
        <path class="a" d="M218.4,47l-2.235,4.948L210.9,59.769l5.267-.479,2.235-4.15,2.075,4.15,5.267.479-5.267-7.821Z" transform="translate(-156.633 28.016)"/>
        <path class="a" d="M229.642,63l-2.075,4.948L222.3,75.769l5.267-.479,2.075-4.15,2.235,4.15,5.107.479-5.107-7.821Z" transform="translate(-149.838 37.553)"/>
        <path class="b" d="M188.077,173.729H178.5L183.288,6.3Z" transform="translate(-175.946 3.755)"/>
        <path class="c" d="M199.477,165.286H189.9L194.688,21Z" transform="translate(-169.151 12.518)"/>
        <path class="d" d="M210.776,155.37H201.2L205.988,37.1Z" transform="translate(-162.415 22.115)"/>
        <path class="e" d="M222.177,145.832H212.6L217.388,53.1Z" transform="translate(-155.62 31.652)"/>
        <path class="f" d="M233.477,136.3H223.9l4.788-67.2Z" transform="translate(-148.884 41.189)"/>
    </g>
</svg>