<?xml version="1.0" encoding="UTF-8" standalone="no"?>
<svg
   xmlns:dc="http://purl.org/dc/elements/1.1/"
   xmlns:cc="http://creativecommons.org/ns#"
   xmlns:rdf="http://www.w3.org/1999/02/22-rdf-syntax-ns#"
   xmlns:svg="http://www.w3.org/2000/svg"
   xmlns="http://www.w3.org/2000/svg"
   xmlns:sodipodi="http://sodipodi.sourceforge.net/DTD/sodipodi-0.dtd"
   xmlns:inkscape="http://www.inkscape.org/namespaces/inkscape"
   width="11"
   height="11"
   viewBox="0 0 11 11"
   version="1.1"
   id="svg16"
   sodipodi:docname="news_hide.svg"
   inkscape:version="0.92.4 (5da689c313, 2019-01-14)">
  <metadata
     id="metadata20">
    <rdf:RDF>
      <cc:Work
         rdf:about="">
        <dc:format>image/svg+xml</dc:format>
        <dc:type
           rdf:resource="http://purl.org/dc/dcmitype/StillImage" />
      </cc:Work>
    </rdf:RDF>
  </metadata>
  <sodipodi:namedview
     pagecolor="#ffffff"
     bordercolor="#666666"
     borderopacity="1"
     objecttolerance="10"
     gridtolerance="10"
     guidetolerance="10"
     inkscape:pageopacity="0"
     inkscape:pageshadow="2"
     inkscape:window-width="1366"
     inkscape:window-height="706"
     id="namedview18"
     showgrid="false"
     inkscape:zoom="21.454545"
     inkscape:cx="5.5"
     inkscape:cy="9.5125704"
     inkscape:window-x="-8"
     inkscape:window-y="-8"
     inkscape:window-maximized="1"
     inkscape:current-layer="g10" />
  <defs
     id="defs4">
    <style
       id="style2">.a{fill:none;}.b,.d{fill:#7ee6ff;}.c,.d{stroke:none;}</style>
  </defs>
  <g
     transform="translate(-1879 -361)"
     id="g14">
    <g
       class="a"
       transform="translate(1879 361)"
       id="g10">
      <path
         d="M 1.572265,1.1e-7 C 0.704385,1.1e-7 0,0.70438611 0,1.5722651 V 9.4277343 C 0,10.295614 0.704385,11 1.572265,11 H 9.427734 C 10.295614,11 11,10.295614 11,9.4277343 V 1.5722651 C 11,0.70438611 10.295614,1.1e-7 9.427734,1.1e-7 Z m 0,0.99999999 H 9.427734 C 9.742824,1.0000001 10,1.2571751 10,1.5722651 V 9.4277343 C 10,9.7428245 9.742824,9.9999999 9.427734,9.9999999 H 1.572265 C 1.257175,9.9999999 1,9.7428245 1,9.4277343 V 1.5722651 c 0,-0.31509 0.257175,-0.572265 0.572265,-0.572265 z M 4,3.9999999 v 3 h 3 v -3 z"
         id="path8"
         style="fill:#aa0000"
         inkscape:connector-curvature="0" />
    </g>
  </g>
</svg>
