<svg xmlns="http://www.w3.org/2000/svg" viewBox="0 0 93.077 54.599">
  <defs>
    <style>
      .cls-1 {
        fill: none;
        stroke: #7ee6ff;
        stroke-miterlimit: 10;
      }
    </style>
  </defs>
  <g id="Group_982" data-name="Group 982" transform="translate(0.077 0.012)">
    <path id="Path_753" data-name="Path 753" class="cls-1" d="M66.827.489a2.687,2.687,0,0,0-.777.169c-.1.068-.169.27-.321.27s-.456-.034-.574.084-.11.186-.3.22-.355-.051-.405.1-.084.321-.152.524-.27.363-.321.566-.186.152-.22.321a2.465,2.465,0,0,0,.186.726l.253.642.372.321a1.079,1.079,0,0,1,.321.574c.017.287.068.726.186.743s.1.017.22.186.236.017.287.135a4.77,4.77,0,0,1,.135.49.582.582,0,0,1,.186.456,1.3,1.3,0,0,0,.084.743c.118.186.118.253.287.27s.169-.152.27,0,.051.372.405.27a2.681,2.681,0,0,0,1.208-.9,10.416,10.416,0,0,0,.726-1.241,8.5,8.5,0,0,0,.405-1.326c.017-.1-.068-.329.118-.414s.051-.709-.068-.912a1.061,1.061,0,0,1-.068-.625c.017-.118-.152-.118-.22-.287s-.017-.439-.118-.659S68.82,1.266,68.5,1.1A6.092,6.092,0,0,0,66.827.489Z" transform="translate(-57.982 0)"/>
    <path id="Path_754" data-name="Path 754" class="cls-1" d="M.654,259.24c-.076.135.093.287,0,.388s-.279.169-.211.321-.076.4.118.431.135-.11.27-.127a.5.5,0,0,1,.321.025c.1.051.211,0,.194-.093s.017-.11.068-.169.11-.152,0-.2-.127-.22-.194-.3-.144-.093-.262-.135S.756,259.063.654,259.24Z" transform="translate(0 -236.846)"/>
    <path id="Path_755" data-name="Path 755" class="cls-1" d="M70.362,520.118c-.093.034-.346.313-.405.338s-.287.161-.287.161l-.22.169h-.388l-.27.059a.669.669,0,0,1-.22.152c-.084.017-.169-.034-.253.042s-.338-.034-.456.084l-.3.3-.3.1-.245.236s-.118.194-.236.118a2.374,2.374,0,0,0-.245-.135s-.11.076-.152,0-.279-.11-.279-.11a1.217,1.217,0,0,1-.236.3,1.282,1.282,0,0,0-.22.236c-.059.059-.084.118-.194.076s-.177-.017-.11.059.118.025.093.118a.306.306,0,0,0,.051.22c.025.059.076.262.025.312s-.034.279-.076.329-.22.025-.16.084.22.169.22.279-.008.186.093.186a1.829,1.829,0,0,1,.38.059c.144.034.338-.068.473.042s.245.211.422.16.405-.127.405-.127l.549-.051.591.059a2.314,2.314,0,0,0,.54.127c.152-.008.169-.059.329.051a1.175,1.175,0,0,0,.312.152l.321.093s.127.084.287.177a1.725,1.725,0,0,1,.279.2l.3.059.194-.228a.321.321,0,0,1,.169-.076c.11-.017.2-.16.2-.16l-.1-.245.008-.312-.008-.355.051-.346a.212.212,0,0,0,.118-.194v-.262l.059-.186a1.8,1.8,0,0,0-.16-.4c-.068-.1-.312-.363-.312-.363s.042-.473-.1-.532-.118-.431-.135-.583a.159.159,0,0,0-.169-.144S70.557,520.05,70.362,520.118Z" transform="translate(-59.355 -475.743)"/>
    <path id="Path_756" data-name="Path 756" class="cls-1" d="M116.141,571.956c-.051.042.042.169.093.084S116.225,571.9,116.141,571.956Z" transform="translate(-105.928 -523.19)"/>
    <path id="Path_757" data-name="Path 757" class="cls-1" d="M697.524,575.045a.363.363,0,0,0-.16.287l-.228.237-.253.034-.186.279-.152.118h-.287l-.279.3s-.211.169-.169.312-.11.194-.236.245-.118.135-.253.143-.177.084-.27,0-.042-.152-.194-.11-.262.363-.262.363a2.229,2.229,0,0,0-.127.27c-.034.1-.143.025-.076.152s.135.169.042.237-.068.27-.068.27.169.1.177.211a.191.191,0,0,0,.085.152s.059-.22-.017-.3-.194-.1-.084-.194.017-.22.161-.1.169.127.287.236.084.051.228.144a.529.529,0,0,1,.186.3l-.017.287s-.025.152-.135.11-.177.025-.16.118-.211.118.008.211a.785.785,0,0,0,.321.084l.051-.245.152-.118s.279-.1.329,0a.578.578,0,0,0,.279.3c.152.084.093.211.194.16s.084-.177.177-.042.279.211.3.346-.093.27.025.279.152-.135.219-.236.034-.186.161-.186.49-.008.743,0,.3-.051.388.034.034.034.1-.017.219-.127.253-.034.084.135.228.11.27-.051.253-.169-.11-.38-.127-.456-.1-.144-.135-.262,0-.236-.11-.312a.344.344,0,0,1-.076-.4c.068-.084.008-.042-.084-.177s.034-.186-.008-.3-.034-.118-.11-.186a.515.515,0,0,1-.1-.431,1.254,1.254,0,0,1,.127-.262c.051-.059.186-.118.017-.144s-.186-.034-.253-.143-.253-.16-.169-.237.118-.118.034-.245.025-.11,0-.211a.458.458,0,0,0-.236-.3c-.135-.059-.253-.051-.321-.144C697.642,575.273,697.651,574.961,697.524,575.045Z" transform="translate(-635.335 -526.026)"/>
    <path id="Path_758" data-name="Path 758" class="cls-1" d="M701.3,591.173c-.042.051-.008.059.051.11s.186.076.22,0-.1,0-.144-.11S701.389,591.054,701.3,591.173Z" transform="translate(-641.666 -540.726)"/>
    <path id="Path_759" data-name="Path 759" class="cls-1" d="M687.931,604.994c-.068.008-.118.152,0,.118S688.032,604.986,687.931,604.994Z" transform="translate(-629.382 -553.458)"/>
    <path id="Path_760" data-name="Path 760" class="cls-1" d="M692.485,605.569c-.042-.068-.059.169,0,.194S692.536,605.662,692.485,605.569Z" transform="translate(-633.581 -553.974)"/>
    <path id="Path_761" data-name="Path 761" class="cls-1" d="M750.108,614.877c-.042.059.084.16.11.084S750.158,614.8,750.108,614.877Z" transform="translate(-686.365 -562.48)"/>
    <path id="Path_762" data-name="Path 762" class="cls-1" d="M858.708,105.9c-.118,0-.186.118-.253.16s-.144.068-.059.118a.2.2,0,0,0,.211,0c.042-.025.084-.211.1-.127s.093.16.059.22-.093.042-.085.144a.625.625,0,0,0,.093.236c.025.051.127,0,.1.059s-.143.034-.118.1a.839.839,0,0,0,.118.2.2.2,0,0,0,.186.11c.068-.008.068.076.042.144s-.118.127-.084.177.118.144.177.084.017-.144.194-.144.127.042.3-.017a.724.724,0,0,0,.245-.127c.127-.068.169.034.177-.144s-.135-.228,0-.279.194-.017.253-.1-.152-.084-.228-.068-.127.068-.152-.025-.118-.068-.177-.144-.22-.144-.3-.262-.186-.186-.245-.144a.243.243,0,0,1-.245.034c-.1-.042-.127-.059-.16-.144C858.826,105.9,858.818,105.9,858.708,105.9Z" transform="translate(-785.482 -96.51)"/>
    <path id="Path_763" data-name="Path 763" class="cls-1" d="M1041.63,62.554c-.076-.068-.135-.008-.2.11s-.025.194-.1.228a.379.379,0,0,0-.169.118.542.542,0,0,1-.211.2.631.631,0,0,1-.27.051c-.152.008-.236.093-.355.059s-.177-.051-.27.008a.534.534,0,0,0-.169.3c-.034.127-.009.262-.093.262s-.161-.093-.186,0,.093.186,0,.287a.564.564,0,0,0-.169.346.8.8,0,0,1-.093.3.423.423,0,0,0-.076.279c.017.135-.042.194.051.186s.068.008.194.051.16.017.194.118a1.191,1.191,0,0,0,.169.38c.068.076.2.093.228.211s-.1.135.008.2.211-.1.253,0-.068.152.034.169.127-.059.245-.034.042.051.076.034.051-.093.177-.051a1.619,1.619,0,0,1,.287.093.628.628,0,0,0,.346.051c.161-.008.186.034.338-.042s.169-.152.3-.118a.616.616,0,0,1,.262.11.508.508,0,0,0,.312.059c.143,0,.152-.042.253-.1s.152-.068.118-.236a1.784,1.784,0,0,0-.042-.4,1.269,1.269,0,0,0-.127-.279c-.051-.068-.093-.152-.017-.16s.194-.034.2-.169.076-.279.042-.372,0-.127.009-.22-.051-.16,0-.228.093-.051.186,0,.1.084.135.2-.026.245.051.228.093-.2,0-.346-.1-.194-.253-.22-.219-.042-.228-.152a2.549,2.549,0,0,1-.026-.439c.017-.11-.127-.338-.169-.448a1.058,1.058,0,0,0-.228-.38c-.1-.093-.084-.279-.278-.279a2.432,2.432,0,0,0-.5,0C1041.756,62.588,1041.748,62.664,1041.63,62.554Z" transform="translate(-951.11 -56.796)"/>
  </g>
</svg>
