<svg xmlns="http://www.w3.org/2000/svg" xmlns:xlink="http://www.w3.org/1999/xlink" viewBox="0 0 652 259.2"><defs><linearGradient id="a" x1=".5" x2=".5" y1="1" gradientUnits="objectBoundingBox"><stop offset="0" stop-color="#fff" stop-opacity="0"/><stop offset="1" stop-color="#fff"/></linearGradient><linearGradient id="b" x1=".49" x2=".49" y1="1" xlink:href="#a"/><linearGradient id="c" x1=".5" x2=".5" y1="1" xlink:href="#a"/><linearGradient id="d" x1=".49" x2=".49" y1="1" xlink:href="#a"/><linearGradient id="e" x1=".5" x2=".5" y1="1" xlink:href="#a"/></defs><path d="M10.7 245.96l10.69-12.61v24.42H16.6v-12.13l-5.9 7.34-5.91-7.34v12.13H0v-24.42zM67.35 246.44a10.95 10.95 0 0 1-11.49 11.49 10.83 10.83 0 0 1-7.98-3.04 11.06 11.06 0 0 1-3.35-8.45 11.3 11.3 0 0 1 1.6-6.23 12.34 12.34 0 0 1 4.15-3.99 10.7 10.7 0 0 1 5.59-1.28 13.68 13.68 0 0 1 4.3.8 12.6 12.6 0 0 1 3.68 2.24 8.93 8.93 0 0 1 2.55 3.67 11.66 11.66 0 0 1 .95 4.79zm-18.03 0q0 3.59 1.91 5.26a7.2 7.2 0 0 0 4.8 1.92 6.5 6.5 0 0 0 4.78-1.92 8.2 8.2 0 0 0 0-10.53 6.4 6.4 0 0 0-4.63-1.92 6.5 6.5 0 0 0-4.79 1.92 6.63 6.63 0 0 0-2.07 5.27zM90.5 235.26h8.3a10.02 10.02 0 0 1 7.98 3.36 11.55 11.55 0 0 1 2.87 7.82 11.96 11.96 0 0 1-2.87 7.98q-2.88 3.34-8.14 3.34h-8.3v-22.5zm4.63 18.04h3.5a5.54 5.54 0 0 0 4.64-2.08 7.38 7.38 0 0 0 1.6-4.94 6.38 6.38 0 0 0-1.76-4.8 5.9 5.9 0 0 0-4.63-1.9h-3.51v13.72zM146.52 235.26v4.15h-8.94v4.47h8.3v4.15h-8.3v5.1h9.1v4.32H132.8V235.1h13.73zM183.7 249.47l5.44 8.14h-5.59l-4.63-7.34h-3.99v7.34h-4.79v-22.35h9.58a7.82 7.82 0 0 1 5.74 2.24 7.46 7.46 0 0 1 2.08 5.42 6.36 6.36 0 0 1-1.11 3.84 5.02 5.02 0 0 1-2.72 2.7zm-8.77-3.2h4.79a3.35 3.35 0 1 0 0-6.7h-4.79zM230.31 259.2l-14.04-14.36v12.77h-4.79v-23.94l14.05 14.36v-12.6h4.78zM293.68 253.94h-9.26l-1.75 3.67h-5.27l11.65-24.9 11.65 24.9h-5.27zm-4.63-11.33l-3.03 7.34h6.22zM328.8 257.6H324v-22.34h4.8zM368.7 249.47l5.42 8.14h-5.58l-4.63-7.34h-4v7.34h-4.78v-22.35h9.58a7.82 7.82 0 0 1 5.74 2.24 7.46 7.46 0 0 1 2.08 5.42 6.36 6.36 0 0 1-1.12 3.84 5.6 5.6 0 0 1-2.71 2.7zm-8.78-3.2h4.79a3.35 3.35 0 1 0 0-6.7h-4.8zM422.16 246.44a11.06 11.06 0 0 1 3.36-8.46 11.35 11.35 0 0 1 7.98-3.04 11.46 11.46 0 0 1 6.7 2.08 8.65 8.65 0 0 1 3.67 5.9h-4.63a5.65 5.65 0 0 0-5.75-3.67 6.5 6.5 0 0 0-4.79 1.92 6.89 6.89 0 0 0-1.75 5.1 7.49 7.49 0 0 0 1.75 4.95 6.07 6.07 0 0 0 4.8 2.08 6.61 6.61 0 0 0 3.66-.96 4.6 4.6 0 0 0 2.08-3.03h4.63a8.97 8.97 0 0 1-3.67 6.22 11.13 11.13 0 0 1-6.7 2.08 13.04 13.04 0 0 1-7.98-2.88 9.52 9.52 0 0 1-2.56-3.5 13.62 13.62 0 0 1-.8-4.8zM488.4 246.44a10.95 10.95 0 0 1-11.49 11.49 10.83 10.83 0 0 1-7.98-3.04 11.06 11.06 0 0 1-3.35-8.45 11.3 11.3 0 0 1 1.6-6.23 12.34 12.34 0 0 1 4.15-3.99 13.05 13.05 0 0 1 5.58-1.28 13.68 13.68 0 0 1 4.31.8 12.6 12.6 0 0 1 3.67 2.24 8.93 8.93 0 0 1 2.56 3.67 11.66 11.66 0 0 1 .95 4.79zm-18.03 0q0 3.59 1.91 5.26a7.2 7.2 0 0 0 4.79 1.92 6.5 6.5 0 0 0 4.79-1.92 8.2 8.2 0 0 0 0-10.53 6.4 6.4 0 0 0-4.63-1.92 6.5 6.5 0 0 0-4.79 1.92 6.63 6.63 0 0 0-2.07 5.27zM522.24 245.96l10.7-12.61v24.42h-4.8v-12.13l-5.9 7.34-5.9-7.34v12.13h-4.8v-24.42zM573.8 241.96a4.5 4.5 0 0 1-.64 2.4 4.25 4.25 0 0 1-1.6 1.75 5.05 5.05 0 0 1 3.19 4.95 6.02 6.02 0 0 1-1.92 4.79 7.76 7.76 0 0 1-5.27 1.76H557.2v-22.35h9.42a7.62 7.62 0 0 1 5.1 1.76 6.18 6.18 0 0 1 2.08 4.94zm-7.5-2.55h-4.32v5.1h4.31a2.54 2.54 0 0 0 1.92-.63 2.29 2.29 0 0 0 .8-1.76 2.54 2.54 0 0 0-.64-1.91 2.76 2.76 0 0 0-2.08-.8zm.8 8.94h-5.11v5.11h5.26a2.47 2.47 0 0 0 2.72-2.4 2.68 2.68 0 0 0-.96-2.23 3.4 3.4 0 0 0-1.92-.48zM610.66 253.94h-9.26l-1.75 3.67h-5.27l11.65-24.9 11.65 24.9h-5.27zm-4.63-11.33l-3.03 7.34h6.22zM641.3 239.41h-5.9v-4.15H652v4.15h-5.9v18.2h-4.63v-18.2z" class="a"/><g><path d="M289.69 0l-2.08 4.79-5.26 7.98 5.26-.64 2.08-4.15 2.07 4.15 5.27.64-5.27-7.98zM307.88 23.94l-2.23 4.79-5.27 7.98 5.27-.48 2.23-4.3 2.08 4.3 5.26.48-5.26-7.98zM325.92 49.48l-2.08 4.79-5.26 7.98 5.26-.48 2.08-4.15 2.07 4.15 5.27.48-5.27-7.98zM344.11 75.02l-2.23 4.94-5.27 7.83 5.27-.48 2.24-4.15 2.07 4.15 5.27.47-5.27-7.82zM362.15 100.55l-2.07 4.95-5.27 7.82 5.27-.48 2.07-4.15 2.24 4.15 5.1.48-5.1-7.82z" class="a"/><path fill="url(#a)" d="M188.08 173.73h-9.58L183.29 6.3z" opacity=".4" transform="translate(106.4 3.75)"/><path fill="url(#b)" d="M199.48 165.29h-9.58L194.69 21z" opacity=".4" transform="translate(113.2 12.52)"/><path fill="url(#c)" d="M210.78 155.37h-9.58l4.79-118.27z" opacity=".4" transform="translate(119.93 22.11)"/><path fill="url(#d)" d="M222.18 145.83h-9.58l4.79-92.73z" opacity=".4" transform="translate(126.73 31.65)"/><path fill="url(#e)" d="M233.48 136.3h-9.58l4.79-67.2z" opacity=".4" transform="translate(133.46 41.19)"/></g></svg>