<svg xmlns="http://www.w3.org/2000/svg" viewBox="0 0 76.969 113.336">
  <defs>
    <style>
      .cls-1 {
        opacity: 0.35;
      }

      .cls-2, .cls-3 {
        fill: none;
        stroke: #fff;
        stroke-linejoin: round;
      }

      .cls-2 {
        stroke-width: 0.25px;
      }
    </style>
  </defs>
  <g id="Group_979" data-name="Group 979" class="cls-1" transform="translate(0.442 0.5)">
    <g id="Group_167" data-name="Group 167" transform="translate(0 0.017)">
      <path id="Carson_City_1_" class="cls-2" d="M.454,185.2l.982.036.349.017-.007-.089.443.01.01-.234.111,0,0-.111.111.01.007-.154.207.01.01-.108H2.79l.2,0,.171-.108.229,0,0-.226.236.01.01-.241.229.017.236.01h.075l.27.5.06.108.053.031.14.067.193.1,1.088.043.036.094-.031.176-.031.058-.039.147-.113.166.031.051,0,.082.031.079L6,185.9l0,.284.007.13.036.06.014.043.007.029-.007.089.036.051.046.075-.243-.01-.482-.01-.236-.01L3.556,186.6l.017-.219-.118-.01.01-.248-.932,0-.342-.01-.429,0-.556-.019-.089,0-.677-.012Z" transform="translate(-0.397 -139.827)"/>
      <path id="Churchill_1_" class="cls-2" d="M62.836,134.77l-.007.058.058.082.067.082.067.058.075.132-.014.051.022.067.053-.007.043.007.014.065.022.082.031.051v.051l.036.053.053.043.06.014.06.024.036.043.031.014.051.067.014.065.014.058.06.1.029.072-.014.06.014.065.029.029-.022.058.007.039.022.043.039.036-.01.036-.014.067.007.065.022.029.022.1-.024.159.014.043-.06.06-.007.036.022.029-.007.072-.031.022-.039.036v.043l.031.024-.039.079-.017.058.007.051-.022.007-.075.036-.031.014-.024.082-.046.043.014.094v.14l-.046.137.029.036.014.046-.024.13.014.06-.022.065-.075.108-.014.079,0,.06-.007.079.014.051.014.06-.014.094.029.036.067.007.029.06h.067l.014.007.036.1-.046.116-.024.087-.036.036-.039.089.022.058v.072l-.017.06.089.212.082.043.1.154-.046.075-.036.051-.017.116-.031.065-.053.058.007.067-.053.051-.031.029.007.051.125.132.075.014.046.01.029.137-.1.183-.128.224.036.046-.014.058.022.072.014.1-.01.087-.046.087v.089l.022.1v.053l-.046.079-.039.051.007.036-.031.036-.067.043-.007.065-.024.06-.06.043-.125.026-.089-.108-.031-.01-.06.065-.082.036-.053.043-.111.036h-.2l-.039.036-.046.065-.111.019-.067-.029-.1.007-.022.043.022.051-.007.089.029.051-.067.087-.082.079-.031.051-.014.036-.089-.007-.06.029-.007.087-.082.1-.06.012-.039-.007-.082.043-.149.094-.053-.007-.039.014-.039.072v.051l.075.017.075.014.067.036.051.046-.029.051,0,.145-.067.089.022.065-.031.065-.111.022-.1.007-.128.019-.053.058.007.1-.082.029-.014.029.029.043v.036l-.029.072-.024.046-.046.065-.067.087-.01.014-.036.036-.075.014-.089.036-.046-.01-.046-.007-.053.014-.118.051-.039-.014-.065-.067-.053-.014-.067.043-.067.065-.024.108-.039.043.017.046L60,145.1l-.031.065.036.125.031.087-.031.065.007.053.036.1.06.2-.017.075.014.043.053.065.014.053.053.072,0,.072-.022.06.022.065.067.029.029.053.022.065.007.161.067.125.036.166.1-.012,0,.087-.036.051-.039.154.024.072-.031.043.014.053-.024.058-.022.072h-.039l-.06.029-.053.036-.031.1-.067.065-.01.058v.053l-.014.014-.039.007-.036.029-.039.058-.111,0-.106.154-.089.012-.024-.014-.029-.007-.014.022v.036l-.017.014-.022.014H59.6l-.014.022.007.036.022.046-.007.029-.039.022-.007.022.06.058.029.053-.014.022-.067.022-.029.058-.075.012-.06-.007-.014.014.022.089h.075l.053.007.029.169-.046.094.014.053-.022.065-.01.051.014.043.135.046.075.072.036.161-1.016.272-1.459-.014-2.377-.012-2.422-.034-1.534-.039-1.413-.022-1.594-.024-.421-.01.01-.616-.482,0,.01-.443-.229,0,0-.248-.229-.01.01-.234-.236,0,.01-.226-.236-.01,0-.226-.3,0,.017-.45-.243,0,.024-.241-.253-.01,0-.234-.236,0,.017-.234-.243-.01.01-.234-.243-.01,0-.262-.275,0,.01-.234-.214,0,0-.234-.243,0,.017-.234-.229-.01,0-.234-.229-.01,0-.226-.229-.01.01-.234-.229-.01v-.212l0-.108.01-.385,0-.234.01-.226.01-.248.026-.7.222.01.132.007,0-.219.017-.494,0-.219,0-.234,0-.234.01-.234.017-.262h.132l.01-.226,0-.234.01-.234.01-.226.01-.234.075-.173.171-.043-.007-.13.01-.1-.231.217-.171.224-.253.241-.039.036-.171.166-.277.238-.246.238-.214.2-.067.072,0-.075v-.219l0-.27.01-.234.236.01.01-.234,0-.234,0-.19.017-.465,0-.465.007-.089-.236,0,.01-.144.024-.234-.236,0,.01-.262,0-.234.01-.234,0-.234.01-.234.01-.255-.209,0,.01-.212,0-.241.017-.465,0-.241.01-.234.01-.219.178.007.243,0,.474.017.236,0,.236.01.222,0,.243.01.229.01.243.01.236.01.214.01.229,0,.236.01.238,0,.236.01.236,0,.229,0,.229,0,.236,0,.229.01.243,0,.238.01h.2l.178,0,.243.01.229,0,.236.01.236,0,.243.017.207,0,.222.01.229,0,.246.01.229,0,.185.007.082,0,.229.01H50.8l.236,0,.236.01.236,0,.222,0,.258,0,.236,0,.474-.012.236.01.222,0h.185l.236,0,.236.017.236,0,.229.017.243,0,.222,0,.243,0,.236.007.236.01.482,0,1.413-.022,2.762.043.554,0,1.214,0Z" transform="translate(-31.949 -102.246)"/>
      <path id="Clark_1_" class="cls-2" d="M239.249,343.39l.012.3.01.241,0,.048.053,1.507.075,2.107.039,1.074.012.4.128,4.132.012.421v.154l-.075.019-.1.082-.007.01-.084.111-.029.07-.01.019,0,.017-.06.169-.077.159-.051.118-.077.108-.039.1-.031.123-.031.058-.084.046-.079.034-.058.039-.034.067,0,.075.048.046.041.048.019.036-.007.06-.031.051-.06.072-.06.154-.067.185-.031.132,0,.116v.111l-.031.065-.046.06-.026.026,0,.029-.019.053,0,.014-.046.029-.046.007-.082-.007-.063,0-.075-.01-.063.01-.026,0-.077.041-.053.046-.067.019-.106.048-.152.06-.14.036-.125.014-.091-.017-.07-.041-.161-.082-.118-.1-.024-.1-.012-.1-.036-.07-.058-.019-.084-.017-.06-.026-.043-.053-.067-.036-.053-.026-.065.01-.053.007-.067-.029-.039-.053.007-.063.046-.053.01-.01.051-.048.024-.075-.014-.072-.039-.065-.043-.053-.051-.07-.039-.067-.039-.051-.036-.036-.053-.019-.014,0-.07-.034-.055-.039-.034-.058-.01-.017-.06-.089-.06-.046-.051-.043-.075-.075-.031-.075-.082-.079-.075-.036h-.111l-.084-.024-.1-.024-.1.014-.084.01-.084.07-.075.07-.01.007-.106.082-.007.007-.087.077-.067-.036-.06-.029-.06-.084-.051-.06-.058-.022-.053,0-.065.041-.116.077-.142.089-.089.026-.082.012-.053-.041-.022-.051v-.051l.024-.046.046-.036.029-.036.01-.029-.034-.063-.046-.027-.046-.014-.06.007-.075.017-.039.034-.039.022h-.053l-.053-.029-.06-.043-.092-.024-.065.017-.1.019-.082.019-.1.012-.135.041-.111.079-.063.048-.01.01-.067.06-.058.046-.058.017-.048,0-.053-.014-.022-.043-.017-.041-.041-.041h-.053l-.031.022-.053.026-.041.046-.075.027-.041.031-.055.048-.039.051-.029.029-.039.046-.01.01-.029.034-.06.039-.01,0-.063.034-.01,0-.058.031-.029,0-.063,0-.048-.012-.06.029-.029.024-.039.012-.067.014-.063.017-.154.012-.1.031-.082.034-.082.058-.079.089-.048.055-.026.111.019.063.055.063.063.055.039.055.026.068.034.075.024.048.014.06-.031.046-.029.026-.007.043.007.07.022.034.055.019.046.019.039.048.046.036.012.041-.026.06-.041.053-.055.07-.07.053-.019.034-.014.026-.007.06.014.084.01.058,0,.067-.046.1,0,.036,0,.036.029.077.031.087.065.113.055.048.019.079,0,.07.039.108,0,.031,0,.026.039.048.063.034.063.055.1.07.043.089.017.055-.01.079v.082l.027.055.031.06.031.034.029.034.031.031.089.092.1.077.077.075.01.015.024.036.067.058.06.017.039.022.014.022-.007.034-.031.017-.034.01-.024.007-.039.012-.082.051-.075.029-.051.024-.012.014-.007.01-.012.017-.022.036-.039.022-.029.007-.017,0-.036,0-.043.022-.012.031,0,.036.024.048.019.039.014.022.019.034.039.055.022.036.007.043-.007.014-.019.039-.031.034-.017.031,0,.041-.012.039-.019.06-.019.019-.019.012-.012.012-.024.034-.024.034v.039l.029.058.031.029.022.022.029.046.039.094,0,.084,0,.031,0,.041,0,.063,0,.084.01.063.026.051.024.046.014.034,0,.024-.012.05-.019.043,0,.053.012.029.017.051.014.065-.01.046-.007.043-.022.111-.039.087-.007.022-.019.055-.012.067,0,.072.01.065.034.07.055.063.014.012.048.041.07.048.039.029.034.041.01.039v.043l0,.024,0,.026-.01.031-.012.043-.01.036-.014.06-.012.053,0,.012-.014.089.022.13.024.051.026.05.053.039.055.055.031.048.029.053.007.036.01.046.041.048.053.029.039.024.036.034.029.072.007.024.012.034,0,.094-.017.082,0,.058-.026.039-.026.024-.017.014-.048.041-.01,0-.07.034-.036.024,0,.036v.053l.039.031.053.034.029.053.029.084.014.053-.01.043-.017.031.017.089,0,.019.017.075.029.075.022.041.007.029-.007.036-.031.051-.024.034-.017.019-.014.017-.034.039-.039.046-.034.039-.01.012-.031.043-.012.06,0,.014-.007.159.01.031,0,.019.017.051.019.06,0,.014.026.087.026.084.039.142.043.091.026.053.106.185.007.01.111.19.373.722.01.031.094.265.012.034.053.161.072.133.007.019.039.1,0,.012.029.1.01.046.017.07.029.075-.012.091-.01.082-.012.116,0,.019v.1l.024.108,0,.031.01.063.058.113.041.137,0,.012.022.123,0,.039,0,.07.01.075.01.077,0,.055.012.06.017.077.019.067.01.063,0,.024,0,.065,0,.046,0,.092.029.067.043.041.017.031.017.034.019.063,0,.075.026.1.022.094,0,.046,0,.022,0,.036,0,.053,0,.014,0,.072,0,.043-.039.116-.012.067,0,.026.01.051,0,.024.007.07-.01.048-.039.091-.007.017-.06.06-.082.026-.1.019-.132.014-.111,0-.082.019-.024,0-.063.015-.075.043-.07.043-.075.094-.036.06,0,.051.036.072.031.019.048.031.084.039.046.019.031.012.014,0,.026.012.036.012.053.041.017.012.031.034.063.048.053.058.027.063.017.084-.031.1-.014.026-.031.055-.06.034-.053.031-.012.01-.077.06-.063.07-.024.041-.039.1-.007.1,0,.087,0,.051,0,.046,0,.038,0,.034.012.06.007.029.024.089-.354-.332-.214-.2-.024-.024-.243-.234-.236-.219-.128-.118-.279-.253-.14-.144-.282-.263-.737-.7-1.438-1.344-.2-.181-.426-.395-.616-.576-.224-.209-.39-.359-.238-.224-.248-.234-.628-.59-.674-.621-.043-.046-.145-.135-2.589-2.413-.159-.149-1.257-1.165-.188-.178-.739-.681-.491-.462-.26-.248-.043,0-.494-.46-2.728-2.548-.017-1.462,0-.378,0-.713,0-.559-.022-1.551,0-.262-.026-2.377-.007-.079,0-.3,0-.32-.017-1.365-.007-.169,0-.029-.01-1.156,0-.255-.034-2.507,2.023-.036,0-.176,5.589-.1h.051l.214,0,3.906-.075h.046l.282-.007.142,0,.229-.007.467,0,.229-.007.053,0,.178-.007.889-.019.349-.014.007.154,1.185-.017.207-.014,1.134-.027.253,0,.592-.012.86-.019,2.711-.087,1.377-.041h.031Z" transform="translate(-163.656 -260.821)"/>
      <path id="Douglas_1_" class="cls-2" d="M.3,192.52l.677.012.089,0,.556.019.429,0,.342.01.932,0-.01.248.118.01-.017.219,1.616.031.236.01.482.01.243.01.236.01,2.637.1-.031,1.505-.253,0-.017.123H8.411l-.667-.034-.01.429-.193.012-.026.72-.024.45-.236-.017,0,.465.229.01-.01.291-.01.3h.089l-.007.116.132,0,0,.378-.024.335-.075-.007,0,.486v.087l.236,0v-.072h.125l.222,0,.135,0,0,.147,0,.763v.029l-.01.486.236,0-.051,1.77L7,200.62l-.063-.058-1.17-1.1-.031-.029-.3-.284-.255-.236-.135-.125-.1-.089-.754-.7-.308-.286-.308-.294-.176-.171-.111-.1-.431-.4-.031-.019-.395-.368-.046-.043-.255-.243-.674-.638-.154-.147-.053-.051-.38-.356-.609-.568.019-1.076Z" transform="translate(-0.26 -146.28)"/>
      <path id="Elko_1_" class="cls-2" d="M178.976.784l.633-.024.207-.01.472-.031L180.5.707l.222-.017.031,0,.214-.012.176-.01.038,0,.258,0,.243,0,.672,0h1.235l.2,0,.236,0,.214,0h.014l.71-.012L186.6.61,186.833.6l.482-.012.674-.026h.041l.431-.012.236,0,.8-.022,1.32-.034.092,0h.01l.012.32V.834l0,.217.01.258.017.45.027.715.017.45.01.219.034.946.024.684.01.241.01.27.024.677.01.234.026.715.01.241,0,.2,0,.046,0,.188.007.152,0,.075v.031l.007.2,0,.053.007.241.007.234,0,.144,0,.111,0,.12,0,.075,0,.185,0,.046.012.2,0,.046.01.241.007.234,0,.164,0,.1,0,.135,0,.06,0,.164v.046l0,.209,0,.039.01.234.01.234.01.27.007.19.01.234.01.248.01.234.007.234.01.255.007.2,0,.171,0,.07,0,.185,0,.055.007.234.01.241,0,.149.007.106,0,.125,0,.077,0,.157,0,.084,0,.185,0,.063.01.226.01.248.01.241,0,.2,0,.169,0,.07v.149l0,.1.01.234.01.234,0,.111.01.332.007.234.065,2.015v.046l0,.262.01.431.007.311.01.417.026,1.185,0,.1.007.359.017.785.046,2.013.087,3.41.027.768.031.8-2.182.082-3.761.087-1.267.012-.229,0-.5.007-1.452.024-2.812.036-2.5.029-1.835.024-.645.012h-.147l-.9.019-.925-.017-1.139.01-1.724.031-2.015.024-.612-2.454-.212-1-.313-1.377-.087-.255-.046-.212-.058-.255-.051-.226-.058-.241-.053-.241-.058-.241-.13-.583-.125-.539-.065-.248-.154-.6-.041-.59-.007-.226.01-.241,0-.234-.007-.226,0-.706,0-.234v-.234l0-.234,0-.234V19.06l0-.241,0-.234V18.36l0-.226,0-1.17-.746.012h-.236l-.236,0-.236,0-.157.007h-.082L163.6,17l-1.871.014-.243,0-.236,0-.229.007-.243,0-.236.007-.674,0-.482,0-.474,0-1.385.01-.207,0-.236.007-.236,0-.229,0-.243.007-.229,0-.236,0-.236.007-.243,0-.1,0v-.087l0-.234-.007-.226,0-.241,0-.234v-.226l0-.241,0-.7,0-.248.01-.241,0-.226V13.89l0-.248,0-.226,0-.691v-.241l0-.226,0-.219,0-.255-.007-.234,0-.234,0-.226,0-.234,0-1.194,0-.234,0-.458,0-.154V8.752l0-2.068,0-.342,0-.436L155.33,1,158.973,1h1.021l.072,0,2.232,0,.5,0,.2,0,.031,0,2.319-.022.224,0,.169,0,1.365,0,.438,0,.1,0,.734-.01.159,0,1.717-.019L171.6.928,173.529.9l.236,0,.188,0,.53-.007.2,0,.236,0,.414,0,1.286-.012.106,0,.067-.007,1.1-.039Z" transform="translate(-117.982 -0.49)"/>
      <path id="Esmeralda_1_" class="cls-2" d="M90.394,237.4l5.336,6.114.308.366.022.1-.01.255.253,0,.686.746-.012,3.9,0,.241v.241l0,.465.022,8.11v.043l0,.32,0,1.308,0,1.141,0,.775-.968-.91-.176-.157-.282-.27-.116-.1-.116-.106-.718-.672-1.991-1.861-.079-.075-.775-.718-.094-.089-.087-.082-.71-.665-.542-.5-.71-.665-.137-.128-1.055-.987-.024,0-1.474-1.38-.893-.843-.421-.395-.308-.294-.361-.342-.949-.886-1.3-1.218-.872-.816-.465-.436-.409-.378h.1l.393.053.482,0,.8-.889.566-.592.306-.332,1.185-1.288Z" transform="translate(-61.528 -180.353)"/>
      <path id="Eureka_1_" class="cls-2" d="M176.6,68.965l.236-.007.243,0,.229-.007.236,0,.243,0,1.871-.014.467-.012h.082l.157-.007.236,0,.236,0h.236l.746-.012,0,1.17,0,.226v.234l0,.234,0,.241v.248l0,.234,0,.234v.234l0,.234,0,.706.007.226,0,.234-.01.241.007.226.041.59.154.6.065.248.125.539.13.583.058.241.053.241.058.241.051.226.058.255.046.212.087.255.313,1.377.212,1,.612,2.454,2.015-.024.089.19.014.075.007.072-.039.132-.031.058-.039.022-.007.154.043.072.007.079-.039.075.007.043.067.075.053.087V84.1l-.046.075-.039.065.036.132.036.051.007.065-.022.053-.046.217,0,.118-.007.058v.043l.014.132.014.043.06.1.043.065.089.27.022.043.014.075v.1l-.017.125-.014.051.014.079.029.082.075.094.075.154-.014.079-.031.06-.007.087.022.1.051.176v.065l-.031.108.111.132-.01.111-.014.051-.017.058.024.043-.024.1-.046.065-.039.065-.036.051-.046.051-.039.082.022.169.065.152-.007.118-.031.094-.007.1,0,.087v.14l.029.072-.014.089-.039.079-.053.036-.039.014-.014.058-.039.043-.06.051.014.147-.01.176,0,.327.082.082.014.087,0,.118v.094l.007.1.007.161-.024.065-.046.072.029.051v.111l.043.183.06.108.022.111-.039.072.075.132.014.087-.014.089-.149.234-.043.065-.024.036-.053.072-.017.1.014.067.031.087.043.1.046.058-.01.1-.067.116-.031.108-.067.051-.039.014-.1.147v.029l.007.029-.007.043-.089.111-.075.036-.046.079.017.072.043.082-.053.123-.06.043-.246.079-.154-.053.026,2.037.007.241,0,.436,0,2.136-1.828.01-2.261.034-1.421.01-1.645.017-1.305,0-.171.007-.012-.248.06,0-.031-3.147h.075l-.012-.619v-.094l-.031-3.229,0-.277h.046l0-.313v-.19l-.012-.559-.012-.633-.012-.633,0-.633v-.065l0-.234,0-.234v-.234l0-.234,0-1.163.01-.226,0-.219,0-1.44-.125.007,0-.467,0-.241.017-.465.01-.226V82.3l.041-1.178-.012-.727.01-.234,0-.234,0-.212v-.226l0-.241,0-.234v-.226l.01-.234-.022-.241,0-.255,0-.234,0-.241v-.226l0-.234,0-.248V76.62l0-.2V76.38l.01-.19v-.274l0-.043.007-.183v-.051l.007-.2,0-.241v-.234l0-.241,0-.226-.014-.234,0-.241,0-.845.007-1.447v-.234l0-.248,0-.241.01-.234v-.224l0-.234,0-.234V69.83l.017-.248,0-.234,0-.241v-.142Z" transform="translate(-134.062 -52.435)"/>
      <path id="Humboldt_1_" class="cls-2" d="M66.6,1.831l.007,4.91,0,.436,0,.342,0,2.068v.089l0,.154,0,.458,0,.234,0,1.194,0,.234,0,.226,0,.234.007.234,0,.255,0,.219,0,.226v.241l0,.691,0,.226,0,.248v.234l0,.226-.01.241,0,.248,0,.7,0,.241v.226l0,.234,0,.241.007.226,0,.234v.087l0,.169-.01.234.007.234,0,.248,0,.219,0,.241-.01.241.007.248,0,.241,0,.212.007.219-.01.234,0,.248-.01.7,0,.946-.01.234.014.212,0,.255,0,.234.007.2-.236-.01-.236.007-.222,0-.229,0-.236.007-.229,0-.243,0-.222,0-.222.007-.26,0-.236,0-.229,0-.039.067-.06.166-.082.241-.022.067-.06.159-.082.234-.082.241-.082.234-.075.234-.053.072-.039.147,0-.691.01-.226-.014-.241,0-.226,0-.248v-.226l0-.241,0-.241v-.2l-1.368-.007-.474-.01-.207,0-.258,0-.222-.01h-.207l-.282,0-.236,0-.243,0-.236,0-.429,0,0-.458.01-.255,0-.255,0-.421,0-1.177v-.219l-.2,0-.236,0-.236,0-.243-.01h-.229l-.214,0-1.156-.012-.236,0-.253,0-.236,0-.243,0-.236,0-.229,0h-.185l-.267,0-.222,0-.236,0-.25,0-.229-.01h-.207l-.236-.01-.222,0-.229,0-.243,0-.289,0-.185-.01-.253,0-.243,0-.229,0H51.07l-.236,0-.2,0-.265,0-.222-.01-.229,0-.246,0-.236,0-.2,0-.25,0-.229,0h-.241l-.25,0-.214,0h-.029l-1.56-.024-.229,0-1.067-.034-.111,0,.019-.792,0-.2.01-.407-.007-.284-.653-.01-1.377-.031-1.649-.01-.879-.022-1.775-.041-.243,0,0-.662.1-3.771.161,0h.157l.017-.515.019-.453.017-.429.036-1.062.01-.392-.25,0,.012-.482L38.815,9.1l.029-1.04-.046,0h-.034V8.031l.055-1.674.01-.226.019-.961.039-1.385.06,0,.036-2.191,2.15.043,1.163.019,1.676.053,1.57.041h.048l2.165.019,1.948.017.474.007.472,0,.445,0,.939,0,.243,0,.222,0,.479,0,.236,0,.681,0h.429l.282,0,1.11,0,1.168.007.267,0,.4,0h.01l.686,0h.082l.467,0,.222,0,.414,0,.053,0,.645,0,.337,0,.313,0h.169l1.072.01,1.363,0,.667-.007,2.406-.019h0Z" transform="translate(-29.292 -1.325)"/>
      <path id="Lander_1_" class="cls-2" d="M129.4,68.973v.144l0,.241,0,.234-.017.248v.248l0,.234,0,.234v.234l-.01.234,0,.241,0,.248v.234l-.007,1.447,0,.845,0,.241.014.234,0,.226,0,.241v.234l0,.241,0,.2v.051l-.007.183.01.031v.234l-.01.19v.043l0,.2v.255l0,.248,0,.234v.226l0,.241,0,.234,0,.255.022.241-.01.234v.226l0,.234,0,.241v.226l0,.212,0,.234-.01.234.012.727-.041,1.178v.212l-.01.226-.017.465,0,.241,0,.467.125-.007,0,1.44,0,.219-.01.226,0,1.163,0,.234v.234l0,.234,0,.234v.065l0,.633.012.633.012.633.012.559v.19l0,.313h-.046l0,.277.031,3.229v.094l.012.619h-.075l.031,3.147-.06,0,.012.248-1.63-.007-.327,0-1.991-.01-.889.01-.342,0h-.222l-.667,0-1.423-.007-1.067,0-.267,0-.318,0-.364.07-.267.034-1.149.2-1.5.313-.58.128-.749.142-.927.214-.036-.161-.075-.072-.135-.046-.014-.043.01-.051.022-.065-.014-.053.046-.094-.029-.169-.053-.007h-.075l-.022-.089.014-.014.06.007.075-.012.029-.058.067-.022.014-.022-.029-.053-.06-.058.007-.022.039-.022.007-.029-.022-.046-.007-.036.014-.022h.046l.022-.014.017-.014v-.036l.014-.022.029.007.024.014.089-.012.106-.154.111,0,.039-.058.036-.029.039-.007.014-.014v-.053l.01-.058.067-.065.031-.1.053-.036.06-.029h.039l.022-.072.024-.058-.014-.053.031-.043-.024-.072.039-.154.036-.051,0-.087-.1.012-.036-.166-.067-.125-.007-.161-.022-.065-.029-.053-.067-.029-.022-.065.022-.06,0-.072-.053-.072-.014-.053-.053-.065-.014-.043.017-.075-.06-.2-.036-.1-.007-.053.031-.065-.031-.087-.036-.125.031-.065.024-.072-.017-.046.039-.043.024-.108.067-.065.067-.043.053.014.065.067.039.014.118-.051.053-.014.046.007.046.01.089-.036.075-.014.036-.036.01-.014.067-.087.046-.065.024-.046.029-.072v-.036l-.029-.043.014-.029.082-.029-.007-.1.053-.058.128-.019.1-.007.111-.022.031-.065-.022-.065.067-.089,0-.144.029-.051-.051-.046-.067-.036-.075-.014-.075-.017v-.051l.039-.072.039-.014.053.007.149-.094.082-.043.039.007.06-.012.082-.1.007-.087.06-.029.089.007.014-.036.031-.051.082-.079.067-.087L117.1,92.9l.007-.089-.022-.051.022-.043.1-.007.067.029.111-.019.046-.065.039-.036h.2l.111-.036.053-.043.082-.036.06-.065.031.01.089.108.125-.026.06-.043.024-.06.007-.065.067-.043.031-.036-.007-.036.039-.051.046-.079v-.053l-.022-.1v-.089l.046-.087.01-.087-.014-.1-.022-.072.014-.058-.036-.046.128-.224.1-.183-.029-.137-.046-.01-.075-.014-.125-.132-.007-.051.031-.029.053-.051-.007-.067.053-.058.031-.065.017-.116.036-.051.046-.075-.1-.154-.082-.043-.089-.212.017-.06v-.072l-.022-.058.039-.089.036-.036.024-.087.046-.116-.036-.1-.014-.007h-.067l-.029-.06-.067-.007-.029-.036.014-.094-.014-.06-.014-.051.007-.079,0-.06.014-.079.075-.108.022-.065-.014-.06.024-.13-.014-.046-.029-.036.046-.137v-.14l-.014-.094.046-.043.024-.082.031-.014.075-.036.022-.007-.007-.051.017-.058.039-.079-.031-.024v-.043l.039-.036.031-.022.007-.072-.022-.029.007-.036.06-.06-.014-.043.024-.159-.022-.1-.022-.029-.007-.065.014-.067.01-.036-.039-.036-.022-.043-.007-.039.022-.058-.029-.029-.014-.065.014-.06-.029-.072-.06-.1-.014-.058-.014-.065-.051-.067-.031-.014-.036-.043-.06-.024-.06-.014-.053-.043-.036-.053v-.051l-.031-.051-.022-.082-.014-.065-.043-.007-.053.007-.022-.067.014-.051-.075-.132-.067-.058-.067-.082-.058-.082.007-.058.833-2.316.2-.559.667-1.9.436-1.2.585-1.664.089-.234.082-.238.075-.241.039-.147.053-.072.075-.234.082-.234.082-.241.082-.234.06-.159.022-.067.082-.241.06-.166.039-.067.229,0,.236,0,.26,0,.222-.007.222,0,.243,0,.229,0,.236-.007.229,0,.222,0,.236-.007.236.01-.007-.2,0-.234,0-.255-.014-.212.01-.234,0-.946.01-.7,0-.248.01-.234-.007-.219,0-.212,0-.241-.007-.248.01-.241,0-.241,0-.219,0-.248-.007-.234.01-.234,0-.169.1,0,.243,0,.236-.007.236,0,.229,0,.243-.007.229,0,.236,0,.236-.007.207,0,1.385-.01.474,0,.482,0Z" transform="translate(-86.863 -52.442)"/>
      <path id="Lincoln_1_" class="cls-2" d="M237.582,221.28l.039,1.2.007.195.01.284.183,5.618.026.792.012.364.06,1.883,0,.034.026,2,0,.034L238,235.5v.024l.026,1.007.007.241.019.72.01.342,0,.024.019.571.014.354.01.248.022.59.024.7.012.349.27,7.5,0,.031.1,2.485-.761.026h-.031l-1.377.041-2.711.087-.86.019-.592.012-.253,0-1.134.027-.207.014-1.185.017-.007-.154-.349.014-.889.019-.178.007-.053,0-.229.007-.467,0-.229.007-.142,0-.282.007h-.046l-3.906.075-.214,0h-.051l-5.589.1,0,.176-2.023.036-.12-5.611-.01-1.394-.046-4.332,0-2.776-.058-5.254.667,0,2.312-.041.236-.007,2.29-.029.742-.019.7-.019.243-.007,2.312-.036.318,0,1.5-.031-.111-5.43-.019-.677-.055-2.572-.024-1.375.939-.027.409-.012.939-.019.771-.026.978-.019.5-.019h.236l.25,0Z" transform="translate(-162.942 -168.115)"/>
      <path id="Lyon_1_" class="cls-2" d="M21.381,153.981l.125.014.236.01.236.017.193.007.075,0,.178-.159.067-.072.214-.2.246-.238.277-.238.171-.166.039-.036.253-.241.171-.224.231-.217-.01.1.007.13-.171.043-.075.173-.01.234-.01.226-.01.234,0,.234-.01.226h-.132l-.017.262-.01.234,0,.234,0,.234,0,.219-.017.494,0,.219-.132-.007-.222-.01-.026.7-.01.248-.01.226,0,.234-.01.385,0,.108v.212l.229.01-.01.234.229.01,0,.226.229.01,0,.234.229.01-.017.234.243,0,0,.234.214,0-.01.234.275,0,0,.262.243.01-.01.234.243.01-.017.234.236,0,0,.234.253.01-.024.241.243,0-.017.45.3,0,0,.226.236.01-.01.226.236,0-.01.234.229.01,0,.248.229,0-.01.443.482,0-.01.616-1.962-.048h-.1l-1.269,1.991-.031,1.57,1.43.039-.024,1.394-.075,0L25.6,169.3l-.051,2.55v.255l-.053,1.4-1.377.007-.236-.01-1.491-.031-.253-.236-.539-.5-.258-.241-1.129-1.057.051-1.77-.236,0,.01-.486v-.029l0-.763,0-.147-.135,0-.222,0h-.125v.072l-.236,0v-.087l0-.486.075.007.024-.335,0-.378-.132,0,.007-.116H19.26l.01-.3.01-.291-.229-.01,0-.465.236.017.024-.45.026-.72.193-.012.01-.429.667.034h.154l.017-.123.253,0,.031-1.5-2.637-.1-.236-.01-.046-.075-.036-.051.007-.089-.007-.029-.014-.043-.036-.06-.007-.13,0-.284-.132-.147-.031-.08,0-.082-.031-.051.113-.166.039-.147.031-.058.031-.176-.036-.094-1.088-.043-.193-.1-.14-.067-.053-.031-.06-.108-.27-.5-.046-.1.474-.135.029-.007.178-.048.125-.043.111-.051.135-.065.1-.048.222-.108.1-.065.132-.063.246-.152.713-.33.214-.108.164-.087.075-.123.007-.014L20.6,155.23l.284-.5.135-.224.142-.248.12-.241Z" transform="translate(-12.05 -115.692)"/>
      <path id="Mineral_1_" class="cls-2" d="M59.871,196.635,55.592,197.8l-.014,1.344,2.2,2.519,4.113,4.635-5.6,6.1L55.1,213.688l-.306.332-.566.592-.8.889-.482,0-.392-.053h-.1l-.539-.506-.414-.385-.561-.523-.785-.734-1.375-1.286-.71-.665-.152-.142-.5-.474-.354-.335-.653-.609-.431-.4-.1-.1-.479-.445-.325-.306-1.51-1.416-.149-.14,1.491.031.236.01,1.377-.007.053-1.4v-.255l.051-2.55.007-1.387.075,0,.024-1.394-1.43-.039.031-1.57,1.269-1.991h.1l1.963.048.421.01,1.594.024,1.413.022,1.534.038,2.422.034,2.377.012Z" transform="translate(-33.02 -149.248)"/>
      <path id="Nye_1_" class="cls-2" d="M122.538,191.29l4.915,3.193.59.395.371.255.937.614.082.043,1.536,1.009,1.847,1.218.243.154.222.161.4.262.385.248.024,1.375.055,2.572.019.677.111,5.43-1.5.031-.318,0-2.312.036-.243.007-.7.019-.742.019-2.29.029-.236.007-2.312.041-.667,0,.058,5.254,0,2.776.046,4.332.01,1.394.12,5.611.034,2.507,0,.255.01,1.156,0,.029.007.169.017,1.365,0,.32,0,.3.007.079.026,2.377,0,.262.022,1.551,0,.559,0,.713,0,.378.017,1.462-.3-.279-.45-.417-.537-.5-.742-.7-.176-.164-.544-.51-.327-.306-.544-.513-.039-.034-.761-.718-.684-.641-.157-.149-1.043-.966-1.767-1.645-.183-.171-.445-.414-.2-.183-.267-.248-.792-.746-.034-.031-.234-.219-.385-.356-1.081-1-.684-.638-.039-.036-.457-.431-.137-.128-.419-.388-.523-.484-.183-.169-.034-.031-.306-.284-2.052-1.912v-.017l0-.775,0-1.141,0-1.307,0-.32v-.043l-.022-8.11,0-.465v-.241l0-.241.012-3.9-.686-.746-.253,0,.01-.255-.022-.1-.308-.366-5.336-6.114-4.113-4.635-2.2-2.519.014-1.344,4.279-1.163,1.016-.272.927-.214.749-.142.58-.128,1.5-.313,1.149-.2.267-.034.364-.07.318,0,.267,0,1.067,0,1.423.007.667,0h.222l.342,0,.889-.01,1.991.01.327,0,1.63.007.171-.007,1.305,0,1.645-.017,1.421-.01,2.261-.034Z" transform="translate(-71.359 -145.346)"/>
      <path id="Pershing_1_" class="cls-2" d="M61.6,77.8l-.075.241-.082.238-.089.234-.585,1.664-.436,1.2-.667,1.9-.2.559-.833,2.316-.925.024-1.214,0-.554,0-2.762-.043-1.413.022-.482,0-.236-.01-.236-.007-.243,0-.222,0-.243,0-.229-.017-.236,0L49.41,86.1l-.236,0h-.185l-.222,0-.236-.01-.474.012-.236,0-.258,0-.222,0-.236,0-.236-.01-.236,0h-.222l-.229-.01-.082,0-.185-.007-.229,0-.246-.01-.229,0-.222-.01-.207,0-.243-.017-.236,0-.236-.01-.229,0L43.6,86l-.178,0h-.2l-.238-.01-.27.024-.229-.01-.236,0-.229,0-.229,0-.236,0-.236-.01-.238,0-.236-.01-.229,0-.214-.01-.236-.01-.243-.01-.229-.01-.243-.01-.222,0-.236-.01-.236,0-.474-.017-.243,0-.178-.007-.229-.01-.236,0-.243-.01-.681-.012.06-2.567.01-.144.149-5.615.3.01.014-1.069.01-.116.017-.641.029-.922.07-1.688.017-.472.024-.458.01-.226.039-1.469L39,70.521l.881.019,1.649.01,1.377.031.636.024,0,.291-.01.407,0,.2-.019.792.111,0,1.067.034.229,0,1.56.024h.029l.214,0,.25,0h.236l.229,0,.25,0,.2,0,.236,0,.243.01.229,0,.222.01.265,0,.2,0,.236,0h.236l.229,0,.243,0,.253,0,.185.01.289,0,.243,0,.229,0,.222,0,.236.01h.207l.229.01.25,0,.236,0,.222,0,.267,0h.185l.229,0,.236,0,.243,0,.236,0,.253,0,.236,0,1.156.012.214,0h.229l.243.01.236,0,.236,0,.2,0V72.7l0,1.178,0,.421,0,.255-.01.255,0,.458.429,0,.236,0,.243,0,.236,0,.282,0h.207l.222.01.258,0,.207,0,.474.01,1.368.007v.2l0,.241,0,.241v.226l0,.248,0,.226.014.241-.01.226Z" transform="translate(-27.751 -53.627)"/>
      <path id="Storey_1_" class="cls-2" d="M15.7,164.98l-.014-.036v-.014l-.007-.079.246,0v-.234l.01-.111.207,0v-.13l.01-.226.01-.234.01-.234.243.01,0-.226-.118,0,.01-.234-.125-.01.01-.241h-.111l0-.219.125.007,0-.255.25,0,.048-.677-.518-.024.043-1.214.132.051.067.039.067.036.039.024.046.036.022.014.014.014.022.046h.024l.046.022.067.014.043.01.082-.022.06-.036.053-.029.075-.014.075-.012.014-.007.089-.051.067-.079.082-.087.053-.079.067-.065.039-.029.067-.1.082.017.082-.007.075-.007.067-.026.014-.014.053-.022.046-.029.039-.051-.022-.1h.031l.043-.014.046,0h.039l.022-.022.017-.029.014-.022h.039l.029.007.039-.007.022.022h.014l.024.01H18.3l.039-.014.031.014.029.007.082.01.06-.007.031-.007h.067l.118-.019h.053l.046.014.014.007.039-.022v-.137l.017-.036.014-.024.007-.022.039-.051.039-.022.007-.036-.007-.058.053-.014.022.029.039.039.053.036.089.007.046,0,.067-.007.06-.007.082-.029.029-.007.039,0,.014-.007.067.022.089.046.029.007h.031l.06-.007.075-.007.067,0h.014l.024.007H20.1l.053-.014.031-.022.022-.036.014-.014.01-.022.014-.022.046-.022h.036l.031-.007.053.017h.067l.067-.029.017-.007.1-.043.067-.012.046-.036.022-.029.053-.029.014-.007.031-.022.031-.029.022-.014.053-.022.067-.043.082-.058.022-.022.053-.022.053-.108.089.118-.1.012-.12.241-.142.248-.135.224-.284.5L18.8,163.54l-.007.014-.075.123-.164.087-.214.108-.713.33-.246.152-.132.063-.1.065-.222.108-.1.048-.135.065-.111.051-.125.043-.178.048-.029.007Z" transform="translate(-11.967 -120.854)"/>
      <path id="Washoe_1_" class="cls-2" d="M10.127.765l-.036,2.191-.06,0L9.992,4.346l-.019.961-.01.226L9.908,7.206v.022h.029l.046,0-.029,1.04L9.915,9.6l-.012.482.25,0-.01.392-.036,1.062-.017.429-.019.453-.017.515H9.9l-.161,0-.1,3.771,0,.662.243,0-.039,1.469-.01.226-.024.458L9.8,19.99l-.07,1.688L9.7,22.6l-.017.641-.01.116-.014,1.069-.3-.01L9.2,30.031l-.01.144-.06,2.567.681.012.243.01.236,0,.229.01-.01.219-.01.234,0,.241-.017.465,0,.241,0,.207.207,0-.01.255-.01.234,0,.234-.01.234,0,.234-.01.262.236,0-.024.234-.01.144.236,0-.007.089,0,.465-.017.465,0,.19,0,.234-.01.234-.236-.01-.01.234,0,.27v.219l0,.075-.178.159-.075,0-.193-.007-.236-.017-.236-.01L9.753,38.8l-.089-.118-.053.108-.053.022-.022.022-.082.058-.067.043-.053.022-.022.014L9.281,39l-.031.022-.014.007-.053.029-.022.029-.046.036-.067.012-.1.043-.017.007-.067.029H8.793L8.74,39.2l-.031.007H8.672l-.046.022-.014.022-.01.022-.014.014-.022.036-.031.022-.053.014H8.46l-.024-.007H8.422l-.067,0-.075.007-.06.007h0l-.029-.007L8.1,39.307l-.067-.022-.014.007-.039,0-.029.007-.082.029-.06.007-.067.007-.046,0-.089-.007L7.557,39.3l-.039-.039L7.5,39.235l-.053.014.007.058-.007.036-.039.022-.039.051-.007.022-.014.024-.017.036v.137l-.039.022-.014-.007-.046-.014H7.177l-.118.019H6.991l-.031.007-.06.007-.082-.01-.029-.007-.031-.014-.039.014H6.683l-.024-.01H6.645l-.022-.022-.039.007-.029-.007H6.517l-.014.022-.017.029-.022.022H6.426l-.046,0-.043.014H6.305l.022.1-.039.051-.046.029-.053.022-.014.014-.067.026-.075.007-.082.007-.082-.017-.067.1-.039.029-.067.065-.053.079-.082.087-.067.079-.089.051-.014.007-.075.012-.075.014-.053.029-.06.036-.082.022L5,40.552l-.067-.014-.046-.022H4.865l-.022-.046-.014-.014-.022-.014L4.762,40.4l-.039-.024-.067-.036-.067-.039-.132-.051-.043,1.214.518.024-.048.677-.25,0,0,.255L4.5,42.415l0,.219h.111l-.01.241.125.01-.01.234.118,0,0,.226-.243-.01-.01.234-.01.234-.01.226v.13l-.207,0-.01.111V44.5l-.246,0,.007.079v.014l.014.036.046.1H4.092l-.236-.01L3.628,44.7l-.01.241-.236-.01,0,.226-.229,0-.171.108-.2,0H2.715l-.01.108-.207-.01-.007.154-.111-.01,0,.111-.111,0-.01.234-.443-.01.007.089-.349-.017L.49,45.881l0-.169L.519,45l0-.4.012-.619v-.06l.01-.209L.56,43.48v-.017l0-.222.012-.248L.6,42.529l.012-.27.01-.226.01-.212.019-.479,0-.022.012-.212L.685,40.4.7,39.93l0-.219.026-.727.007-.176.01-.248.01-.241.026-.725.007-.2.01-.234.01-.241,0-.217,0-.024.012-.2,0-.024.012-.2,0-.039.007-.2,0-.046.012-.2v-.031l.012-.2L.952,33.61l.007-.171.01-.214.014-.25.01-.193.051-1.031.01-.185v-.046l.01-.157.007-.243.014-.349,0-.063.017-.5.024-.725.017-.465.01-.234.01-.226,0-.046.01-.2.034-.778,0-.212.026-1,.029-.742,0-.079.01-.32.026-1.062,0-.169.007-.32.019-.566,0-.125.007-.32.029-1.149.029-1.047.017-.669,0-.14.014-.494,0-.2.039-1.411.046-1.413L1.6,14.2l.026-.71.01-.222.022-.653.034-.677.046-1.4.157-4.621.019-.547.01-.364.039-1.471L2.007,2l0-.1.017-.364,0-.311L2.041.5,3.7.541h.01l.414.017L4.28.565l.236.012.039,0L4.88.6l1.548.06L7.355.7,7.95.724h.017L8,.719l.077,0,.019,0L9.739.758Z" transform="translate(-0.435 -0.498)"/>
      <path id="White_Pine_1_" class="cls-2" d="M235.391,125.34l.084,2.189.043,1.228.077,2.066.017.472.06,1.611.048,1.659.034,1.177.007.234.022.775.01.4.007.241.012.409.024.761,0,.212.029,1v.019l.034,1.56.012.515.024,1.064,0,.241v.106l0,.017.031.686.022.472.043.908.01.217.014.3v.022l.024.691.014.443,0,.1.024.72.019.583-6.9.207-.25,0h-.236l-.5.019-.978.019-.771.026-.939.019-.409.012-.939.026-.385-.248-.4-.262-.221-.161-.243-.154-1.847-1.218-1.536-1.009-.082-.043-.937-.614-.371-.255-.59-.395-4.915-3.193,0-2.136,0-.436-.007-.241-.026-2.037.154.053.246-.079.06-.043.053-.123-.043-.082-.017-.072.046-.079.075-.036.089-.111.007-.043-.007-.029V135.7l.1-.147.039-.014.067-.051.031-.108.067-.116.01-.1-.046-.058-.043-.1-.031-.087-.014-.067.017-.1.053-.072.024-.036.043-.065.149-.234.014-.089-.014-.087-.075-.132.039-.072-.022-.111-.06-.108-.043-.183v-.111l-.029-.051.046-.072.024-.065-.007-.161-.007-.1V132.9l0-.118-.014-.087-.082-.082,0-.327.01-.176-.014-.147.06-.051.039-.043.014-.058.039-.014.053-.036.039-.08.014-.089-.029-.072v-.14l0-.087.007-.1.031-.094.007-.118-.065-.152-.022-.169.039-.082.046-.051.036-.051.039-.065.046-.065.024-.1-.024-.043.017-.058.014-.051.01-.111-.111-.132.031-.108v-.065l-.051-.176-.022-.1.007-.087.031-.06.014-.079-.075-.154-.075-.094-.029-.082-.014-.079.014-.051.017-.125v-.1l-.014-.075-.022-.043-.089-.27-.043-.065-.06-.1-.014-.043-.014-.132v-.043l.007-.058,0-.118.046-.217.022-.053-.007-.065-.036-.051-.036-.132.039-.065.046-.075v-.094l-.053-.087-.067-.075-.007-.043.039-.075-.007-.079-.043-.072.007-.154.039-.022.031-.058.039-.132-.007-.072-.014-.075-.089-.19,1.724-.031,1.139-.01.925.017.9-.019h.147l.645-.012,1.835-.024,2.5-.029,2.813-.036,1.452-.024.5-.007.229,0,1.267-.012,3.761-.087Z" transform="translate(-161.515 -95.277)"/>
    </g>
    <path id="Path_34" data-name="Path 34" class="cls-3" d="M76.416,92.816l-.128-4.132-.012-.4-.039-1.074-.075-2.107L76.11,83.6l0-.048-.01-.241-.012-.3-.1-2.485,0-.031-.27-7.5-.012-.349-.024-.7-.022-.59-.01-.248-.014-.354-.019-.571,0-.024-.01-.342-.019-.72-.007-.241-.026-1.007v-.024l-.051-1.82,0-.034-.026-2,0-.034-.06-1.883-.012-.364-.026-.792-.183-5.618L75.178,55l-.007-.2-.039-1.2-.019-.583-.024-.72,0-.1-.014-.443-.024-.691v-.022l-.014-.3-.01-.217-.043-.908-.022-.472-.031-.686,0-.017v-.106l0-.241L74.9,47.036l-.012-.515-.034-1.56v-.019l-.029-1,0-.212-.024-.761-.012-.409-.007-.241-.01-.4-.022-.775-.007-.234L74.7,39.723l-.048-1.659-.06-1.611-.017-.472L74.5,33.915l-.043-1.228L74.371,30.5l-.031-.8-.026-.768-.087-3.41-.046-2.013-.017-.785-.007-.359,0-.1-.026-1.185-.01-.417-.007-.311-.01-.431,0-.262v-.046L74.032,17.6l-.007-.234-.01-.332,0-.111L74,16.691l-.01-.234,0-.1v-.149l0-.07,0-.169,0-.2-.01-.241-.01-.248-.01-.226,0-.063,0-.185,0-.084,0-.157,0-.077,0-.125-.007-.106,0-.149-.01-.241-.007-.234,0-.055,0-.185,0-.07,0-.171-.007-.2-.01-.255-.007-.234-.01-.234-.01-.248-.01-.234-.007-.19-.01-.27-.01-.234-.01-.234,0-.039,0-.209v-.046l0-.164,0-.06,0-.135,0-.1,0-.164-.007-.234-.01-.241,0-.046-.012-.2,0-.046,0-.185,0-.075,0-.12,0-.111,0-.144-.007-.234L73.7,8.022l0-.053-.007-.2V7.735l0-.075-.007-.152,0-.188,0-.046,0-.2-.01-.241-.026-.715-.01-.234L73.6,5.214l-.01-.27-.01-.241-.024-.684-.034-.946-.01-.219-.017-.45-.026-.715-.017-.45L73.44.981l0-.217V.74L73.423.42h-.01l-.092,0L72,.456l-.8.022-.236,0-.431.012h-.041L69.82.521l-.482.012L69.1.54,67.47.581l-.71.012h-.014l-.214,0-.236,0-.2,0H64.855l-.672,0-.243,0-.258,0-.039,0-.176.01-.214.012-.031,0L63,.637l-.207.012L62.322.68l-.207.01-.633.024L60.4.745,59.3.784l-.063,0-.106,0L57.846.8l-.414,0L57.2.81l-.2,0-.53.007-.188,0-.236,0L54.113.856,52.777.875,51.06.894,50.9.9l-.734.01-.1,0-.438,0L48.262.9l-.169,0-.224,0L45.514.926l-.031,0-.2,0-.5,0-2.232,0-.072,0H41.45L37.806.926l-.142,0h0L35.254.942,34.587.95l-1.363,0L32.153.938h-.169l-.313,0-.337,0-.645,0-.053,0-.414,0L30,.928l-.467,0h-.082l-.686,0h-.01l-.4,0-.267,0L26.92.909,25.81.9l-.282,0H25.1l-.681,0-.236,0-.479,0-.226.027h-.243l-.939,0-.445,0-.472,0L20.9.9,18.955.887,16.79.868h-.048L15.172.827,13.5.774,12.333.755,10.182.711,9.792.7,8.145.673l-.019,0-.077,0L8.02.67H8L7.411.644,6.484.6,4.935.543,4.61.526l-.041,0L4.333.511,4.179.5,3.768.487h-.01L2.1.446l-.019.722-.01.323-.014.361,0,.1L2,3.5,1.964,4.971l-.01.364-.019.547L1.779,10.5l-.046,1.4-.034.674-.022.653-.01.222-.026.71-.065,1.907L1.531,17.48l-.039,1.411,0,.2-.014.494,0,.14-.017.669-.029,1.045-.029,1.149-.007.32,0,.125-.019.566-.007.32,0,.169-.026,1.062-.01.32,0,.079-.029.742-.026,1,0,.212-.034.778-.01.2,0,.046-.01.226-.007.231-.017.465-.024.725-.017.5,0,.063-.014.349-.007.243-.01.157v.046l-.01.185-.051,1.031-.01.193-.014.25-.01.214L1,33.561.924,35.5l-.012.2v.031l-.012.2,0,.046-.007.2,0,.039-.012.2,0,.024-.012.2,0,.024,0,.217-.01.241-.01.234-.007.2L.8,38.271l-.01.241-.01.248-.007.176-.026.727,0,.219-.012.472-.019.706L.7,41.271l0,.022-.019.479-.01.212-.01.226-.012.27-.014.46-.012.248,0,.219v.014L.6,43.655l-.01.209v.06l-.012.619,0,.4-.026.713,0,.169-.017.864-.012.7L.5,48.466l.609.568.38.356.053.051.154.147.674.638.255.243.046.043.395.368L3.1,50.9l.431.4.111.1.176.171.308.294.308.287.754.7.1.089.135.125.255.236.3.284.031.029,1.17,1.1.063.058L8.7,56.152l1.129,1.057.258.241.539.5.253.236.149.14,1.51,1.416.325.306.479.445.1.1.431.4.653.609.354.335.5.474.152.142.71.665L17.623,64.5l.785.734.561.523.414.385.539.506.409.378.465.436.872.816,1.3,1.218.949.886.361.342.308.294.421.395.893.843,1.474,1.38.024,0,1.055.987.137.128.71.665.542.5.71.665.087.082.094.089.775.718.079.075,1.991,1.861.718.672.116.106.116.1.282.27.176.157.968.91h0v.017l2.052,1.912.306.284.034.031.183.169.523.484.419.388.137.128.458.431.039.036.684.638,1.081,1,.385.356.234.219.034.031.792.746.267.248.2.183.445.414.183.171,1.767,1.645,1.043.966.157.149.684.641.761.718.039.034.544.513.327.306.544.51.176.164.742.7.537.5.45.417.3.279L55.209,99.6l.494.46.043,0,.26.248.491.462.739.681.188.178,1.257,1.165.159.149,2.589,2.413.144.135.043.046.674.621.628.59.248.234.238.224.39.359.224.209.616.576.426.395.2.181,1.438,1.344.737.7.282.262.14.144.279.253.128.118.236.219.243.234.024.024.214.2.354.332-.024-.089-.007-.029-.012-.06,0-.034,0-.039,0-.046,0-.051,0-.087.007-.1.039-.1.024-.041.063-.07.077-.06.012-.01.053-.031.06-.034.031-.055.014-.026.031-.1-.017-.084-.026-.063-.053-.058-.063-.048-.031-.034-.017-.012-.053-.041-.036-.012-.026-.012-.014,0-.031-.012-.046-.019-.084-.039-.048-.031-.031-.019-.036-.072,0-.051.036-.06.075-.094.07-.043.075-.043.063-.014.024,0,.082-.019.111,0,.132-.014.1-.019.082-.026.06-.06.007-.017.039-.092.01-.048-.007-.07,0-.024-.01-.051,0-.026.012-.067.039-.116,0-.043,0-.072,0-.014,0-.053,0-.036,0-.022,0-.046-.022-.094-.026-.1,0-.075-.019-.063-.017-.034-.017-.031-.043-.041-.029-.067,0-.092,0-.046,0-.065,0-.024-.01-.063-.019-.067-.017-.077-.012-.06,0-.055-.01-.077-.01-.075,0-.07,0-.039-.022-.123,0-.012-.041-.137-.058-.113-.01-.063,0-.031-.024-.108v-.1l0-.019.012-.116.01-.082.012-.091-.029-.075-.017-.07-.01-.046-.029-.1,0-.012-.039-.1-.007-.019-.072-.132-.053-.161-.012-.034-.094-.265-.01-.031-.373-.722-.111-.19-.007-.01-.106-.185-.026-.053-.043-.092-.039-.142-.026-.084-.026-.087,0-.014-.019-.06-.017-.051,0-.019-.01-.031.007-.159,0-.014.012-.06.031-.043.01-.012.034-.039.039-.046.034-.039.014-.017.017-.019.024-.034.031-.051.007-.036-.007-.029-.022-.041-.029-.075-.017-.075,0-.019-.017-.089,0-.034.01-.043-.014-.053-.029-.084-.029-.053-.053-.034-.039-.031V103.5l0-.036.036-.024.07-.034.01,0,.048-.041.017-.014.026-.024.026-.039,0-.058.017-.082,0-.094-.012-.034-.007-.024-.029-.072-.036-.034-.039-.024-.053-.029-.041-.048-.01-.046-.007-.036-.029-.053L68.5,102.6l-.055-.055-.053-.039-.026-.051-.024-.051-.022-.13.014-.089,0-.012.012-.053.014-.06.01-.036.012-.043.01-.031,0-.026,0-.024v-.043l-.01-.039-.034-.041-.039-.029-.07-.048-.048-.041-.014-.012-.055-.063-.034-.07-.01-.065,0-.072.012-.067.019-.055.007-.022.039-.087.022-.111.007-.043.01-.046-.014-.065-.017-.051-.012-.029,0-.053.019-.043.012-.051,0-.024-.014-.034-.024-.046-.026-.051-.01-.063,0-.084,0-.063,0-.041,0-.031,0-.084-.039-.094L68.038,100l-.022-.022-.031-.029-.029-.058V99.85l.024-.034L68,99.782l.012-.012.019-.012.019-.019.019-.06.012-.039,0-.041.017-.031.031-.034.019-.039.007-.014-.007-.043L68.13,99.4l-.039-.055-.019-.034-.014-.022-.019-.039-.024-.048,0-.036.012-.031.043-.022.036,0,.017,0,.029-.007.039-.022.022-.036.012-.017.007-.01L68.248,99l.051-.024.075-.029.082-.051.039-.012.024-.007.034-.01.031-.017.007-.034-.014-.022-.039-.022-.06-.017-.067-.058-.024-.036-.01-.014-.077-.075-.1-.077-.089-.091-.031-.031-.029-.034-.031-.034-.031-.06-.026-.055v-.082l.01-.079-.017-.055-.043-.089-.1-.07-.063-.055-.063-.034-.039-.048,0-.026,0-.031,0-.106,0-.07-.019-.079-.055-.048-.065-.113-.031-.087-.029-.077,0-.036,0-.036.046-.1,0-.067-.01-.058-.014-.084.007-.06.014-.026.019-.034.07-.053.055-.07.041-.053.026-.06-.012-.041-.046-.036-.039-.048-.046-.019-.055-.019-.022-.034-.007-.07.007-.043.029-.026.031-.046-.014-.06-.024-.048-.034-.075-.026-.067-.039-.055-.063-.055-.055-.063-.019-.063.026-.111.048-.055.079-.089.082-.058.082-.034.1-.031.154-.012.063-.017L68,95.014,68.034,95l.029-.024.06-.029.048.012.063,0,.029,0,.058-.031.01,0,.063-.034.01,0,.06-.039.029-.034.01-.01.039-.046.029-.029.039-.051.055-.048L68.7,94.6l.075-.026.041-.046.053-.026.031-.022h.053l.041.041.017.041.022.043.053.014.048,0,.058-.017.058-.046.067-.06.01-.01.063-.048.111-.079.135-.041.1-.012.082-.019.1-.019.065-.017.092.024.06.043.053.029h.053l.039-.022.039-.034.075-.017.06-.007.046.014.046.026.034.063-.01.029-.029.036-.046.036-.024.046v.051l.022.051.053.041.082-.012.089-.027.142-.089.116-.077.065-.041.053,0,.058.022.051.06.06.084.06.029.067.036.087-.077.007-.007.106-.082.01-.007.075-.07.084-.07.084-.01.1-.014.1.024.084.024h.111l.075.036.082.079.031.075.075.075.051.043.06.046.06.089.01.017.034.058.055.039.07.034.014,0,.053.019.036.036.039.051.039.067.051.07.043.053.039.065.014.072-.024.075-.051.048-.01.01-.046.053-.007.063.039.053.067.029.053-.007.065-.01.053.026.067.036.043.053.06.026.084.017.058.019.036.07.012.1.024.1.118.1.161.082.07.041.091.017.125-.014.14-.036.152-.06.106-.048.067-.019.053-.046.077-.041.026,0,.063-.01.075.01.063,0,.082.007.046-.007.046-.029,0-.014.019-.053,0-.029.026-.026.046-.06.031-.065v-.111l0-.116.031-.132.067-.185.06-.154.06-.072.031-.051.007-.06-.019-.036-.041-.048-.048-.046,0-.075.034-.067.058-.039.079-.034.084-.046.031-.058.031-.123.039-.1.077-.108.051-.118.077-.159.06-.169,0-.017.01-.019.029-.07.084-.111.007-.01.1-.082.075-.019v-.154Z" transform="translate(-0.442 -0.42)"/>
  </g>
</svg>
