<svg xmlns="http://www.w3.org/2000/svg" viewBox="0 0 13.112 16">
  <defs>
    <style>
      .cls-1 {
        opacity: 0.35;
      }

      .cls-2, .cls-3 {
        fill: none;
        stroke-linejoin: bevel;
        stroke-miterlimit: 10;
      }

      .cls-3 {
        stroke: #fff;
        stroke-width: 2px;
      }

      .cls-4, .cls-5 {
        stroke: none;
      }

      .cls-5 {
        fill: #fff;
      }
    </style>
  </defs>
  <g id="Group_1169" data-name="Group 1169" class="cls-1" transform="translate(-1247.931 -613)">
    <g id="Path_790" data-name="Path 790" class="cls-2" transform="translate(1247.431 612.6)">
      <path class="cls-4" d="M13.612,3.779A14.439,14.439,0,0,1,7.056,16.4,14.439,14.439,0,0,1,.5,3.779C3.042,3.779,7.056.4,7.056.4S11.186,3.779,13.612,3.779Z"/>
      <path class="cls-5" d="M 7.060981750488281 1.673288345336914 C 6.624005794525146 2.008203506469727 5.994232177734375 2.468833923339844 5.269708633422852 2.932051658630371 C 3.841129302978516 3.845409393310547 2.585990905761719 4.423208236694336 1.522617340087891 4.658336639404297 C 1.604957580566406 6.24498462677002 1.911736488342285 7.749309539794922 2.437658309936523 9.140811920166016 C 2.934768676757812 10.45608139038086 3.628878593444824 11.67761135101318 4.500738143920898 12.77148151397705 C 5.487754821777344 14.00984764099121 6.48704719543457 14.80806541442871 7.057741165161133 15.21066379547119 C 7.614967823028564 14.81894969940186 8.579431533813477 14.04913520812988 9.556048393249512 12.84019184112549 C 10.44166851043701 11.74389171600342 11.14739799499512 10.51748085021973 11.65363883972168 9.195021629333496 C 12.19314193725586 7.785661697387695 12.50699710845947 6.260293960571289 12.58973598480225 4.649918556213379 C 10.56809616088867 4.178586006164551 8.199973106384277 2.533562660217285 7.060981750488281 1.673288345336914 M 7.055958271026611 0.4000015258789062 C 7.055958271026611 0.4000015258789062 11.1859188079834 3.779061317443848 13.61191844940186 3.779061317443848 C 13.61191844940186 12.78989219665527 7.055958271026611 16.40000152587891 7.055958271026611 16.40000152587891 C 7.055958271026611 16.40000152587891 0.4999980926513672 12.78989219665527 0.4999980926513672 3.779061317443848 C 3.041518211364746 3.779061317443848 7.055958271026611 0.4000015258789062 7.055958271026611 0.4000015258789062 Z"/>
    </g>
    <g id="Group_1165" data-name="Group 1165" transform="translate(1251.513 618.458)">
      <path id="Path_791" data-name="Path 791" class="cls-3" d="M18.821,19.3l-3.755,3.755L12.9,20.888" transform="translate(-12.9 -19.3)"/>
    </g>
  </g>
</svg>
