<svg xmlns="http://www.w3.org/2000/svg" viewBox="0 0 16.39 20">
  <defs>
    <style>
      .cls-1, .cls-2 {
        fill: none;
        stroke-linejoin: bevel;
        stroke-miterlimit: 10;
      }

      .cls-2 {
        stroke: #7ee6ff;
        stroke-width: 2px;
      }

      .cls-3, .cls-4 {
        stroke: none;
      }

      .cls-4 {
        fill: #7ee6ff;
      }
    </style>
  </defs>
  <g id="Group_1168" data-name="Group 1168" transform="translate(-0.5 -0.4)">
    <g id="Path_790" data-name="Path 790" class="cls-1">
      <path class="cls-3" d="M16.89,4.624C16.89,15.887,8.695,20.4,8.695,20.4S.5,15.887.5,4.624C3.677,4.624,8.695.4,8.695.4S13.857,4.624,16.89,4.624Z"/>
      <path class="cls-4" d="M 8.702507972717285 1.67497444152832 C 8.160947799682617 2.095365524291992 7.315674781799316 2.722637176513672 6.32746696472168 3.354440689086914 C 4.470130920410156 4.541923522949219 2.858366012573242 5.267759323120117 1.518583297729492 5.521611213684082 C 1.605834007263184 7.615049362182617 1.999983787536621 9.598199844360352 2.693537712097168 11.42847156524658 C 3.326497077941895 13.09881210327148 4.210066795349121 14.64970207214355 5.319697380065918 16.03807067871094 C 6.652265548706055 17.70536613464355 8.001299858093262 18.74201583862305 8.696511268615723 19.21713829040527 C 9.379609107971191 18.75204277038574 10.6913948059082 17.74523162841797 12.0145378112793 16.10734176635742 C 13.13805770874023 14.7165412902832 14.03334712982178 13.16074180603027 14.67552757263184 11.48316192626953 C 15.38276672363281 9.635616302490234 15.78400611877441 7.631829261779785 15.87158012390137 5.515190124511719 C 14.57245540618896 5.255831718444824 12.98021030426025 4.533077239990234 11.1207275390625 3.357082366943359 C 10.11837005615234 2.72315788269043 9.254469871520996 2.094100952148438 8.702507972717285 1.67497444152832 M 8.694947242736816 0.4000015258789062 C 8.694947242736816 0.4000015258789062 13.85739707946777 4.623830795288086 16.88989639282227 4.623830795288086 C 16.88989639282227 15.88736152648926 8.694947242736816 20.40000152587891 8.694947242736816 20.40000152587891 C 8.694947242736816 20.40000152587891 0.4999980926513672 15.88736152648926 0.4999980926513672 4.623830795288086 C 3.676897048950195 4.623830795288086 8.694947242736816 0.4000015258789062 8.694947242736816 0.4000015258789062 Z"/>
    </g>
    <g id="Group_1165" data-name="Group 1165" transform="translate(4.977 7.223)">
      <path id="Path_791" data-name="Path 791" class="cls-2" d="M20.3,19.3l-4.693,4.693L12.9,21.286" transform="translate(-12.9 -19.3)"/>
    </g>
  </g>
</svg>
