<svg xmlns="http://www.w3.org/2000/svg" viewBox="0 0 112.961 104.607">
  <defs>
    <style>
      .cls-1 {
        opacity: 0.35;
      }

      .cls-2, .cls-3 {
        fill: none;
        stroke: #fff;
        stroke-linejoin: bevel;
        stroke-miterlimit: 10;
      }

      .cls-2 {
        stroke-width: 0.25px;
      }
    </style>
  </defs>
  <g id="Group_981" data-name="Group 981" class="cls-1" transform="translate(-0.298 0.147)">
    <path id="Path_580" data-name="Path 580" class="cls-2" d="M242.783,246.3l-.183.293.367-.147Z" transform="translate(-197.464 -200.851)"/>
    <path id="Path_581" data-name="Path 581" class="cls-2" d="M266.365,214.4l-.165.147.238.312.238-.238Z" transform="translate(-216.737 -174.801)"/>
    <path id="Path_582" data-name="Path 582" class="cls-2" d="M219.875,131.6v.4s-.2.165-.2.238-.037.257,0,.312a1.615,1.615,0,0,1,.092.183l-.11.66.11.275-.055,1.009-.055.238.458.037v-.183l.165-.073.147.183-.2.33-.275-.073-.073.22.165.312-.44.4.348.128.147.477.513.092.44-.348-.128-.238-.55.147-.055-.348.275-.165-.092-.33.4-.532-.2-.348-.275-.128-.183-.44.2-.458-.257-.2.128-.22.22-.073-.037-.257-.33-.073-.128-.238.147-.257-.018-.257.183-.312Z" transform="translate(-178.681 -107.183)"/>
    <path id="Path_583" data-name="Path 583" class="cls-2" d="M229.1,153.7a2.738,2.738,0,0,1,.477.037l.44.128v.33l-.4-.293s-.275.073-.33.037C229.228,153.92,229.1,153.7,229.1,153.7Z" transform="translate(-186.439 -125.231)"/>
    <path id="Path_584" data-name="Path 584" class="cls-2" d="M236.1,155.1l.128.238.275-.2Z" transform="translate(-192.156 -126.374)"/>
    <path id="Path_585" data-name="Path 585" class="cls-2" d="M235.437,152l-.037.22.33.092.092-.238Z" transform="translate(-191.584 -123.843)"/>
    <path id="Path_586" data-name="Path 586" class="cls-2" d="M235.1,148.937l.055.293h.458l-.257-.33Z" transform="translate(-191.339 -121.311)"/>
    <path id="Path_587" data-name="Path 587" class="cls-2" d="M237.92,144.7l-.183.9.312-.055-.348-.733Z" transform="translate(-193.462 -117.881)"/>
    <path id="Path_588" data-name="Path 588" class="cls-2" d="M235.6,145l-.2.183.312.165Z" transform="translate(-191.584 -118.126)"/>
    <path id="Path_589" data-name="Path 589" class="cls-2" d="M232.373,149.8l-.073.238.312.055.037-.257Z" transform="translate(-189.053 -122.046)"/>
    <path id="Path_590" data-name="Path 590" class="cls-2" d="M228.033,150.6l-.733.257.238-.257.458.33Z" transform="translate(-184.969 -122.699)"/>
    <path id="Path_591" data-name="Path 591" class="cls-2" d="M230.965,147.4l-.165.348h.275Z" transform="translate(-187.828 -120.086)"/>
    <path id="Path_592" data-name="Path 592" class="cls-2" d="M228.7,148.937l.257-.037-.055.33Z" transform="translate(-186.113 -121.311)"/>
    <path id="Path_593" data-name="Path 593" class="cls-2" d="M227.3,146.4v.293l.128.073.2-.367Z" transform="translate(-184.969 -119.269)"/>
    <path id="Path_594" data-name="Path 594" class="cls-2" d="M229.612,145.9l-.312.385h.275Z" transform="translate(-186.603 -118.861)"/>
    <path id="Path_595" data-name="Path 595" class="cls-2" d="M229.91,143.1l-.11.22.348.165.055-.092Z" transform="translate(-187.011 -116.575)"/>
    <path id="Path_596" data-name="Path 596" class="cls-2" d="M226.868,141.9h-.477l.128-.7-.22.2Z" transform="translate(-184.153 -115.023)"/>
    <path id="Path_597" data-name="Path 597" class="cls-2" d="M228.9,139.855l.073.257.293-.055V139.8Z" transform="translate(-186.276 -113.88)"/>
    <path id="Path_598" data-name="Path 598" class="cls-2" d="M232.265,139.8l-.165.2.2.092Z" transform="translate(-188.889 -113.88)"/>
    <path id="Path_599" data-name="Path 599" class="cls-2" d="M235.1,142.1l.44.037-.055.33Z" transform="translate(-191.339 -115.758)"/>
    <path id="Path_600" data-name="Path 600" class="cls-2" d="M233.438,143.1l-.238.22.183.257.165-.092Z" transform="translate(-189.788 -116.575)"/>
    <path id="Path_601" data-name="Path 601" class="cls-2" d="M231.7,142.1l.055.293.33-.257Z" transform="translate(-188.563 -115.758)"/>
    <g id="Group_962" data-name="Group 962" transform="translate(0.798 0.35)">
      <path id="Path_602" data-name="Path 602" class="cls-2" d="M360.362,64.2l.4,1.485.018.44c-.092.147-.44.312-.5.477s-.238.257-.147.385c.073.128.165.293.275.33a1.692,1.692,0,0,0,.605-.018,3.614,3.614,0,0,1,.99-.037c.128.037.587.22.587.22a4.944,4.944,0,0,1,.9.733,1.4,1.4,0,0,0,.33.568c.128.11.33.367.422.44s1.045.788,1.045.788l.605.532s.275.843.293.935.165.367.165.422v.238l.4.385.807.733s.422.128.422.293v.5s.183.367.238.312a1.14,1.14,0,0,1,.312-.22c.128-.055.165-.22.33-.092a2.184,2.184,0,0,1,.367.623v.788a2.685,2.685,0,0,1-.312.477l-.9.825a1.443,1.443,0,0,0-.257.44c-.037.165-.073.44-.11.55a2.341,2.341,0,0,1-.257.385c-.073.11-.22.275-.257.2a2.078,2.078,0,0,0-.788-.183c-.183,0-1.412-.018-1.412-.018l-.5.11a2.574,2.574,0,0,0-.477.385c-.037.092-.147.33-.238.367s-.5.183-.5.183-.715.293-.788.477a.861.861,0,0,1-.385.5c-.183.11-.238.293-.568.275s-.678-.257-.88-.183a1.843,1.843,0,0,0-.642.4,2.813,2.813,0,0,1-.238.238s-.238-.073-.238-.037.018.605.018.605.128.073.183-.018.238-.55.348-.605.623-.33.623-.33a1.654,1.654,0,0,1,.844.312c.385.293.367.257.568.257a1,1,0,0,0,.477-.238s.422-1.155.458-1.192.128-.165.22-.183.587-.055.715-.092.33-.367.44-.422a1.115,1.115,0,0,1,.33-.165,9.506,9.506,0,0,1,1.3.037c0,.037-1.247.715-1.265.77s.055.257-.055.257c-.128,0-.293-.055-.367,0s-.257.11-.165.257a1.9,1.9,0,0,1,.165.66c-.037.037-.147.2-.147.2l.642.77.147-.312a9.667,9.667,0,0,1,1.137-.7,1.321,1.321,0,0,1,.605.018c.11.073,0,.165.147.165a19.082,19.082,0,0,0,2.109-1.394c.037-.073.055-.147.018-.183s-.367-.4-.367-.4a2.63,2.63,0,0,0,.128-.293c.018-.092-.183-.422-.147-.532a4.676,4.676,0,0,1,.183-.458,2.27,2.27,0,0,1,.4-.33c.055,0,.348.055.4.147.037.11.018.257.092.238s.22-.238.293-.147-.018.183.092.128.128-.7.128-.7a1.221,1.221,0,0,0-.055-.4c-.055-.092-.477-.513-.44-.587a2.305,2.305,0,0,1,.238-.477c.055-.018.2.073.238-.037.018-.11,0-.33-.092-.33s-.367-.018-.348-.128c0-.11.037-.715-.092-.862a4.289,4.289,0,0,0-.715-.7c-.183-.092-.954-.568-.954-.587s-.073-.22-.073-.22a3.558,3.558,0,0,1-.568-.532c-.238-.275-.458-.733-.385-.825.055-.092.312-.257.183-.257-.128-.018-.275.018-.293-.073-.037-.092-.275-.587-.275-.587a5.929,5.929,0,0,0-.77-.623,1,1,0,0,1-.4-.092c-.092-.073-.4-.275-.33-.348s.385.11.312-.037a3.616,3.616,0,0,0-.825-.843c-.11,0-.275.092-.33.037a4.454,4.454,0,0,1-.385-.568,2.483,2.483,0,0,0-.5-.458,7.261,7.261,0,0,0-.935-.458,5.791,5.791,0,0,0-.807-.018c-.165.037-.788.275-.862.257s-.367-.147-.348-.238a.3.3,0,0,1,.11-.257c.073-.092.422-.458.422-.55s.11-.073.055-.33a4.2,4.2,0,0,0-.092-.458s2.255-1.375,2.292-1.394,1.5-1.1,1.54-1.137a2.911,2.911,0,0,1,.367-.165l.605-.605-.385-.11-.147-.183-.238.165-.165-.092-.275.257.092.147-2.237,1.6-.055.128-.385-.073-.2.312-.862.5-.257-.77" transform="translate(-293.726 -50.532)"/>
      <path id="Path_603" data-name="Path 603" class="cls-2" d="M310.5,160.51a2.451,2.451,0,0,0,.44.165h.312c.037.018.642.367.66.4a2.227,2.227,0,0,0,.312.568c.11.073.752.568.825.642a.534.534,0,0,0,.458.165,1.512,1.512,0,0,1,.733.055,5.9,5.9,0,0,0,.678.513,5.454,5.454,0,0,0,.88.165c.073.018.11-.183.092-.275s-.147.055-.257.037a1.944,1.944,0,0,1-.605-.2c-.183-.11-.33-.367-.55-.422s-.7-.055-.917-.092a.692.692,0,0,1-.5-.183,2.11,2.11,0,0,0-.44-.33,1.035,1.035,0,0,1-.348-.385c-.128-.2-.11-.312-.275-.422s-.532-.422-.66-.422a3.273,3.273,0,0,1-.605-.092" transform="translate(-253.711 -131.052)"/>
      <path id="Path_604" data-name="Path 604" class="cls-2" d="M133.838,336.02l-.238.66.788,2.072.128.037.147.513.477.238.55,1.43.825,2.2-.99,1.045.458.5.275-.183.348.422,4.4-4.254-.458-.458-3.062,2.9-.532-1.3,3.026-2.9-.678-.752-2.6,2.549h-.22l-.33-.422-.147-.44-.238-.605.33-.5-.367-.7v-.385l-.348-.605-.055-.477-.183-.183-.018-.275-.422.055-.147-.4" transform="translate(-109.249 -274.29)"/>
      <path id="Path_605" data-name="Path 605" class="cls-3" d="M21.06,68.956l.22-.2.367-.238,1.174-.788.257.422.165.037.073-.11-.11-.367.22-.147.312-.037.348-.33.733-.018a7.361,7.361,0,0,0,1.009-.348,4.65,4.65,0,0,0,.66-.422l-1.43-3.7.257-.678.11.037.715-.22,4.566-.88.11.312.587.275.513-.348.092-.275.055-.018.11.22.422-.385.128-.587.477.037.073-.44.532-.293,2.475-3.117.2.055.2-.055-.165-.165v-.11l.275-.055,1.669-2,.7-.88.4-.4-.147-.183.037-.642-.788-.715-.018-.238.44-.5h.275l.348.568-.073,1.522.33.275.477.092.257.147.11.055.367-.532.477-.22V52.05l.4-.147.018-.147v-.183l.2-.055.073-.037-.165-.128.22-.183.073-.037h.165l.605-.66h.2v-.458l-.385-.147-.458-.385.128-.257.33-.275-.385-.367-.22.147L42,48.218l-.22.183-.165-.22.972-1.192.293.018-.018.275-.587.678v.128l.752.642.422-.293.44-.55.348-.513.073-.257-.11-.128.2-.293.257.092.752-.752V45.76s.44-.147.458-.165c.018,0,.128-.11.055-.183s-.22-.147-.165-.165c.037-.037.183,0,.257-.037a1.2,1.2,0,0,0,.312-.293c.018-.055-.037-.275.037-.312a12.534,12.534,0,0,0,.972-.99c.092-.128.843-.917,1.1-1.229.257-.33,1.394-1.87,1.43-1.944a3.864,3.864,0,0,1,.33-.825c.073-.018.257.147.293.11s-.092-.385,0-.385a.815.815,0,0,0,.367-.147,4.826,4.826,0,0,0,.385-.752c0-.092-.037-.238-.092-.257a1.9,1.9,0,0,1-.183-.073c-.018-.018-.037-.4.018-.422a1.229,1.229,0,0,1,.367,0c.055.018.22.33.293.312a.84.84,0,0,0,.238-.147.208.208,0,0,0,.11-.2c-.037-.037-.165-.055-.147-.073a1.788,1.788,0,0,1,.257-.11,7.738,7.738,0,0,0,.55-.862c.018-.073.128.037.183.018s.092-.238.128-.4.055-.238.11-.257a6.021,6.021,0,0,0,.367-.568c.037-.018.128.037.147.018.037-.018.165-.55.2-.605.037-.037.147.092.2.037a2.635,2.635,0,0,0,.147-.605c0-.037-.073-.147-.037-.147a2.327,2.327,0,0,0,.532.073,2.127,2.127,0,0,0,.367-.44c.037-.073-.147-.092-.073-.147.055-.055.2,0,.257-.128s.11-.293.037-.367-.183-.092-.128-.165a2.14,2.14,0,0,1,.367-.348,2.968,2.968,0,0,0,.312-.11c.018-.018-.018-.458.037-.532s.22-.422.257-.4.055.147.128.147a2.167,2.167,0,0,0,.422-.257c.092-.073.018-.568.055-.642s.257-.477.293-.44c.018.018-.018.165.092.147a1.093,1.093,0,0,0,.4-.293c.037-.092.037-.33.11-.312l.22-.092c0-.018.092-.22,0-.257s-.22-.22-.22-.22l-.073.165-.5-.788v-.312s.183-.238.293-.257c.092-.018.367-.165.385-.11a4.588,4.588,0,0,0,.018.7c.055.11.11.312.165.33s.22.073.293.018.037-.165.128-.2a.954.954,0,0,0,.33-.385c.018-.073,0-.972,0-.972a2.145,2.145,0,0,1-.367.22c-.055,0-.44.128-.477.018s-.128-.128-.128-.22a2.643,2.643,0,0,0,0-.385s.11.293.165.312c.037.018.183.092.238.037s.055-.183.073-.2-.147-.018-.147-.055.183-.2.2-.2a2.374,2.374,0,0,1-.11-.367,3.215,3.215,0,0,0-.055-.843,1.3,1.3,0,0,0-.422-.348c-.037,0-.257-.055-.33,0-.092.055-.293.165-.293.238s-.055.385-.055.385-.422-.092-.385-.183.2-.568.2-.568l.66-.385a2.844,2.844,0,0,1,.678.147,6.751,6.751,0,0,1,.33.917,5.109,5.109,0,0,0,.458.605.319.319,0,0,1-.018.22c-.055.092-.092.147-.092.147s.128.092.092.2a.7.7,0,0,1-.11.22v.77l.55-.513.073-.477h.422s.165-.147.11-.183-.238-.092-.183-.147.532-.44.532-.44l-.128-.147a3.986,3.986,0,0,0,.66-.642,3.734,3.734,0,0,0,.312-.66c0-.055-.055-.128-.11-.128-.037,0-.257-.128-.275-.128a.587.587,0,0,0-.238-.092c-.055-.018-.33-.147-.385-.348-.055-.183-.2-.4-.055-.477s.2-.33.293-.312a3.342,3.342,0,0,1,.33.11,1.156,1.156,0,0,0,.128.183c.055.055.11.073.238.037.128-.018.238.055.257-.055s.073-.165.11-.11.11.147.11.092c.018-.055-.055-.385,0-.367.037.018.22.092.165.165-.037.092-.055.147-.037.165a.1.1,0,0,0,.128-.037,3.853,3.853,0,0,0,.238-.477c.018-.055-.073-.257-.073-.257a.209.209,0,0,0-.22-.128c-.183,0-.4.037-.458.037s-.257-.238-.257-.238l-.183.037.348-.385.037-.183-.293-.183-.348.44-.367-.422.44-.458h.293l.623.477.018.422.843.44.037-.238.7-.733s.092-.422.092-.44-.11-.33-.11-.33l-.275-.055-.055.2s-.238.073-.275.128c-.018.055-.128.238-.11.293s.055.2.037.22-.623-.037-.642-.037-.44-.147-.513-.33A2.994,2.994,0,0,1,61,20.841a2.853,2.853,0,0,1,.367-.55s.128-.22.11-.257-.733-.568-.788-.605a2.728,2.728,0,0,1-.422-.715c0-.11.128-2.457.128-2.457h.11l-.073,2.457a2.906,2.906,0,0,0,.33.605c.092.055,1.412.972,1.412.972l.147-.037.77.55.348-.312-.715-.605.422-.458.77.587.458-.532.385-.055-1.119-1.412-2.219-.477-.257-.33s.275-.935.33-1.339.183-2.054.183-2.054h.092s-.128,1.907-.165,2.054c-.037.128-.147.642-.147.642s.5.073.587.11a.53.53,0,0,1,.2.128l.183-1.082-.367-.037-.165.183.018-.862.2-.147-.018-.587.257-.257.422-.11.348.238a6.961,6.961,0,0,0,.037.807c.037.128.092.44.092.44A4.8,4.8,0,0,1,64,16.55a8.689,8.689,0,0,1-.165,1.229l.147.183a3.539,3.539,0,0,1,.678-.128,3.27,3.27,0,0,1,.825.128l.275-.422.257-.018V17.8l.385-.568-.458-.018.862-1.265-.22-.257-1.87,1.54-.165-.183.037-.587L66.7,14.827a2.546,2.546,0,0,1,.348-.422,2.753,2.753,0,0,0,.293-.257,4.465,4.465,0,0,0-.513-.807,2.068,2.068,0,0,0-.642-.4c-.073.018-1.265.623-1.265.623l-.44.348-.018.128-.788.477-.073-.092,1.284-.99,1.265-.605.2.018.5.275.587.9.22-.238v-.367h.257l-.293-.88-.422.037a.856.856,0,0,0,.018.293c.037.055.147.312.147.312l-.073.055a2.28,2.28,0,0,1-.165-.532,4.452,4.452,0,0,1,.183-.88l-.33-.5-.348.037a5.01,5.01,0,0,0-.367-.825c-.147-.2-.587-.77-.587-.77a6.415,6.415,0,0,1,.2-.953,3.793,3.793,0,0,1,.44-.715,5.809,5.809,0,0,1,.715.623c.018.055,0,.147.073.183.073.018,1.064.642,1.155.678a.7.7,0,0,1,.238.2c0,.018.092.11-.037.11a1.606,1.606,0,0,0-.587.128c-.11.055-.532.66-.568.66a.852.852,0,0,0-.165.055l.275.733a.348.348,0,0,0,.238-.055,1.109,1.109,0,0,0,.147-.385c.018-.073-.018-.2.11-.312a3.856,3.856,0,0,1,.605-.4c.128-.055.348-.128.4-.147.055,0,.385-.055.422,0a1.072,1.072,0,0,0,.238.257c.037,0,.99.037,1.009.037s.055-.128.11-.055c.037.055.11.165.128.147a.969.969,0,0,0,.018-.22s.165-.018.183-.055a1.424,1.424,0,0,0-.055-.44c-.037-.128-.147-.183-.238-.275s-.147-.312-.037-.348.715-.477.788-.513.147-.037.312-.11c.165-.055.367-.367.458-.568a7.543,7.543,0,0,0,.4-1.247c0-.165.018-.605.018-.605a5.006,5.006,0,0,0-.312-.44c-.037,0-.183-.073-.2,0a1.353,1.353,0,0,0,.018.477.721.721,0,0,0,.11.037s-.22,1.064-.238,1.082-.183.037-.22.11-.22.367-.22.367-.385-.367-.458-.312-.275.183-.367.165-.825-.7-.99-.77a2.264,2.264,0,0,1-.33-.147s-.77-.807-.88-.862c-.128-.055-.568-.66-.642-.7-.073-.018-.165.055-.22,0a.869.869,0,0,1-.22-.33c-.018-.11,0-.788,0-.788s.128-.4.165-.458c.037-.037.642-.642.678-.66.055-.018.238,0,.257-.037a1.182,1.182,0,0,0,.055-.367c-.018-.037-.22-.5-.312-.532a4.517,4.517,0,0,1-.568-.165c0-.018-.275-1.32-.275-1.357s.055-.128.11-.128c.037,0,.33-.037.385.037.037.073.183.147.183.22s-.037.183-.018.2c.018,0,.257.11.257.11a1.2,1.2,0,0,0,0,.257c.018.018.9.568.935.587s.312.073.312.092.568.55.568.55l.018.238s.513.623.532.642a.243.243,0,0,1,.018.2c-.037.055-.275.257-.257.33a5.435,5.435,0,0,0,.642.55l.678.018s.147.11.147.147-.055.293,0,.312c.055.037.128.312.238.312a3.656,3.656,0,0,0,.5-.037c.037-.018.165-.183.238-.147a5.081,5.081,0,0,1,.422.312,4.079,4.079,0,0,0,0,.477c0,.11.11.788.11.788l.165.2.238.165s-.055.972-.092,1.045a2.944,2.944,0,0,0-.128.568c0,.183-.018.7-.018.7s-.128.128-.165.128-.165-.055-.183-.037-.147.11-.092.2.147.257.128.312-.018.165-.11.165c-.073,0-.238-.11-.22.018s.018.4-.037.422a.627.627,0,0,1-.312-.018c-.092-.037-.293-.147-.293-.147l-.2-.257a1.3,1.3,0,0,0-.312-.2c-.092-.018-.532,0-.532.11s-.092.33-.055.367.678.165.752.22a4.257,4.257,0,0,1,.422.257c.055.037.147-.055.2.073a.73.73,0,0,1,.055.257l.312.422.55-.532.037.073-.275.293.183.183,1.375-1.467.257-.532-.22-.147-.2.22-.073.11-.018.183-.587.678-.11-.073,1.027-1.375V8.977H74.9l-.147.22s-.165.018-.183-.018a3.37,3.37,0,0,0-.257-.257s0-.733.018-.843a4.256,4.256,0,0,1,.238-.733,3.375,3.375,0,0,0,.073-.788s.018-.312.092-.33a.829.829,0,0,1,.22,0l.257.385.33.385s-.11.5-.128.513-.183.458-.22.5c-.037.018-.2,0-.183.037a2.143,2.143,0,0,1,.11.367c0,.055-.092.257-.092.293,0,.018-.037.147-.037.147s.11.092.147.073.33-.587.44-.752.44-.7.44-.7a1.56,1.56,0,0,0,.165-.257c0-.037-.183.037-.147-.128.055-.147.147-.293.183-.275a1.081,1.081,0,0,0,.147.073l.22-.257-.11-.293a.747.747,0,0,1,.293,0l.2-.22-.11-.312.275.055.22-.238.44.073-.037.4-.11.348-.165.147.037.4-.33.312s-.275.568-.293.642a2.043,2.043,0,0,0-.183.513,6.267,6.267,0,0,0-.018.825,2.4,2.4,0,0,0,.22.5c.055.073.147.073.147.275a4.768,4.768,0,0,0,.092.66c.018.11.018.348.128.4s.2.128.312.092a2.287,2.287,0,0,0,.5-.22,3.281,3.281,0,0,0,.312-.275l.605.367h.807a14.121,14.121,0,0,0,1.467-.037c.183-.037.77-.183.77-.183s1.027-.568,1.064-.587c.018-.018,1.137.422,1.137.422l6.363,2.6,5.208,2.219,8.16,3.282,8.82,3.557-1.559,3.722-.843,1.394-.917,1.247s-1.155,1.1-1.43,1.339-4.933,4.236-5.043,4.291-1.284.788-1.449.917-.513.5-.66.623-.953,1.1-1.137,1.247-4.272,3.887-4.584,4.071S89.492,45.76,89.29,45.87s-6.216,4.731-6.509,4.951a10.291,10.291,0,0,1-2.439,1.559A16.129,16.129,0,0,1,77.39,53.5c-.935.183-1.907.275-2.2.33a10.884,10.884,0,0,0-2.09.715,14.2,14.2,0,0,0-1.6,1.045c-.293.238-3.154,3.374-3.337,3.557S63.253,64.409,63,64.665s-2.732,2.714-2.9,2.971a11.3,11.3,0,0,0-.843,1.5,12.547,12.547,0,0,0-.55,1.669c-.092.4-.972,4.456-.972,4.456s-.7,2.64-1.064,3.594a31.711,31.711,0,0,1-1.834,3.832,38.009,38.009,0,0,1-2.549,3.924,68.544,68.544,0,0,1-4.712,5.5c-.825.77-5.208,4.346-7.536,5.978s-8.38,5.959-8.38,5.959-3.741-6.344-4-6.73a17.807,17.807,0,0,0-2.494-2.494c-.4-.2-8.563-4.4-9.608-4.841-1.192-.513-6.748-3.319-7.206-3.667a8.781,8.781,0,0,1-1.229-.953,1.893,1.893,0,0,1-.44-.7c-.073-.312-.2-.678-.312-.715-.11-.055-1.6-.44-1.852-.513s-1.54-.33-1.54-.33a10.379,10.379,0,0,1-1.339-.807c0-.092.312-.11.44-.128s.44-.312.587-.385a16.91,16.91,0,0,0,1.6-1.889,3.172,3.172,0,0,1,.44-.77c.128-.073.715-.513.752-.44.018.073-.88.954-.7.88s.678-.568.623-.385-.073.587-.147.642-.238.312-.312.275.128-.385.128-.385l-.4.275-.238.33-.2.33.367.183.367-.5.275-.183.257.073.312-.458L5.639,79.1l.367-.44h.275L4.117,76.731l-.642.642a1.635,1.635,0,0,1-.825.238,1.33,1.33,0,0,1-.972-.55A4.525,4.525,0,0,1,.8,75.539c.018-.275,0-.678.257-.843A13.593,13.593,0,0,1,2.54,73.76c.037,0,.092-.018.165-.018a2,2,0,0,1,.715.018c.018.055-.092.073-.147.073-.037,0-.513.018-.587.037a1.611,1.611,0,0,0-.385.165c-.128.073-.5.257-.587.312a1.762,1.762,0,0,0-.4.293c-.037.073-.092.11-.037.147s.257.055.275.092a1.907,1.907,0,0,1,.037.275,1.785,1.785,0,0,0,.018.293c.018.037,1.1.77,1.137.788a.713.713,0,0,0,.275-.037c.018-.018.11-.147.018-.238s-.257-.312-.422-.33-.293.037-.33-.018a2.333,2.333,0,0,1-.128-.7c.037-.055.147-.128.165-.183s-.128-.183-.092-.238.183-.22.183-.22l.367-.073s.275-.147.33-.128c.037.018.66.532.752.605a4.137,4.137,0,0,0,.623.385c.018.037.2.037.275.037s.147-.147.183-.11-.11.348-.11.348-.257.678-.33.807-.367.385-.33.44,1.669,1.467,1.669,1.467h.55l1.834-1.3L9.38,75.722l.715-.678,2.439-2.494s-.055-.055.11-.092.587-.33.66-.33c.055,0,.275-.128.367-.128.092-.018.348-.128.4-.128s.275.092.312.092.587-.092.642-.092.5-.11.5-.11a2.837,2.837,0,0,1,.275-.147,1.8,1.8,0,0,1,.293-.092c.092-.018.2-.147.275-.2a2.2,2.2,0,0,1,.22-.11l.22-.073.733-.532a1.081,1.081,0,0,0,.44-.128c.165-.055.33-.073.477-.11a4.408,4.408,0,0,0,.587-.312,1.368,1.368,0,0,0,.275-.238l.532-.183.183-.018.678-.385.092-.147.055.018Z" transform="translate(-0.798 -0.35)"/>
      <path id="Path_606" data-name="Path 606" class="cls-2" d="M110.5,374.628l.092.22L111.4,376l-.2,1.027-.183.128-.22-.477-.165.055.183.807.587-.312.275-1.192-1.027-1.54" transform="translate(-90.384 -305.894)"/>
      <path id="Path_607" data-name="Path 607" class="cls-2" d="M93.536,330.414l.018-.238-.165.037-.11-.128-.018-1.192.092-.128.165.018.33-.623-.128-.22a4.122,4.122,0,0,0,.77-2.4c.037-1.522-.477-1.76-.477-1.76l.238-.147-.22-.367-.183.092a5.364,5.364,0,0,0-.917-1.063,5.24,5.24,0,0,0-1.76-.752,15.936,15.936,0,0,0-1.724-.092l-.018.128-.037.092-.092-.092.055-.147.092-.642a6.481,6.481,0,0,1,2.714.348,4.666,4.666,0,0,1,2.237,1.779l-.128.2.238.367.458-.312,1.43.954-.073.092-1.375-.917-.312.183a4.141,4.141,0,0,1,.477,1.889,4.4,4.4,0,0,1-.128,1.467l.312.11a5.592,5.592,0,0,0,.183-1.155,5.677,5.677,0,0,0-.147-1.412l.183-.055a5.694,5.694,0,0,1,.11,1.522,7.972,7.972,0,0,1-.66,2.329l-.128-.073.385-.954-.293-.11-.642,1.229h-.22l-.293.458-.092,1.229.183.183" transform="translate(-73.072 -262.01)"/>
      <path id="Path_608" data-name="Path 608" class="cls-2" d="M73.4,339.267c0-.018-.11-.367-.11-.367h-.33l-.055-.4-1.6-3.062.183-.183-.092-.165s-.33.092-.605.77a4.044,4.044,0,0,0-.11,1.742l-.275.128a3.509,3.509,0,0,1,.477-2.475,2.757,2.757,0,0,0,.183-.257l-.11-.128a3.319,3.319,0,0,0-1.21,2.7l-.312-.018a4.787,4.787,0,0,1,.55-1.779,6.438,6.438,0,0,1,.843-1.064l-.092-.165a6.439,6.439,0,0,0-1.119.953,6.281,6.281,0,0,0-.752,1.742l-.293-.073a4.577,4.577,0,0,1,.788-1.687,4.445,4.445,0,0,1,1.32-1.1l-.147-.2a3.829,3.829,0,0,0-1.485.88,4.418,4.418,0,0,0-.9,1.705l-.275-.055a3.335,3.335,0,0,1,1.045-1.8,3.43,3.43,0,0,1,1.522-.88v-.147a3.452,3.452,0,0,0-1.705.477,4.845,4.845,0,0,0-1.32,1.339l-.257-.165a4.631,4.631,0,0,1,2.53-1.8,3.882,3.882,0,0,1,.5-.055l.018-.238a3.739,3.739,0,0,0-1.5.128,6.664,6.664,0,0,0-1.5,1.027l-.2-.183a3.26,3.26,0,0,1,1.3-.935,4.137,4.137,0,0,1,1.669-.257l-.055-.275a5.346,5.346,0,0,0-1.247-.147,2.626,2.626,0,0,0-1.155.385l-.128-.275a2.1,2.1,0,0,1,.99-.312,5.252,5.252,0,0,1,1.43.128l.092-.165a2.75,2.75,0,0,0-.917-.348,6.207,6.207,0,0,0-.99-.018l-.055-.238a2.184,2.184,0,0,1,.477-.092,8.138,8.138,0,0,1,1.21.2l.092-.018-.018-.312.33.11a.956.956,0,0,1,.238-.385.943.943,0,0,1,.275-.147l-.165.88.183.055a2.509,2.509,0,0,1,.55-1.082,5.615,5.615,0,0,1,1.009-.862l.073.312a4.634,4.634,0,0,0-.953.862,2.651,2.651,0,0,0-.44,1.064l.055.147a5.416,5.416,0,0,1,1.045-1.1,3.421,3.421,0,0,1,1.192-.642,4.4,4.4,0,0,1,.5-.092l-.037.33a2.681,2.681,0,0,0-1.449.55,3.155,3.155,0,0,0-1.119,1.247l.073.165a3.779,3.779,0,0,1,1.412-1.137,3.3,3.3,0,0,1,1.54-.4,2.1,2.1,0,0,1,.477.092l-.147.293a4.318,4.318,0,0,0-.972.018,3.756,3.756,0,0,0-1.412.605,4.168,4.168,0,0,0-.788.715l.055.183a4.561,4.561,0,0,1,2.145-.917,2.119,2.119,0,0,1,1.614.293l-.165.257a3.135,3.135,0,0,0-1.412-.312,2.8,2.8,0,0,0-1.394.4c-.348.238-.642.458-.642.458l.092.165a4.277,4.277,0,0,1,1.87-.532,2.744,2.744,0,0,1,1.705.44l-.22.22a2.913,2.913,0,0,0-1.467-.385,4.927,4.927,0,0,0-1.779.458l.092.128a5.705,5.705,0,0,1,1.485-.128,4.182,4.182,0,0,1,1.577.5.554.554,0,0,1,.11.165l-.257.183a2.232,2.232,0,0,0-.972-.5,4.012,4.012,0,0,0-1.32-.092c-.238.037-.55.092-.55.092l.055.165a2.762,2.762,0,0,1,1.467.128,3.551,3.551,0,0,1,1.155.917l-.275.128a2.7,2.7,0,0,0-1.064-.789,2.932,2.932,0,0,0-1.449-.092l.055.238.275-.092,1.724,3.007.275.257-.275.458.055.165.22.165" transform="translate(-54.861 -269.799)"/>
      <path id="Path_609" data-name="Path 609" class="cls-2" d="M62.049,332.851a1.693,1.693,0,0,0,.018-.348.856.856,0,0,0-.22-.422c-.092-.073-.33-.275-.33-.275a.613.613,0,0,0-.275,0,1.5,1.5,0,0,1-.642-.018,4.6,4.6,0,0,0-.715-.128l-.147.293s.7.183.843.22.183.147.11.147a9.924,9.924,0,0,1-2.017-.605,7.219,7.219,0,0,1-1.54-1.082l.055-.092a6.083,6.083,0,0,0,.953.752c.422.238,1.375.623,1.375.623l.018-.385a5.721,5.721,0,0,1-1.5-.715,6.3,6.3,0,0,1-1.21-1.394l-.33.147-.055,1.6-.092.092.055-1.724.458-.22-.055-.422h-.257a5.88,5.88,0,0,1-.348-1.944,5.117,5.117,0,0,1,.733-2.53c.238-.293,1.009-1.339,1.009-1.339a2.954,2.954,0,0,1,1.724-2,3.457,3.457,0,0,1,1.412-.22,5.455,5.455,0,0,1,.843.22l-.073.513-.2-.128-.4.22-.33.44a7.085,7.085,0,0,0-.807.147,2.208,2.208,0,0,0-.44.275c-.11.092-.33.422-.385.44a2.505,2.505,0,0,0-.788.238,5.1,5.1,0,0,0-.66.678l.055.183s-.477.825-.587.99a8.5,8.5,0,0,0-.4,1.21,5.308,5.308,0,0,0-.055,1.3,3.839,3.839,0,0,0,.275.935c.073.037.147.073.147.092s-.257.147-.238.165.147.367.147.367l.257.037a3.649,3.649,0,0,0,1.357,1.265,7.991,7.991,0,0,0,2.219.66.327.327,0,0,0,.183-.128l.018.458.513.275.275-.147s.312.257.422.367c.128.11.183.385.348.422" transform="translate(-46.041 -262.081)"/>
      <path id="Path_610" data-name="Path 610" class="cls-2" d="M404.69,29.719c.018.055.165.293.165.293s.22.128.238.2c.018.055.165.275.183.312s.147.128.2.055c.055-.055.165.055.128-.147a3.331,3.331,0,0,0-.165-.513s-.147-.293-.293-.293-.092-.037-.238,0S404.671,29.664,404.69,29.719Z" transform="translate(-330.628 -24.246)"/>
      <path id="Path_611" data-name="Path 611" class="cls-2" d="M353.087,30.4s-.367.092-.312.165a2.518,2.518,0,0,0,.367.238c.073.055.733.7.788.7s.257-.037.275-.147-.092-.385-.165-.4a5.145,5.145,0,0,0-.568-.147,1.766,1.766,0,0,1-.367-.22C353.1,30.565,353.2,30.437,353.087,30.4Z" transform="translate(-288.23 -24.89)"/>
      <path id="Path_612" data-name="Path 612" class="cls-2" d="M134.741,309.737l1.724-1.137.2.183.312,1.045h.642l.293-.128.238-.018v.183l-.165.073-.513.055-.275-.037.238.5s.092.22.037.275a1.08,1.08,0,0,1-.257.128l-.147.568.348.128-3.356.642-.2.128a2.076,2.076,0,0,0-.22-.66c-.128-.147-.532-.587-.55-.605s.092-.147.2-.2,1.339-.972,1.339-.972l.073.092-1.357.99.147.257.715-.128.147-.477.5-.037.018-.22.367-.165.275.073.33-.147.477-.7-.147-.22.348-.092.092.037-.073-.275-.092-.11-1.6,1.1Z" transform="translate(-108.831 -252.078)"/>
      <path id="Path_613" data-name="Path 613" class="cls-2" d="M161.306,316.163a1.184,1.184,0,0,0,0,.44c.037.018.018.293.073.33s.128-.348.092-.385a.879.879,0,0,1-.092-.2S161.4,316.108,161.306,316.163Z" transform="translate(-131.857 -258.247)"/>
      <path id="Path_614" data-name="Path 614" class="cls-2" d="M162.527,320.555a1.764,1.764,0,0,0,0,.44l.092.11s-.055.33,0,.348.128.128.165.092.018-.238,0-.275-.128-.073-.128-.073.11-.238.073-.275a.566.566,0,0,0-.128-.092S162.656,320.481,162.527,320.555Z" transform="translate(-132.859 -261.832)"/>
      <path id="Path_615" data-name="Path 615" class="cls-2" d="M215.122,265.2l-.11.128v.385l.477.128v.312l-.99,1.614-.532.66-.275.055-.092.293.275.257.55.11h.2l.257-.293.037-.367.642-.367V267.8l.165-.055.055-.22.238-.11.147-.11v-.147h.2l.055-.2.183.055.275-.22v-.4l-1.082-.917-.037-.22Z" transform="translate(-174.579 -216.636)"/>
      <path id="Path_616" data-name="Path 616" class="cls-2" d="M207.111,255.07l-.275-.385a2.143,2.143,0,0,1-1.32.238,4.059,4.059,0,0,1-1.76-.623l-.055.385a2.577,2.577,0,0,0,1.54.678A4.741,4.741,0,0,0,207.111,255.07Z" transform="translate(-166.495 -207.734)"/>
      <path id="Path_617" data-name="Path 617" class="cls-2" d="M234.66,223.389a3.142,3.142,0,0,0-.66-2.732l.293-.257a2.549,2.549,0,0,1,.752,1.284,9.239,9.239,0,0,1,0,1.962Z" transform="translate(-191.239 -180.05)"/>
      <path id="Path_618" data-name="Path 618" class="cls-2" d="M204.294,216.805a2.6,2.6,0,0,0-1.76-.367,2.676,2.676,0,0,0-1.467.568l-.44.073a16.591,16.591,0,0,0-1.284,1.3,4.224,4.224,0,0,0-1.009,2.347,4.95,4.95,0,0,0,.367,1.907l-.018.367-.165.055a3.466,3.466,0,0,1-.605-1.357,4.674,4.674,0,0,1,.678-3.209,5.2,5.2,0,0,1,2.824-2.31,3.66,3.66,0,0,1,2.64.128c.165.092.422.257.422.257Z" transform="translate(-161.716 -176.456)"/>
      <path id="Path_619" data-name="Path 619" class="cls-2" d="M210.834,227.124v.5l-.348.367-.4.238-.22-.367-1.082-.843-.935-.275a2.212,2.212,0,0,0,.293-.293,2.093,2.093,0,0,0-.165-.293l-.018-.348-.11-.11H207.7a4.6,4.6,0,0,0-.073,1.009,7.007,7.007,0,0,0,.147.88l-.22.11a3.253,3.253,0,0,1-.165-1.009,6.294,6.294,0,0,1,.238-1.21,2.641,2.641,0,0,0-.477,1.119,6.1,6.1,0,0,0-.11,1.21l-.238-.073s.073-.733.183-1.229a4.822,4.822,0,0,1,.477-1.119l-.11-.092a4.81,4.81,0,0,0-.66,1.137c-.183.532-.367,1.412-.367,1.412l-.183-.018a4.746,4.746,0,0,1,.312-1.449,7.828,7.828,0,0,1,.77-1.192l-.11-.092a4.109,4.109,0,0,0-1.008,1.082,4.338,4.338,0,0,0-.44,1.449l-.312.018a5.251,5.251,0,0,1,.44-1.3,8.06,8.06,0,0,1,1.21-1.375,3.13,3.13,0,0,0-1.32.807,3.178,3.178,0,0,0-.77,1.21l-.312-.2a3.9,3.9,0,0,1,.972-1.174,2.889,2.889,0,0,1,1.119-.715l-.183-.055a3.216,3.216,0,0,0-1.009.385,4.125,4.125,0,0,0-.862.752l-.037-.348a2.712,2.712,0,0,1,1.008-.642,6.721,6.721,0,0,1,.825-.257,1.117,1.117,0,0,0-.88-.092c-.605.128-.605.293-.605.293l-.238-.092a1.425,1.425,0,0,1,.715-.348c.44-.073.715-.092.715-.092l-.073-.147-.917-.073s-.037-.2.037-.22.367-.037.367-.037l.018-.458h.275l.055-.385h.165a4.89,4.89,0,0,1,.183.715.5.5,0,0,0,.165.293s.055-1.375.11-1.467.147.055.147.055a3.677,3.677,0,0,0-.073.733c.018.275.037.678.037.678l.037.4.11.092a4.855,4.855,0,0,1,.11-1.119,6.288,6.288,0,0,1,.642-1.357l.165.238a5.466,5.466,0,0,0-.55,1.045,11.2,11.2,0,0,0-.183,1.155,3.384,3.384,0,0,1,.605-1.32,6.657,6.657,0,0,1,.88-1.064l.238.055-.11.22a4.115,4.115,0,0,0-.99,1.045,3.8,3.8,0,0,0-.4,1.155,2.618,2.618,0,0,1,.99-1.247,5.892,5.892,0,0,1,1.21-.77l.2.147a3.975,3.975,0,0,0-1.467.88,3.02,3.02,0,0,0-.733,1.1l.055.11a4.143,4.143,0,0,1,1.027-1.027,2.544,2.544,0,0,1,1.284-.44l.018.165a3.109,3.109,0,0,0-1.174.458,6.23,6.23,0,0,0-1.027.953l.055.11a2.874,2.874,0,0,1,1.082-.733,2.906,2.906,0,0,1,1.247-.22l-.092.183a3.894,3.894,0,0,0-1.137.238,3.045,3.045,0,0,0-.953.605,3.1,3.1,0,0,1,1.064-.33,4.141,4.141,0,0,1,1.045-.037l-.055.165a7.674,7.674,0,0,0-1.119.055c-.532.073-.66.238-.66.238l.147.147.532.147.385-.422.018.678.33.348.165-.018.238-.44.312.2-.257.348-.018.22.66.623Z" transform="translate(-167.23 -181.439)"/>
      <path id="Path_620" data-name="Path 620" class="cls-2" d="M237.8,240.935l.568-.605V240h.623l.128.165-.422.2-.422.293-.055.275Z" transform="translate(-194.342 -196.057)"/>
      <path id="Path_621" data-name="Path 621" class="cls-2" d="M303.209,156.622l-.2-.385-.348-.037-.037.2-.422.22.2.385.22.073.293-.348.11-.092Z" transform="translate(-246.933 -127.623)"/>
    </g>
    <path id="Path_622" data-name="Path 622" class="cls-2" d="M274.51,133.4l-.11.293.2.073.11-.238Z" transform="translate(-223.433 -108.653)"/>
    <path id="Path_623" data-name="Path 623" class="cls-2" d="M270.859,134.2l-.4.807-.055.367-.66.532-.11,1.284.073.22-.073.055h-.2l-.128-.733.238-.587v-.44a5.119,5.119,0,0,0,.587-.422l.238-.477.2-.605Z" transform="translate(-219.268 -109.307)"/>
    <path id="Path_624" data-name="Path 624" class="cls-2" d="M275.487,137l-.367.422-.22.422.073.073.66-.807Z" transform="translate(-223.841 -111.593)"/>
    <path id="Path_625" data-name="Path 625" class="cls-2" d="M266.228,135.9l-.128.128.183.312.22-.073Z" transform="translate(-216.655 -110.695)"/>
    <path id="Path_626" data-name="Path 626" class="cls-2" d="M263.9,137.192l.147-.092.165.22-.147.22Z" transform="translate(-214.858 -111.675)"/>
    <path id="Path_627" data-name="Path 627" class="cls-2" d="M261.7,137.1l.147.33.147-.165Z" transform="translate(-213.062 -111.675)"/>
    <path id="Path_628" data-name="Path 628" class="cls-2" d="M265,141.985l.238-.128V141.6l.165.477-.128.165Z" transform="translate(-215.757 -115.35)"/>
    <path id="Path_629" data-name="Path 629" class="cls-2" d="M263.6,141.673v.238l.22-.018.037-.293Z" transform="translate(-214.613 -115.35)"/>
    <path id="Path_630" data-name="Path 630" class="cls-2" d="M260.905,143.385l.055-.22L260.3,143l.257.312Z" transform="translate(-211.918 -116.493)"/>
    <path id="Path_631" data-name="Path 631" class="cls-2" d="M262.1,140v.257h.22v-.2Z" transform="translate(-213.388 -114.043)"/>
    <path id="Path_632" data-name="Path 632" class="cls-2" d="M259.848,157.5l-.348.954.22.238.073-.605.183-.2.33.037.037-.22Z" transform="translate(-211.265 -128.334)"/>
    <path id="Path_633" data-name="Path 633" class="cls-2" d="M262.075,160.4l-.275.293.128.073.33-.092Z" transform="translate(-213.143 -130.702)"/>
    <path id="Path_634" data-name="Path 634" class="cls-2" d="M257.383,157l-.183.293.092.073.183-.238Z" transform="translate(-209.387 -127.926)"/>
    <path id="Path_635" data-name="Path 635" class="cls-2" d="M255.855,160c0,.018-.055.257-.055.257l.4.092.055-.092Z" transform="translate(-208.244 -130.376)"/>
    <path id="Path_636" data-name="Path 636" class="cls-2" d="M251.12,147.4c-.037.037-.22.183-.22.183l.22.22.147-.037Z" transform="translate(-204.242 -120.086)"/>
    <path id="Path_637" data-name="Path 637" class="cls-2" d="M250.165,150.6l-.165.165.165.165.22-.165Z" transform="translate(-203.507 -122.699)"/>
    <path id="Path_638" data-name="Path 638" class="cls-2" d="M248.8,148.818s.018.22.055.2c.037,0,.33-.055.33-.055l-.073-.165H248.8Z" transform="translate(-202.527 -121.229)"/>
    <path id="Path_639" data-name="Path 639" class="cls-2" d="M246.755,149.8l-.055.22.165.073.11-.183Z" transform="translate(-200.812 -122.046)"/>
    <path id="Path_640" data-name="Path 640" class="cls-2" d="M244.1,150.765a2.094,2.094,0,0,0,.293-.165l.183.073-.238.348Z" transform="translate(-198.689 -122.699)"/>
    <path id="Path_641" data-name="Path 641" class="cls-2" d="M245.4,153.347l.293-.147-.055.348Z" transform="translate(-199.751 -124.823)"/>
    <path id="Path_642" data-name="Path 642" class="cls-2" d="M248.238,154.1l-.238.257h.367Z" transform="translate(-201.874 -125.558)"/>
    <path id="Path_643" data-name="Path 643" class="cls-2" d="M247.865,151.2l-.165.22.33.2.147-.11Z" transform="translate(-201.629 -123.189)"/>
    <path id="Path_644" data-name="Path 644" class="cls-2" d="M250.9,156.2l.092.275.22-.147Z" transform="translate(-204.242 -127.272)"/>
    <path id="Path_645" data-name="Path 645" class="cls-2" d="M252.375,154.1l-.275.257.458.4v-.33l-.238-.147.11-.055.128.055.055-.183Z" transform="translate(-205.222 -125.558)"/>
    <path id="Path_646" data-name="Path 646" class="cls-2" d="M252.9,150.9v.367l.257-.055-.092-.312Z" transform="translate(-205.875 -122.944)"/>
    <path id="Path_647" data-name="Path 647" class="cls-2" d="M251.165,152.9l-.165.055.128.22.165-.128Z" transform="translate(-204.324 -124.578)"/>
    <path id="Path_648" data-name="Path 648" class="cls-2" d="M272.4,121.833h.513l.4-.257-.4-.2-.22.165h-.238l-.33-.348-.147.147-.147-.238-.33.183v.293l.367-.018.33.092.055.073-.128.22-.092.422-.11.257.275.11.147-.367Z" transform="translate(-221.065 -98.609)"/>
    <path id="Path_649" data-name="Path 649" class="cls-2" d="M271.628,124.7l-.128.678h.33l.147-.532Z" transform="translate(-221.065 -101.549)"/>
    <path id="Path_650" data-name="Path 650" class="cls-2" d="M272.892,108.8h.367l.348.2-.055.22-.293-.2-.073.147.183.22-.11.147-.458-.513Z" transform="translate(-222.126 -88.564)"/>
    <path id="Path_651" data-name="Path 651" class="cls-2" d="M269.2,118.14l.587-.22.073-.22,1.027.11.275.165.22.22v.2l-.128.037-.22-.11-.257-.165-.623.073-.128-.275-.238.11-.4.165v.2l-.183.073Z" transform="translate(-219.186 -95.832)"/>
    <path id="Path_652" data-name="Path 652" class="cls-2" d="M276.1,115.81l.44-.11.348.055.275.055v.422l.165.147v.275l-.128.037-.22-.587-.367-.22Z" transform="translate(-224.821 -94.199)"/>
    <path id="Path_653" data-name="Path 653" class="cls-2" d="M257.692,142l-.092.165h.348l.055-.092Z" transform="translate(-209.714 -115.676)"/>
    <path id="Path_654" data-name="Path 654" class="cls-2" d="M259.61,138.9l-.11.2.238.128.128-.22Z" transform="translate(-211.265 -113.145)"/>
    <path id="Path_655" data-name="Path 655" class="cls-2" d="M257.809,138s-.33.275-.257.275h.257Z" transform="translate(-209.666 -112.41)"/>
    <path id="Path_656" data-name="Path 656" class="cls-2" d="M258.847,135.9l-.147.147.073.11.22.073Z" transform="translate(-210.612 -110.695)"/>
    <path id="Path_657" data-name="Path 657" class="cls-2" d="M258.7,133.9l.293-.2v.238Z" transform="translate(-210.612 -108.898)"/>
    <path id="Path_658" data-name="Path 658" class="cls-2" d="M261.092,132.5l-.092.293.2.037Z" transform="translate(-212.49 -107.918)"/>
    <path id="Path_659" data-name="Path 659" class="cls-2" d="M264.465,132.1l-.165.165.33.037Z" transform="translate(-215.185 -107.592)"/>
    <path id="Path_660" data-name="Path 660" class="cls-2" d="M266.955,130.9l-.055.33.257-.165Z" transform="translate(-217.308 -106.612)"/>
    <path id="Path_661" data-name="Path 661" class="cls-2" d="M253.958,141.2l-.257.037-.165.7-.037-.348.073-.073h.385Z" transform="translate(-206.365 -115.023)"/>
    <path id="Path_662" data-name="Path 662" class="cls-2" d="M251.5,135.917l.22-.238.532.037.128-.33.22-.11-.165-.275-.11.165.238.55h-.312l-.183.458-.183-.257Z" transform="translate(-204.732 -109.96)"/>
    <path id="Path_663" data-name="Path 663" class="cls-2" d="M249.1,140l.312.275.092-.018.275.183.055-.257-.568.2Z" transform="translate(-202.772 -114.043)"/>
    <path id="Path_664" data-name="Path 664" class="cls-2" d="M250.237,137.1l-.037.367h.238l.092-.312Z" transform="translate(-203.67 -111.675)"/>
    <path id="Path_665" data-name="Path 665" class="cls-2" d="M245.8,136.365l.4-.165-.073.385Z" transform="translate(-200.077 -110.94)"/>
    <path id="Path_666" data-name="Path 666" class="cls-2" d="M243.137,132.9l-.037.147s.4.275.4.238v-.33Z" transform="translate(-197.872 -108.245)"/>
    <path id="Path_667" data-name="Path 667" class="cls-2" d="M246.5,133.773l.275-.073.073.238-.238.165Z" transform="translate(-200.649 -108.898)"/>
    <path id="Path_668" data-name="Path 668" class="cls-2" d="M249.1,134v.4l.257-.257Z" transform="translate(-202.772 -109.143)"/>
    <path id="Path_669" data-name="Path 669" class="cls-2" d="M247.1,128.4l.11.825.348-.073-.66-.513Z" transform="translate(-200.975 -104.57)"/>
    <path id="Path_670" data-name="Path 670" class="cls-2" d="M244.9,124.347l-.33.293-.073.422-.183-.092-.11-.385.293-.385Z" transform="translate(-198.771 -101.14)"/>
    <path id="Path_671" data-name="Path 671" class="cls-2" d="M245.3,129.3v.4l.165.055.055-.238Z" transform="translate(-199.669 -105.305)"/>
    <path id="Path_672" data-name="Path 672" class="cls-2" d="M242.283,126.8l-.183.092.128.367.165-.165Z" transform="translate(-197.056 -103.263)"/>
    <rect id="Rectangle_393" data-name="Rectangle 393" class="cls-2" width="0.238" height="0.293" transform="translate(44.989 22.931)"/>
    <path id="Path_673" data-name="Path 673" class="cls-2" d="M243.7,118.9l.092.257.2-.128Z" transform="translate(-198.362 -96.812)"/>
    <path id="Path_674" data-name="Path 674" class="cls-2" d="M242.492,115.1l-.092.55h.238l.092-.477Z" transform="translate(-197.301 -93.709)"/>
    <path id="Path_675" data-name="Path 675" class="cls-2" d="M243.9,110.4l-.2.183.2.44.312-.018.073-.367Z" transform="translate(-198.362 -89.871)"/>
    <path id="Path_676" data-name="Path 676" class="cls-2" d="M246.3,108.5l-.2.22.2.2.275-.073Z" transform="translate(-200.322 -88.319)"/>
    <path id="Path_677" data-name="Path 677" class="cls-2" d="M249.213,108.5h-.22l-.293.623.073.037.257-.238.55-.037Z" transform="translate(-202.445 -88.319)"/>
    <path id="Path_678" data-name="Path 678" class="cls-2" d="M247.583,112.8l-.183.11s.312.183.312.147A1.665,1.665,0,0,0,247.583,112.8Z" transform="translate(-201.384 -91.831)"/>
    <path id="Path_679" data-name="Path 679" class="cls-2" d="M247.638,115.1l-.183.11-.055.5h.312Z" transform="translate(-201.384 -93.709)"/>
    <path id="Path_680" data-name="Path 680" class="cls-2" d="M249.8,116.3v.33l.238-.165Z" transform="translate(-203.344 -94.689)"/>
    <path id="Path_681" data-name="Path 681" class="cls-2" d="M251.1,112.928v.22h.33l-.055-.348Z" transform="translate(-204.405 -91.831)"/>
    <path id="Path_682" data-name="Path 682" class="cls-2" d="M245.838,119.6h.33l-.055.183-.183.422-.33.055Z" transform="translate(-199.914 -97.384)"/>
    <path id="Path_683" data-name="Path 683" class="cls-2" d="M248.373,121.4l-.073.183.4.055Z" transform="translate(-202.119 -98.854)"/>
    <path id="Path_684" data-name="Path 684" class="cls-2" d="M249.5,119.6v.275l.367.055-.073-.275Z" transform="translate(-203.099 -97.384)"/>
    <path id="Path_685" data-name="Path 685" class="cls-2" d="M251.1,118.9h.568v.257Z" transform="translate(-204.405 -96.812)"/>
    <path id="Path_686" data-name="Path 686" class="cls-2" d="M251.665,121.1h.2l-.11.385-.257-.092Z" transform="translate(-204.732 -98.609)"/>
    <path id="Path_687" data-name="Path 687" class="cls-2" d="M253.138,123.255l-.128-.055-.11.2.238.092Z" transform="translate(-205.875 -100.324)"/>
    <path id="Path_688" data-name="Path 688" class="cls-2" d="M250.7,124l.147.275.183-.128Z" transform="translate(-204.079 -100.977)"/>
    <path id="Path_689" data-name="Path 689" class="cls-2" d="M249.1,124.8v.238l.2.073.165-.183Z" transform="translate(-202.772 -101.63)"/>
    <path id="Path_690" data-name="Path 690" class="cls-2" d="M248,127h.458v.183Z" transform="translate(-201.874 -103.427)"/>
    <path id="Path_691" data-name="Path 691" class="cls-2" d="M250.365,129l-.165.238.165.11Z" transform="translate(-203.67 -105.06)"/>
    <path id="Path_692" data-name="Path 692" class="cls-2" d="M251.1,126.738l.092-.238.238.092-.165.257Z" transform="translate(-204.405 -103.018)"/>
    <path id="Path_693" data-name="Path 693" class="cls-2" d="M253.01,128.3l-.11.257.238-.073Z" transform="translate(-205.875 -104.488)"/>
    <path id="Path_694" data-name="Path 694" class="cls-2" d="M253.7,125.683l.147-.183.22.367.293-.092-.037-.183Z" transform="translate(-206.529 -102.202)"/>
    <path id="Path_695" data-name="Path 695" class="cls-2" d="M253.3,133.7l-.2.128.147.128Z" transform="translate(-206.039 -108.898)"/>
    <path id="Path_696" data-name="Path 696" class="cls-2" d="M253.847,135.6l-.147.348.183.037Z" transform="translate(-206.529 -110.45)"/>
    <path id="Path_697" data-name="Path 697" class="cls-2" d="M254.9,134.147l.2-.147-.092.293Z" transform="translate(-207.509 -109.143)"/>
    <path id="Path_698" data-name="Path 698" class="cls-2" d="M255.2,130.82c.037.037.238-.22.238-.22v.44Z" transform="translate(-207.754 -106.367)"/>
    <path id="Path_699" data-name="Path 699" class="cls-2" d="M254.683,128.4l-.183.293h.257Z" transform="translate(-207.182 -104.57)"/>
    <path id="Path_700" data-name="Path 700" class="cls-2" d="M257.483,123l-.183.238.458.257-.055.33-.147-.092Z" transform="translate(-209.468 -100.16)"/>
    <path id="Path_701" data-name="Path 701" class="cls-2" d="M260.3,125.5l.128.367.422.22.055-.128Z" transform="translate(-211.918 -102.202)"/>
    <path id="Path_702" data-name="Path 702" class="cls-2" d="M262.283,125.2l-.183.183.183.11Z" transform="translate(-213.388 -101.957)"/>
    <path id="Path_703" data-name="Path 703" class="cls-2" d="M264.3,127.1v.22l.238-.147Z" transform="translate(-215.185 -103.508)"/>
    <path id="Path_704" data-name="Path 704" class="cls-2" d="M268.265,125.5l-.165.183.2.183Z" transform="translate(-218.288 -102.202)"/>
    <path id="Path_705" data-name="Path 705" class="cls-2" d="M265.255,123.958l.312-.312-.055-.147-.312.092.458.293Z" transform="translate(-215.92 -100.569)"/>
    <path id="Path_706" data-name="Path 706" class="cls-2" d="M256.978,128l-.275.458-.293-.422-.11.275h.715l.037.312s-.312.165-.275.128A5.182,5.182,0,0,0,256.978,128Z" transform="translate(-208.652 -104.243)"/>
    <path id="Path_707" data-name="Path 707" class="cls-2" d="M266.5,117.828l.2-.128.018.22Z" transform="translate(-216.982 -95.832)"/>
    <path id="Path_708" data-name="Path 708" class="cls-2" d="M224,125.592l.385-.092-.037.2-.147.2Z" transform="translate(-182.275 -102.202)"/>
    <path id="Path_709" data-name="Path 709" class="cls-2" d="M228.7,123.983l.312-.183v.238Z" transform="translate(-186.113 -100.814)"/>
    <path id="Path_710" data-name="Path 710" class="cls-2" d="M227.813,126.5l-.147.22-.367-.037.11.33.4-.165.293.147.11-.238Z" transform="translate(-184.969 -103.018)"/>
    <path id="Path_711" data-name="Path 711" class="cls-2" d="M230.565,130.7l-.165.33.293.037.055-.183Z" transform="translate(-187.501 -106.448)"/>
    <path id="Path_712" data-name="Path 712" class="cls-2" d="M227.3,132.7v.238l.165.018.092-.165Z" transform="translate(-184.969 -108.082)"/>
    <path id="Path_713" data-name="Path 713" class="cls-2" d="M229.12,133.7l-.22.2.165.147.22-.092Z" transform="translate(-186.276 -108.898)"/>
    <path id="Path_714" data-name="Path 714" class="cls-2" d="M235.529,130.9c-.037.018-.2.128-.2.128s-.037.312,0,.33a2.461,2.461,0,0,0,.385-.018Z" transform="translate(-191.512 -106.612)"/>
    <path id="Path_715" data-name="Path 715" class="cls-2" d="M232.21,128.4l-.11.238.422.257.238-.238Z" transform="translate(-188.889 -104.57)"/>
    <path id="Path_716" data-name="Path 716" class="cls-2" d="M232.1,134.455l.312-.055v.275Z" transform="translate(-188.889 -109.47)"/>
    <path id="Path_717" data-name="Path 717" class="cls-2" d="M233.11,131.6l-.11.33.275-.092Z" transform="translate(-189.624 -107.183)"/>
    <path id="Path_718" data-name="Path 718" class="cls-2" d="M233.883,136.2l-.183.165.293.11Z" transform="translate(-190.196 -110.94)"/>
    <path id="Path_719" data-name="Path 719" class="cls-2" d="M235.737,133.7l-.037.348.293.055Z" transform="translate(-191.829 -108.898)"/>
    <path id="Path_720" data-name="Path 720" class="cls-2" d="M236.255,136.6l-.055.293.2.073.11-.22Z" transform="translate(-192.237 -111.266)"/>
    <path id="Path_721" data-name="Path 721" class="cls-2" d="M225.6,134.8l.348.055v.312l-.312-.037Z" transform="translate(-183.581 -109.797)"/>
    <path id="Path_722" data-name="Path 722" class="cls-2" d="M225.192,128.4l.312.11-.128.275-.275-.092Z" transform="translate(-183.173 -104.57)"/>
    <path id="Path_723" data-name="Path 723" class="cls-2" d="M251.448,101.08s-.055-.458.073-.55.532-.33.532-.33l.275.037a2.387,2.387,0,0,0-.312.4c-.037.128-.147.5-.147.5Z" transform="translate(-204.68 -81.541)"/>
    <path id="Path_724" data-name="Path 724" class="cls-2" d="M252.867,106.4l-.367.348.44.458.11-.092-.183-.275.257-.22Z" transform="translate(-205.549 -86.604)"/>
    <path id="Path_725" data-name="Path 725" class="cls-2" d="M255.5,102.415l.33-.348.458-.037.422-.33h.33l.128.183-.055.22-.513.257v.165l-.367-.128-.073.165-.238-.2-.22.238Z" transform="translate(-207.999 -82.766)"/>
    <path id="Path_726" data-name="Path 726" class="cls-2" d="M252.2,116.1v.2l.422.092.348.293h.165l.367-.385-.055-.165-.275.257h-.312l-.238-.2Z" transform="translate(-205.304 -94.525)"/>
    <path id="Path_727" data-name="Path 727" class="cls-2" d="M258.7,111.13l.073.22.825-.183-.2-.367-.275.275h-.348Z" transform="translate(-210.612 -90.197)"/>
    <path id="Path_728" data-name="Path 728" class="cls-2" d="M265.6,110.8l.092.587.2-.037v-.367Z" transform="translate(-216.247 -90.197)"/>
    <path id="Path_729" data-name="Path 729" class="cls-2" d="M260.813,106l-.092.293-.165.275-.257-.183.165-.147.623.037Z" transform="translate(-211.918 -86.277)"/>
    <path id="Path_730" data-name="Path 730" class="cls-2" d="M262.437,108.8l-.037.2.348.2.092-.238Z" transform="translate(-213.633 -88.564)"/>
    <path id="Path_731" data-name="Path 731" class="cls-2" d="M256.148,106.8l-.2.128v.092l-.147.147.11.165.367-.275Z" transform="translate(-208.244 -86.931)"/>
    <path id="Path_732" data-name="Path 732" class="cls-2" d="M253.792,112.1l-.092.128.183.257.22-.128Z" transform="translate(-206.529 -91.259)"/>
    <path id="Path_733" data-name="Path 733" class="cls-2" d="M256,114.83l.238.092.2-.2-.165-.22Z" transform="translate(-208.407 -93.219)"/>
    <path id="Path_734" data-name="Path 734" class="cls-2" d="M256.8,112.138l.165.055.073-.257-.128-.037Z" transform="translate(-209.06 -91.096)"/>
    <path id="Path_735" data-name="Path 735" class="cls-2" d="M257.883,109.4l-.183.183.183.11.238-.2Z" transform="translate(-209.795 -89.054)"/>
    <path id="Path_736" data-name="Path 736" class="cls-2" d="M260,114.328l.128.147.257-.11-.073-.165Z" transform="translate(-211.673 -92.974)"/>
    <path id="Path_737" data-name="Path 737" class="cls-2" d="M261.092,116.3l-.092.293.257.092.128-.22Z" transform="translate(-212.49 -94.689)"/>
    <path id="Path_738" data-name="Path 738" class="cls-2" d="M262.937,114.5l-.037.22.257.073v-.22Z" transform="translate(-214.042 -93.219)"/>
    <rect id="Rectangle_394" data-name="Rectangle 394" class="cls-2" width="0.348" height="0.293" transform="translate(47.446 22.381)"/>
    <path id="Path_739" data-name="Path 739" class="cls-2" d="M258.1,119.937v.183h.312v-.22Z" transform="translate(-210.122 -97.629)"/>
    <path id="Path_740" data-name="Path 740" class="cls-2" d="M260.873,119.9l-.073.22.238.092.073-.238Z" transform="translate(-212.327 -97.629)"/>
    <path id="Path_741" data-name="Path 741" class="cls-2" d="M263.9,119.41v.275h.2l.11-.2.367.037-.073-.165-.367-.055Z" transform="translate(-214.858 -97.139)"/>
    <path id="Path_742" data-name="Path 742" class="cls-2" d="M260.02,122.5l-.22.275.257.128.238-.22Z" transform="translate(-211.51 -99.752)"/>
    <path id="Path_743" data-name="Path 743" class="cls-2" d="M42,226.5a7.8,7.8,0,0,1,2.659-3.337c1.724-1.027,19.565-7.481,20.262-8.178a35.8,35.8,0,0,0,3.117-6.216c.11-.568.807-7.335,1.265-8.031.458-.715,11.864-14.064,13.239-14.816a38.425,38.425,0,0,0,5.409-4.694c.7-.77,7.023-9.223,7.023-9.223" transform="translate(-33.647 -140.175)"/>
    <path id="Path_744" data-name="Path 744" class="cls-2" d="M394.036,178.509s-4.988-6.234-5.9-7.353-4.492-6.4-5.336-7.463c-.4-.513-1.944-2.4-2.145-2.7a3.742,3.742,0,0,1-.44-1.687,6.862,6.862,0,0,0-.11-1.21" transform="translate(-309.751 -128.824)"/>
    <path id="Path_745" data-name="Path 745" class="cls-2" d="M331.4,132.557l.917-1.082c.2-.238,3.3-4.584,3.429-4.988a7.242,7.242,0,0,1,1.1-1.779,16.552,16.552,0,0,1,3.1-.733c.22.073,1.5.605,1.5.605s.037,1.008,0,1.247-.22,1.375-.257,1.522a9.992,9.992,0,0,1-.257,1.375c-.11.183-.605,1.119-.605,1.119" transform="translate(-269.981 -100.952)"/>
    <path id="Path_746" data-name="Path 746" class="cls-2" d="M389.447,124.8a8.084,8.084,0,0,1-1.045.954,3.411,3.411,0,0,1-1.247.2c-.165-.11-1.155-.715-1.155-.715" transform="translate(-314.569 -101.63)"/>
    <path id="Path_747" data-name="Path 747" class="cls-2" d="M327.1,174.993s-7.628-.605-11-1.284-8.985-2.182-10.14-2.164-5.684-.238-6.363,0a15.224,15.224,0,0,1-2.915.862c-.605,0-2.842-.843-4.144-.385s-3.832,1.375-4.217,3.374-.073,4.456-.532,5.3-9.517,12.12-9.9,12.744a4.665,4.665,0,0,0-.917,2.145,10.256,10.256,0,0,0,.7,1.834" transform="translate(-225.529 -139.721)"/>
    <path id="Path_748" data-name="Path 748" class="cls-2" d="M106.8,148.687s2.989-2.971,10.929-8.05c1.3-.825,6.528-4,7.518-5.758s3.062-4.144,4-8.068c.917-3.906.532-6.363,2.989-8.6,2.457-2.219,3.759-3.539,4.841-3.612s4.529-1.687,6.454-2.072,7.976-.843,9.443-1.3,2.457-1.687,3.447-2.7,5.684-6.069,6.674-6.6,3.154-1.3,4-2.219a25.693,25.693,0,0,0,3.227-6.363,32.772,32.772,0,0,0,1.229-4.217c.238-1.082-.312-2.769,0-3.447a28.581,28.581,0,0,0,1.375-3.832c.073-.605-.458-3.374-.238-4.529.238-1.155.238-2.989.77-3.612.532-.605,3.007-4.309,3.007-4.309" transform="translate(-86.565 -56.389)"/>
    <path id="Path_749" data-name="Path 749" class="cls-2" d="M441.078,61.4a18,18,0,0,0-1.449,2.7c-.073.532.605,1.834,0,2.072a4.251,4.251,0,0,0-1.687,2c-.073.458.385,1.8,0,2.127a5.458,5.458,0,0,0-1.467,1.944,15.731,15.731,0,0,0-.385,3.3,9.706,9.706,0,0,1-.073,3.227c-.238.99-.917,2.9-.917,2.9" transform="translate(-354.666 -49.856)"/>
    <path id="Path_750" data-name="Path 750" class="cls-2" d="M409.313,58.7a7.775,7.775,0,0,1-.66,2.659c-.385.605-3.062,2.989-3.227,3.539a14.317,14.317,0,0,0-.147,1.687,3.669,3.669,0,0,0,.238,1.76,11.826,11.826,0,0,1,.385,2.145" transform="translate(-330.291 -47.651)"/>
    <path id="Path_751" data-name="Path 751" class="cls-2" d="M210.762,346.056s-2.879-1.834-3.576-1.834a13.382,13.382,0,0,1-3.411-.568,6.645,6.645,0,0,1-2.585-1.614c-.917-.917-1.87-2.64-3.924-2.64H188.3" transform="translate(-153.121 -276.88)"/>
    <path id="Path_752" data-name="Path 752" class="cls-2" d="M192.1,371.9a8.273,8.273,0,0,1,2.292.7,9.492,9.492,0,0,0,3.246,1.155,18.687,18.687,0,0,1,3.686,1.155,49.209,49.209,0,0,0,5.318,1.265c1.577.238,3.429,1.045,4.639,1.265,1.21.238,2.714.7,2.714.7" transform="translate(-156.224 -303.421)"/>
  </g>
</svg>
