<svg id="Group_980" data-name="Group 980" xmlns="http://www.w3.org/2000/svg" viewBox="0 0 41 38.734">
  <defs>
    <style>
      .cls-1, .cls-2, .cls-3, .cls-4 {
        fill: none;
      }

      .cls-1, .cls-2, .cls-4 {
        stroke: #7ee6ff;
        stroke-miterlimit: 10;
      }

      .cls-1, .cls-2 {
        stroke-linejoin: bevel;
      }

      .cls-2, .cls-4 {
        stroke-width: 0.25px;
      }
    </style>
  </defs>
  <path id="Path_214" data-name="Path 214" class="cls-1" d="M4.111,31.777V32.9h-.6v-.564H3.1v-.39H2.766v1.963h.358l-1.1,1.1v2.407H1.2v.922H.8v.618H.5v.51h.857V40.6l.271.271v1.2h.52l1.084,1.084v1.1h.2V45.6h.531v2.028H5.238v1.8H4.707v.954h.531v2.754H6.615V52.5H7.982v1.778H9.2v-.553h.661v-.369h.618V54.1l.4.4h.217v-.228h.542v-.3h.38l.39.39H12.7v.228h-.575l-.314.314v.228h.314v.445H13.2l.336-.336h.6v.618l3.025-3.025h.314v1.594h-.3v.954h.466v1.182h.239v.683h.239v.878l.9.933h1v.217h.3V58.06l-.7.022V57.54h1.106v.282h.3V56.629h.38V55.154l-.748-.748h-.878v-.26h.813l.271-.271-.434-.434-.3.3h-.239v-.455l.683-.683h.7l.531-.52h1.4l.412-.412v-.792H25.8l.889.878v2.277H28.02v-.792h.575v.412h.52v-.412h.293v.26h.5l.38.38.4-.4.39.38.716-.716-.575-.575V51.5h-.781V49.809h-.726v-.878H30.2v-2.8l.445-.434h-.553l-.542-.553h-.52v.922h-.412l-.661-.661h-.531v.726l.347.358h1.345l-.9,1.626h-1.54V45.981H25.287V44.919h-.661V44h-.52V40.874h.2v-.466h-.249l-.022-.857.77-.77v-.423h.271V37.99H24.8v-1l-.369-.369v-.293h.661V34.553h-.314v.282h-.629V33.8l-.477.477v.206h-.8v.618h-.943v-.271h.239v-.922h-.6v-.64h.813l.282.282h.466L23.693,33H24.3v-.737l.64-.64v-.488h-.748l-.4-.412,1.659-1.648-.26-.26V27.44h-.542v.239h-.618v.954h-.9v.52H23.4v1.193h-.271l-1.03-1.03h-.466l-.52-.52h-.38v.477h-.26v-.38H18.9v-.325h-.3v.369h-.358v-.282h-.3v-.336H16.678v-.607h-.39v.369h-.271v-.347h-.3V28.3h-.64v.683h-.347V28.7l-.217-.228h-.38v-.878l-.239-.249v-.781H12.5v-.64H11.289v-.965h-.217v.369h-.781v-.661h-.3v.618H9.413v.976h-.3v-.336H8.817v-.683h-1.6v.336h.271v.672H6.908v-.239H6.615v-.39H6.269V24.1H5.607v.629H4.989v1.551l.325.336v.271H4.664v-.965H4.349V26.6H3.71v.64h.726v.466h-.5v.347l.477.466H5.737v.564H4.263v.661H3.829V29.4H3.341v-.445l-.488.488v.217h.358v.423H4.49v.325h.477v.249H4.6v1.117Z" transform="translate(0 -21.041)"/>
  <path id="Path_215" data-name="Path 215" class="cls-1" d="M16.7.5h1.453V2.126h-.726l-.51-.51.282-.271.26.249h.217V1.118h-.488Z" transform="translate(-14.443)"/>
  <path id="Path_216" data-name="Path 216" class="cls-2" d="M48.8,57.425c2.028.163,3.654.293,5.682.445a1.066,1.066,0,0,0,.976-.249,1.8,1.8,0,0,0,.2-.412,1.782,1.782,0,0,1,1.54-1.008" transform="translate(-43.063 -49.66)"/>
  <path id="Path_217" data-name="Path 217" class="cls-2" d="M21.745,12a1.071,1.071,0,0,0,.3.77q2.765,3.643,5.519,7.287a32.546,32.546,0,0,0,.2,6.495.99.99,0,0,0,.152.466.821.821,0,0,0,.542.228c1.757.228,3.546-.531,5.3-.217a8.682,8.682,0,0,1,4.25,2.7q7.043,6.75,13.5,14.074a1.691,1.691,0,0,0,.542.455,1.53,1.53,0,0,0,.586.076c.607,0,1.2-.011,1.811-.011,1.008-.011,2.234-.13,2.678-1.041.336-.672-.043-1.54.672-1.778" transform="translate(-18.935 -10.253)"/>
  <path id="Path_218" data-name="Path 218" class="cls-2" d="M126.78,72.5a4.724,4.724,0,0,0-2.418,1.681,22.1,22.1,0,0,0-2.1,2.516,11.182,11.182,0,0,0-1.583,3.513,1.619,1.619,0,0,1-.206.553c-.173.26-.477.39-.683.618-.488.52-.358,1.377-.737,1.984-.282.455-.813.737-.965,1.258a1.981,1.981,0,0,0-.011.716c.184,1.984.249,13.055.249,13.055" transform="translate(-104.8 -64.193)"/>
  <path id="Path_219" data-name="Path 219" class="cls-2" d="M14.7,146.6a7.455,7.455,0,0,1,.542,3.882,1.7,1.7,0,0,0,.173.987c.477.737,1.692.423,2.364.987a1.787,1.787,0,0,1,.445.651,5.375,5.375,0,0,1,.434,2.971.657.657,0,0,0,.011.325c.1.206.38.217.607.206,1.279-.1,2.57-.163,3.86-.2a12.639,12.639,0,0,1,2.028.076,8.256,8.256,0,0,0,1.919.206c.618-.054,1.312-.314,1.789.087a1.392,1.392,0,0,1,.369.607,4.806,4.806,0,0,1,.293,1.355,2,2,0,0,0,.076.51c.228.618,1.052.716,1.7.694l1.724-.033" transform="translate(-12.66 -130.258)"/>
  <path id="Path_220" data-name="Path 220" class="cls-3" d="M14.6,136.236a.61.61,0,0,0,.564-.011,5.845,5.845,0,0,1,.531-.249,1.419,1.419,0,0,1,1.247.488,2.854,2.854,0,0,0,1.106.835,2.246,2.246,0,0,0,.759.054c.857-.043,1.713-.076,2.559-.119" transform="translate(-12.571 -120.762)"/>
  <path id="Path_221" data-name="Path 221" class="cls-4" d="M143.6,87.289c2.624-2.125,5.476-4.3,8.208-6.289" transform="translate(-127.584 -71.771)"/>
  <path id="Path_222" data-name="Path 222" class="cls-2" d="M137.4,149.495a.979.979,0,0,1,.748-.26,2.187,2.187,0,0,1,.51.239,2.6,2.6,0,0,0,1.4.3,2.509,2.509,0,0,1,.943,0,1.334,1.334,0,0,1,.716,1.323,6.533,6.533,0,0,0,0,1.594c.163.661.737,1.214.759,1.9.011.52-.293,1.063-.1,1.54.228.531.911.64,1.475.781a3.263,3.263,0,0,1,1.713.987c.878,1.03.813,2.646,1.746,3.632.38.4.889.661,1.312,1.03.542.477.932,1.149,1.6,1.42a5.711,5.711,0,0,0,1.431.217,4.768,4.768,0,0,1,1.724.531" transform="translate(-122.056 -132.6)"/>
  <path id="Path_223" data-name="Path 223" class="cls-2" d="M156.343,269.8c.184.011.293.4.184.553a1.367,1.367,0,0,1-.455.314,4.241,4.241,0,0,0-.726.672,3.077,3.077,0,0,1-.846.553" transform="translate(-137.302 -240.1)"/>
  <path id="Path_224" data-name="Path 224" class="cls-2" d="M229,227.583c.651-.542,1.464-.4,2.212-.813,1.073-.586,1.236-2.147,2.245-2.83a9.123,9.123,0,0,0,.911-.64" transform="translate(-203.724 -198.642)"/>
  <path id="Path_225" data-name="Path 225" class="cls-1" d="M323.1,280.882v.271h.336v.173h.347l.542-.542h.217v.64h.184v.369h-.249v1.052h.249v-.39h.434l.325-.336v-.564l.412-.412h.206v.184h-.228v.39h.228l.249-.249v-.618h-.228v-.271h.369l.7-.7h.922v-.64h-1.214l-.4-.4v-1.084h-.282V277h-.173v.347l-.38.39-.347-.347h-.5l-.314.325v.683h.163v.347l.217.217-.867.867.184.184-.867.867Z" transform="translate(-287.62 -246.519)"/>
</svg>
