<svg xmlns="http://www.w3.org/2000/svg" viewBox="0 0 18.22 15.5">
  <defs>
    <style>
      .cls-1 {
        opacity: 0.35;
      }

      .cls-2 {
        fill: #fff;
      }

      .cls-3, .cls-4 {
        fill: none;
        stroke: #fff;
        stroke-miterlimit: 10;
      }

      .cls-4 {
        stroke-width: 0.5px;
      }
    </style>
  </defs>
  <g id="shop" transform="translate(-1418 -236.5)">
    <g id="Group_971" data-name="Group 971" class="cls-1" transform="translate(1418 236.5)">
      <circle id="Ellipse_44" data-name="Ellipse 44" class="cls-2" cx="1.3" cy="1.3" r="1.3" transform="translate(6.4 12.9)"/>
      <circle id="Ellipse_45" data-name="Ellipse 45" class="cls-2" cx="1.3" cy="1.3" r="1.3" transform="translate(14.7 12.9)"/>
      <g id="Group_966" data-name="Group 966">
        <path id="Path_764" data-name="Path 764" class="cls-2" d="M17,4.9,16.2,8H7.4L6.6,4.9H17m.7-1H5.3L6.7,9h9.9a.664.664,0,0,0,.5-.4l1.1-4.1a.5.5,0,0,0-.5-.6Z"/>
      </g>
      <path id="Path_765" data-name="Path 765" class="cls-3" d="M0,.5H2.9A1.927,1.927,0,0,1,4.8,2L7,10.1a1.927,1.927,0,0,0,1.9,1.5H16"/>
      <g id="Group_967" data-name="Group 967">
        <line id="Line_128" data-name="Line 128" class="cls-4" y2="5.1" transform="translate(10.7 3.9)"/>
      </g>
      <g id="Group_968" data-name="Group 968">
        <line id="Line_129" data-name="Line 129" class="cls-4" y2="5.1" transform="translate(14.7 3.9)"/>
      </g>
      <g id="Group_969" data-name="Group 969">
        <line id="Line_130" data-name="Line 130" class="cls-4" y2="5.1" transform="translate(8.7 3.9)"/>
      </g>
      <line id="Line_131" data-name="Line 131" class="cls-4" x2="11.3" transform="translate(6 6.4)"/>
      <g id="Group_970" data-name="Group 970">
        <line id="Line_132" data-name="Line 132" class="cls-4" y2="5.1" transform="translate(12.7 3.9)"/>
      </g>
    </g>
  </g>
</svg>
