<svg xmlns="http://www.w3.org/2000/svg" width="28.9" height="23.4" viewBox="0 0 28.9 23.4">
  <g id="Group_1024" data-name="Group 1024" transform="translate(1.9 1)">
    <g id="Group_1025" data-name="Group 1025" transform="translate(-1.9 -1)">
      <path id="Subtraction_6" data-name="Subtraction 6" d="M-8883.915-4043.036h0a4.25,4.25,0,0,1-.934-2.672,4.3,4.3,0,0,1,4.291-4.291,4.309,4.309,0,0,1,3.882,2.461,7.521,7.521,0,0,0-3.222,4.291,4.632,4.632,0,0,0-1.7-.3,5.4,5.4,0,0,0-2.314.513Z" transform="translate(8890 4055.149)" fill="#fff48d"/>
      <line id="Line_97" data-name="Line 97" y1="3.433" transform="translate(9.44)" fill="none" stroke="#fff48d" stroke-miterlimit="10" stroke-width="1.5"/>
      <line id="Line_99" data-name="Line 99" x1="3.433" transform="translate(0 9.44)" fill="none" stroke="#fff48d" stroke-miterlimit="10" stroke-width="1.5"/>
      <line id="Line_101" data-name="Line 101" x1="2.403" y1="2.403" transform="translate(2.746 2.746)" fill="none" stroke="#fff48d" stroke-miterlimit="10" stroke-width="1.5"/>
      <line id="Line_104" data-name="Line 104" x1="2.403" y2="2.403" transform="translate(13.731 2.746)" fill="none" stroke="#fff48d" stroke-miterlimit="10" stroke-width="1.5"/>
    </g>
    <path id="Path_774" data-name="Path 774" d="M21.8,21.3a4.2,4.2,0,0,0,.9-8.3v-.1a7.386,7.386,0,0,0-14.5-2,4.671,4.671,0,0,0-1.7-.3,5.4,5.4,0,1,0,0,10.8Z" fill="none" stroke="#8c8c8c" stroke-linejoin="bevel" stroke-miterlimit="10" stroke-width="2"/>
  </g>
</svg>
