<svg xmlns="http://www.w3.org/2000/svg" width="26.9" height="25" viewBox="0 0 26.9 25">
  <g id="Group_1023" data-name="Group 1023" transform="translate(-0.1)">
    <path id="Path_772" data-name="Path 772" d="M21.8,24a4.2,4.2,0,0,0,.9-8.3v-.1a7.386,7.386,0,0,0-14.5-2,4.671,4.671,0,0,0-1.7-.3,5.378,5.378,0,0,0-5.4,5.4A5.209,5.209,0,0,0,6.4,24Z" fill="none" stroke="#8c8c8c" stroke-linejoin="bevel" stroke-miterlimit="10" stroke-width="2"/>
    <path id="Path_773" data-name="Path 773" d="M10.5,9.9H6.2A2.433,2.433,0,0,1,3.8,7.5,2.354,2.354,0,0,1,5.7,5.2V5.1A4.054,4.054,0,0,1,9.8,1a4.2,4.2,0,0,1,4,3,2.959,2.959,0,0,1,1-.2,3.009,3.009,0,0,1,3,3A5.019,5.019,0,0,1,17.6,8" fill="none" stroke="#8c8c8c" stroke-linejoin="bevel" stroke-miterlimit="10" stroke-width="2"/>
  </g>
</svg>
